<ttFont>
    <TTGlyph name=".notdef" xMin="48" yMin="61" xMax="305" yMax="412">
      <contour>
        <pt x="48" y="92" on="1"/>
        <pt x="48" y="104" on="0"/>
        <pt x="54" y="111" on="1"/>
        <pt x="137" y="236" on="1"/>
        <pt x="54" y="361" on="1"/>
        <pt x="48" y="369" on="0"/>
        <pt x="48" y="380" on="1"/>
        <pt x="48" y="393" on="0"/>
        <pt x="70" y="412" on="0"/>
        <pt x="84" y="412" on="1"/>
        <pt x="99" y="412" on="0"/>
        <pt x="110" y="398" on="1"/>
        <pt x="177" y="291" on="1"/>
        <pt x="244" y="398" on="1"/>
        <pt x="253" y="412" on="0"/>
        <pt x="270" y="412" on="1"/>
        <pt x="284" y="412" on="0"/>
        <pt x="305" y="394" on="0"/>
        <pt x="305" y="380" on="1"/>
        <pt x="305" y="370" on="0"/>
        <pt x="300" y="361" on="1"/>
        <pt x="217" y="236" on="1"/>
        <pt x="299" y="111" on="1"/>
        <pt x="305" y="102" on="0"/>
        <pt x="305" y="92" on="1"/>
        <pt x="305" y="79" on="0"/>
        <pt x="283" y="61" on="0"/>
        <pt x="269" y="61" on="1"/>
        <pt x="251" y="61" on="0"/>
        <pt x="243" y="75" on="1"/>
        <pt x="177" y="181" on="1"/>
        <pt x="110" y="75" on="1"/>
        <pt x="100" y="61" on="0"/>
        <pt x="84" y="61" on="1"/>
        <pt x="70" y="61" on="0"/>
        <pt x="48" y="79" on="0"/>
      </contour>
    </TTGlyph>
    <TTGlyph name="A" xMin="17" yMin="0" xMax="532" yMax="737">
      <contour>
        <pt x="17" y="35" on="1"/>
        <pt x="17" y="37" on="0"/>
        <pt x="19" y="43" on="1"/>
        <pt x="223" y="708" on="1"/>
        <pt x="232" y="737" on="0"/>
        <pt x="318" y="737" on="0"/>
        <pt x="327" y="708" on="1"/>
        <pt x="531" y="43" on="1"/>
        <pt x="531" y="41" on="0"/>
        <pt x="532" y="37" on="0"/>
        <pt x="532" y="36" on="1"/>
        <pt x="532" y="22" on="0"/>
        <pt x="499" y="0" on="0"/>
        <pt x="480" y="0" on="1"/>
        <pt x="456" y="0" on="0"/>
        <pt x="450" y="19" on="1"/>
        <pt x="406" y="168" on="1"/>
        <pt x="143" y="168" on="1"/>
        <pt x="99" y="19" on="1"/>
        <pt x="93" y="0" on="0"/>
        <pt x="68" y="0" on="1"/>
        <pt x="50" y="0" on="0"/>
        <pt x="17" y="20" on="0"/>
      </contour>
      <contour>
        <pt x="162" y="237" on="1"/>
        <pt x="386" y="237" on="1"/>
        <pt x="275" y="613" on="1"/>
      </contour>
    </TTGlyph>
    <TTGlyph name="AE" xMin="68" yMin="0" xMax="713" yMax="731">
      <contour>
        <pt x="68" y="35" on="1"/>
        <pt x="68" y="513" on="1"/>
        <pt x="68" y="626" on="0"/>
        <pt x="184" y="731" on="0"/>
        <pt x="280" y="731" on="1"/>
        <pt x="684" y="731" on="1"/>
        <pt x="698" y="731" on="0"/>
        <pt x="713" y="709" on="0"/>
        <pt x="713" y="694" on="1"/>
        <pt x="713" y="677" on="0"/>
        <pt x="698" y="655" on="0"/>
        <pt x="684" y="655" on="1"/>
        <pt x="451" y="655" on="1"/>
        <pt x="451" y="401" on="1"/>
        <pt x="591" y="401" on="1"/>
        <pt x="604" y="401" on="0"/>
        <pt x="620" y="380" on="0"/>
        <pt x="620" y="365" on="1"/>
        <pt x="620" y="352" on="0"/>
        <pt x="605" y="331" on="0"/>
        <pt x="591" y="331" on="1"/>
        <pt x="451" y="331" on="1"/>
        <pt x="451" y="76" on="1"/>
        <pt x="684" y="76" on="1"/>
        <pt x="698" y="76" on="0"/>
        <pt x="713" y="54" on="0"/>
        <pt x="713" y="37" on="1"/>
        <pt x="713" y="22" on="0"/>
        <pt x="698" y="0" on="0"/>
        <pt x="684" y="0" on="1"/>
        <pt x="405" y="0" on="1"/>
        <pt x="390" y="0" on="0"/>
        <pt x="367" y="16" on="0"/>
        <pt x="367" y="30" on="1"/>
        <pt x="367" y="331" on="1"/>
        <pt x="148" y="331" on="1"/>
        <pt x="148" y="35" on="1"/>
        <pt x="148" y="17" on="0"/>
        <pt x="132" y="0" on="0"/>
        <pt x="106" y="0" on="1"/>
        <pt x="68" y="0" on="0"/>
      </contour>
      <contour>
        <pt x="148" y="401" on="1"/>
        <pt x="367" y="401" on="1"/>
        <pt x="367" y="655" on="1"/>
        <pt x="280" y="655" on="1"/>
        <pt x="217" y="655" on="0"/>
        <pt x="148" y="584" on="0"/>
        <pt x="148" y="513" on="1"/>
      </contour>
    </TTGlyph>
    <TTGlyph name="AEacute" xMin="68" yMin="0" xMax="713" yMax="953">
      <contour>
        <pt x="68" y="35" on="1"/>
        <pt x="68" y="513" on="1"/>
        <pt x="68" y="626" on="0"/>
        <pt x="184" y="731" on="0"/>
        <pt x="280" y="731" on="1"/>
        <pt x="684" y="731" on="1"/>
        <pt x="698" y="731" on="0"/>
        <pt x="713" y="709" on="0"/>
        <pt x="713" y="694" on="1"/>
        <pt x="713" y="677" on="0"/>
        <pt x="698" y="655" on="0"/>
        <pt x="684" y="655" on="1"/>
        <pt x="451" y="655" on="1"/>
        <pt x="451" y="401" on="1"/>
        <pt x="591" y="401" on="1"/>
        <pt x="604" y="401" on="0"/>
        <pt x="620" y="380" on="0"/>
        <pt x="620" y="365" on="1"/>
        <pt x="620" y="352" on="0"/>
        <pt x="605" y="331" on="0"/>
        <pt x="591" y="331" on="1"/>
        <pt x="451" y="331" on="1"/>
        <pt x="451" y="76" on="1"/>
        <pt x="684" y="76" on="1"/>
        <pt x="698" y="76" on="0"/>
        <pt x="713" y="54" on="0"/>
        <pt x="713" y="37" on="1"/>
        <pt x="713" y="22" on="0"/>
        <pt x="698" y="0" on="0"/>
        <pt x="684" y="0" on="1"/>
        <pt x="405" y="0" on="1"/>
        <pt x="390" y="0" on="0"/>
        <pt x="367" y="16" on="0"/>
        <pt x="367" y="30" on="1"/>
        <pt x="367" y="331" on="1"/>
        <pt x="148" y="331" on="1"/>
        <pt x="148" y="35" on="1"/>
        <pt x="148" y="17" on="0"/>
        <pt x="132" y="0" on="0"/>
        <pt x="106" y="0" on="1"/>
        <pt x="68" y="0" on="0"/>
      </contour>
      <contour>
        <pt x="148" y="401" on="1"/>
        <pt x="367" y="401" on="1"/>
        <pt x="367" y="655" on="1"/>
        <pt x="280" y="655" on="1"/>
        <pt x="217" y="655" on="0"/>
        <pt x="148" y="584" on="0"/>
        <pt x="148" y="513" on="1"/>
      </contour>
      <contour>
        <pt x="321" y="867" on="1"/>
        <pt x="321" y="882" on="0"/>
        <pt x="334" y="889" on="1"/>
        <pt x="451" y="951" on="1"/>
        <pt x="457" y="953" on="0"/>
        <pt x="461" y="953" on="1"/>
        <pt x="473" y="953" on="0"/>
        <pt x="489" y="932" on="0"/>
        <pt x="489" y="919" on="1"/>
        <pt x="489" y="902" on="0"/>
        <pt x="475" y="895" on="1"/>
        <pt x="362" y="837" on="1"/>
        <pt x="354" y="833" on="0"/>
        <pt x="351" y="833" on="1"/>
        <pt x="339" y="833" on="0"/>
        <pt x="321" y="854" on="0"/>
      </contour>
    </TTGlyph>
    <TTGlyph name="Aacute" xMin="17" yMin="0" xMax="532" yMax="955">
      <contour>
        <pt x="17" y="35" on="1"/>
        <pt x="17" y="37" on="0"/>
        <pt x="19" y="43" on="1"/>
        <pt x="223" y="708" on="1"/>
        <pt x="232" y="737" on="0"/>
        <pt x="318" y="737" on="0"/>
        <pt x="327" y="708" on="1"/>
        <pt x="531" y="43" on="1"/>
        <pt x="531" y="41" on="0"/>
        <pt x="532" y="37" on="0"/>
        <pt x="532" y="36" on="1"/>
        <pt x="532" y="22" on="0"/>
        <pt x="499" y="0" on="0"/>
        <pt x="480" y="0" on="1"/>
        <pt x="456" y="0" on="0"/>
        <pt x="450" y="19" on="1"/>
        <pt x="406" y="168" on="1"/>
        <pt x="143" y="168" on="1"/>
        <pt x="99" y="19" on="1"/>
        <pt x="93" y="0" on="0"/>
        <pt x="68" y="0" on="1"/>
        <pt x="50" y="0" on="0"/>
        <pt x="17" y="20" on="0"/>
      </contour>
      <contour>
        <pt x="162" y="237" on="1"/>
        <pt x="386" y="237" on="1"/>
        <pt x="275" y="613" on="1"/>
      </contour>
      <contour>
        <pt x="206" y="869" on="1"/>
        <pt x="206" y="884" on="0"/>
        <pt x="219" y="891" on="1"/>
        <pt x="336" y="953" on="1"/>
        <pt x="342" y="955" on="0"/>
        <pt x="346" y="955" on="1"/>
        <pt x="358" y="955" on="0"/>
        <pt x="374" y="934" on="0"/>
        <pt x="374" y="921" on="1"/>
        <pt x="374" y="904" on="0"/>
        <pt x="360" y="897" on="1"/>
        <pt x="247" y="839" on="1"/>
        <pt x="239" y="835" on="0"/>
        <pt x="236" y="835" on="1"/>
        <pt x="224" y="835" on="0"/>
        <pt x="206" y="856" on="0"/>
      </contour>
    </TTGlyph>
    <TTGlyph name="Abreve" xMin="17" yMin="0" xMax="532" yMax="967">
      <contour>
        <pt x="17" y="35" on="1"/>
        <pt x="17" y="37" on="0"/>
        <pt x="19" y="43" on="1"/>
        <pt x="223" y="708" on="1"/>
        <pt x="232" y="737" on="0"/>
        <pt x="318" y="737" on="0"/>
        <pt x="327" y="708" on="1"/>
        <pt x="531" y="43" on="1"/>
        <pt x="531" y="41" on="0"/>
        <pt x="532" y="37" on="0"/>
        <pt x="532" y="36" on="1"/>
        <pt x="532" y="22" on="0"/>
        <pt x="499" y="0" on="0"/>
        <pt x="480" y="0" on="1"/>
        <pt x="456" y="0" on="0"/>
        <pt x="450" y="19" on="1"/>
        <pt x="406" y="168" on="1"/>
        <pt x="143" y="168" on="1"/>
        <pt x="99" y="19" on="1"/>
        <pt x="93" y="0" on="0"/>
        <pt x="68" y="0" on="1"/>
        <pt x="50" y="0" on="0"/>
        <pt x="17" y="20" on="0"/>
      </contour>
      <contour>
        <pt x="153" y="967" on="1"/>
        <pt x="204" y="967" on="1"/>
        <pt x="204" y="934" on="0"/>
        <pt x="246" y="888" on="0"/>
        <pt x="302" y="888" on="0"/>
        <pt x="344" y="934" on="0"/>
        <pt x="344" y="967" on="1"/>
        <pt x="395" y="967" on="1"/>
        <pt x="395" y="919" on="0"/>
        <pt x="322" y="846" on="0"/>
        <pt x="226" y="846" on="0"/>
        <pt x="153" y="919" on="0"/>
      </contour>
      <contour>
        <pt x="162" y="237" on="1"/>
        <pt x="386" y="237" on="1"/>
        <pt x="275" y="613" on="1"/>
      </contour>
    </TTGlyph>
    <TTGlyph name="Acircumflex" xMin="17" yMin="0" xMax="532" yMax="955">
      <contour>
        <pt x="17" y="35" on="1"/>
        <pt x="17" y="37" on="0"/>
        <pt x="19" y="43" on="1"/>
        <pt x="223" y="708" on="1"/>
        <pt x="232" y="737" on="0"/>
        <pt x="318" y="737" on="0"/>
        <pt x="327" y="708" on="1"/>
        <pt x="531" y="43" on="1"/>
        <pt x="531" y="41" on="0"/>
        <pt x="532" y="37" on="0"/>
        <pt x="532" y="36" on="1"/>
        <pt x="532" y="22" on="0"/>
        <pt x="499" y="0" on="0"/>
        <pt x="480" y="0" on="1"/>
        <pt x="456" y="0" on="0"/>
        <pt x="450" y="19" on="1"/>
        <pt x="406" y="168" on="1"/>
        <pt x="143" y="168" on="1"/>
        <pt x="99" y="19" on="1"/>
        <pt x="93" y="0" on="0"/>
        <pt x="68" y="0" on="1"/>
        <pt x="50" y="0" on="0"/>
        <pt x="17" y="20" on="0"/>
      </contour>
      <contour>
        <pt x="138" y="868" on="1"/>
        <pt x="138" y="886" on="0"/>
        <pt x="153" y="894" on="1"/>
        <pt x="257" y="950" on="1"/>
        <pt x="267" y="955" on="0"/>
        <pt x="274" y="955" on="1"/>
        <pt x="283" y="955" on="0"/>
        <pt x="291" y="950" on="1"/>
        <pt x="395" y="895" on="1"/>
        <pt x="411" y="886" on="0"/>
        <pt x="411" y="867" on="1"/>
        <pt x="411" y="856" on="0"/>
        <pt x="398" y="839" on="0"/>
        <pt x="388" y="839" on="1"/>
        <pt x="386" y="839" on="0"/>
        <pt x="382" y="840" on="1"/>
        <pt x="380" y="842" on="0"/>
        <pt x="378" y="842" on="1"/>
        <pt x="274" y="898" on="1"/>
        <pt x="170" y="842" on="1"/>
        <pt x="166" y="839" on="0"/>
        <pt x="161" y="839" on="1"/>
        <pt x="152" y="839" on="0"/>
        <pt x="138" y="857" on="0"/>
      </contour>
      <contour>
        <pt x="162" y="237" on="1"/>
        <pt x="386" y="237" on="1"/>
        <pt x="275" y="613" on="1"/>
      </contour>
    </TTGlyph>
    <TTGlyph name="Adieresis" xMin="17" yMin="0" xMax="532" yMax="922">
      <contour>
        <pt x="17" y="35" on="1"/>
        <pt x="17" y="37" on="0"/>
        <pt x="19" y="43" on="1"/>
        <pt x="223" y="708" on="1"/>
        <pt x="232" y="737" on="0"/>
        <pt x="318" y="737" on="0"/>
        <pt x="327" y="708" on="1"/>
        <pt x="531" y="43" on="1"/>
        <pt x="531" y="41" on="0"/>
        <pt x="532" y="37" on="0"/>
        <pt x="532" y="36" on="1"/>
        <pt x="532" y="22" on="0"/>
        <pt x="499" y="0" on="0"/>
        <pt x="480" y="0" on="1"/>
        <pt x="456" y="0" on="0"/>
        <pt x="450" y="19" on="1"/>
        <pt x="406" y="168" on="1"/>
        <pt x="143" y="168" on="1"/>
        <pt x="99" y="19" on="1"/>
        <pt x="93" y="0" on="0"/>
        <pt x="68" y="0" on="1"/>
        <pt x="50" y="0" on="0"/>
        <pt x="17" y="20" on="0"/>
      </contour>
      <contour>
        <pt x="162" y="237" on="1"/>
        <pt x="386" y="237" on="1"/>
        <pt x="275" y="613" on="1"/>
      </contour>
      <contour>
        <pt x="169" y="864" on="0"/>
        <pt x="169" y="898" on="0"/>
        <pt x="193" y="922" on="0"/>
        <pt x="227" y="922" on="0"/>
        <pt x="250" y="898" on="0"/>
        <pt x="250" y="864" on="0"/>
        <pt x="226" y="839" on="0"/>
        <pt x="210" y="839" on="1"/>
        <pt x="193" y="839" on="0"/>
      </contour>
      <contour>
        <pt x="300" y="864" on="0"/>
        <pt x="300" y="898" on="0"/>
        <pt x="323" y="922" on="0"/>
        <pt x="357" y="922" on="0"/>
        <pt x="380" y="898" on="0"/>
        <pt x="380" y="864" on="0"/>
        <pt x="357" y="839" on="0"/>
        <pt x="323" y="839" on="0"/>
      </contour>
    </TTGlyph>
    <TTGlyph name="Agrave" xMin="17" yMin="0" xMax="532" yMax="955">
      <contour>
        <pt x="17" y="35" on="1"/>
        <pt x="17" y="37" on="0"/>
        <pt x="19" y="43" on="1"/>
        <pt x="223" y="708" on="1"/>
        <pt x="232" y="737" on="0"/>
        <pt x="318" y="737" on="0"/>
        <pt x="327" y="708" on="1"/>
        <pt x="531" y="43" on="1"/>
        <pt x="531" y="41" on="0"/>
        <pt x="532" y="37" on="0"/>
        <pt x="532" y="36" on="1"/>
        <pt x="532" y="22" on="0"/>
        <pt x="499" y="0" on="0"/>
        <pt x="480" y="0" on="1"/>
        <pt x="456" y="0" on="0"/>
        <pt x="450" y="19" on="1"/>
        <pt x="406" y="168" on="1"/>
        <pt x="143" y="168" on="1"/>
        <pt x="99" y="19" on="1"/>
        <pt x="93" y="0" on="0"/>
        <pt x="68" y="0" on="1"/>
        <pt x="50" y="0" on="0"/>
        <pt x="17" y="20" on="0"/>
      </contour>
      <contour>
        <pt x="162" y="237" on="1"/>
        <pt x="386" y="237" on="1"/>
        <pt x="275" y="613" on="1"/>
      </contour>
      <contour>
        <pt x="184" y="921" on="1"/>
        <pt x="184" y="934" on="0"/>
        <pt x="200" y="955" on="0"/>
        <pt x="212" y="955" on="1"/>
        <pt x="216" y="955" on="0"/>
        <pt x="222" y="953" on="1"/>
        <pt x="339" y="891" on="1"/>
        <pt x="352" y="884" on="0"/>
        <pt x="352" y="869" on="1"/>
        <pt x="352" y="856" on="0"/>
        <pt x="334" y="835" on="0"/>
        <pt x="322" y="835" on="1"/>
        <pt x="319" y="835" on="0"/>
        <pt x="311" y="839" on="1"/>
        <pt x="198" y="897" on="1"/>
        <pt x="184" y="904" on="0"/>
      </contour>
    </TTGlyph>
    <TTGlyph name="Amacron" xMin="17" yMin="0" xMax="532" yMax="940">
      <contour>
        <pt x="17" y="35" on="1"/>
        <pt x="17" y="37" on="0"/>
        <pt x="19" y="43" on="1"/>
        <pt x="223" y="708" on="1"/>
        <pt x="232" y="737" on="0"/>
        <pt x="318" y="737" on="0"/>
        <pt x="327" y="708" on="1"/>
        <pt x="531" y="43" on="1"/>
        <pt x="531" y="41" on="0"/>
        <pt x="532" y="37" on="0"/>
        <pt x="532" y="36" on="1"/>
        <pt x="532" y="22" on="0"/>
        <pt x="499" y="0" on="0"/>
        <pt x="480" y="0" on="1"/>
        <pt x="456" y="0" on="0"/>
        <pt x="450" y="19" on="1"/>
        <pt x="406" y="168" on="1"/>
        <pt x="143" y="168" on="1"/>
        <pt x="99" y="19" on="1"/>
        <pt x="93" y="0" on="0"/>
        <pt x="68" y="0" on="1"/>
        <pt x="50" y="0" on="0"/>
        <pt x="17" y="20" on="0"/>
      </contour>
      <contour>
        <pt x="139" y="896" on="0"/>
        <pt x="139" y="922" on="0"/>
        <pt x="155" y="940" on="0"/>
        <pt x="168" y="940" on="1"/>
        <pt x="380" y="940" on="1"/>
        <pt x="392" y="940" on="0"/>
        <pt x="410" y="922" on="0"/>
        <pt x="410" y="896" on="0"/>
        <pt x="392" y="879" on="0"/>
        <pt x="380" y="879" on="1"/>
        <pt x="168" y="879" on="1"/>
        <pt x="155" y="879" on="0"/>
      </contour>
      <contour>
        <pt x="162" y="237" on="1"/>
        <pt x="386" y="237" on="1"/>
        <pt x="275" y="613" on="1"/>
      </contour>
    </TTGlyph>
    <TTGlyph name="Aogonek" xMin="17" yMin="-204" xMax="532" yMax="737">
      <contour>
        <pt x="17" y="35" on="1"/>
        <pt x="17" y="37" on="0"/>
        <pt x="19" y="43" on="1"/>
        <pt x="223" y="708" on="1"/>
        <pt x="232" y="737" on="0"/>
        <pt x="318" y="737" on="0"/>
        <pt x="327" y="708" on="1"/>
        <pt x="531" y="43" on="1"/>
        <pt x="531" y="41" on="0"/>
        <pt x="532" y="37" on="0"/>
        <pt x="532" y="36" on="1"/>
        <pt x="532" y="15" on="0"/>
        <pt x="501" y="4" on="1"/>
        <pt x="429" y="-56" on="0"/>
        <pt x="429" y="-118" on="1"/>
        <pt x="429" y="-163" on="0"/>
        <pt x="490" y="-163" on="1"/>
        <pt x="510" y="-163" on="0"/>
        <pt x="510" y="-185" on="1"/>
        <pt x="510" y="-204" on="0"/>
        <pt x="484" y="-204" on="1"/>
        <pt x="439" y="-204" on="0"/>
        <pt x="382" y="-164" on="0"/>
        <pt x="382" y="-125" on="1"/>
        <pt x="382" y="-50" on="0"/>
        <pt x="453" y="11" on="1"/>
        <pt x="406" y="168" on="1"/>
        <pt x="143" y="168" on="1"/>
        <pt x="99" y="19" on="1"/>
        <pt x="93" y="0" on="0"/>
        <pt x="68" y="0" on="1"/>
        <pt x="50" y="0" on="0"/>
        <pt x="17" y="20" on="0"/>
      </contour>
      <contour>
        <pt x="162" y="237" on="1"/>
        <pt x="386" y="237" on="1"/>
        <pt x="275" y="613" on="1"/>
      </contour>
    </TTGlyph>
    <TTGlyph name="Aring" xMin="17" yMin="0" xMax="532" yMax="1019">
      <contour>
        <pt x="17" y="35" on="1"/>
        <pt x="17" y="37" on="0"/>
        <pt x="19" y="43" on="1"/>
        <pt x="223" y="708" on="1"/>
        <pt x="232" y="737" on="0"/>
        <pt x="318" y="737" on="0"/>
        <pt x="327" y="708" on="1"/>
        <pt x="531" y="43" on="1"/>
        <pt x="531" y="41" on="0"/>
        <pt x="532" y="37" on="0"/>
        <pt x="532" y="36" on="1"/>
        <pt x="532" y="22" on="0"/>
        <pt x="499" y="0" on="0"/>
        <pt x="480" y="0" on="1"/>
        <pt x="456" y="0" on="0"/>
        <pt x="450" y="19" on="1"/>
        <pt x="406" y="168" on="1"/>
        <pt x="143" y="168" on="1"/>
        <pt x="99" y="19" on="1"/>
        <pt x="93" y="0" on="0"/>
        <pt x="68" y="0" on="1"/>
        <pt x="50" y="0" on="0"/>
        <pt x="17" y="20" on="0"/>
      </contour>
      <contour>
        <pt x="162" y="237" on="1"/>
        <pt x="386" y="237" on="1"/>
        <pt x="275" y="613" on="1"/>
      </contour>
      <contour>
        <pt x="180" y="924" on="1"/>
        <pt x="180" y="962" on="0"/>
        <pt x="235" y="1019" on="0"/>
        <pt x="274" y="1019" on="1"/>
        <pt x="311" y="1019" on="0"/>
        <pt x="368" y="961" on="0"/>
        <pt x="368" y="924" on="1"/>
        <pt x="368" y="886" on="0"/>
        <pt x="311" y="827" on="0"/>
        <pt x="274" y="827" on="1"/>
        <pt x="235" y="827" on="0"/>
        <pt x="180" y="885" on="0"/>
      </contour>
      <contour>
        <pt x="218" y="924" on="1"/>
        <pt x="218" y="902" on="0"/>
        <pt x="251" y="865" on="0"/>
        <pt x="274" y="865" on="1"/>
        <pt x="296" y="865" on="0"/>
        <pt x="329" y="902" on="0"/>
        <pt x="329" y="924" on="1"/>
        <pt x="329" y="945" on="0"/>
        <pt x="296" y="979" on="0"/>
        <pt x="274" y="979" on="1"/>
        <pt x="251" y="979" on="0"/>
        <pt x="218" y="944" on="0"/>
      </contour>
    </TTGlyph>
    <TTGlyph name="Atilde" xMin="17" yMin="0" xMax="532" yMax="948">
      <contour>
        <pt x="17" y="35" on="1"/>
        <pt x="17" y="37" on="0"/>
        <pt x="19" y="43" on="1"/>
        <pt x="223" y="708" on="1"/>
        <pt x="232" y="737" on="0"/>
        <pt x="318" y="737" on="0"/>
        <pt x="327" y="708" on="1"/>
        <pt x="531" y="43" on="1"/>
        <pt x="531" y="41" on="0"/>
        <pt x="532" y="37" on="0"/>
        <pt x="532" y="36" on="1"/>
        <pt x="532" y="22" on="0"/>
        <pt x="499" y="0" on="0"/>
        <pt x="480" y="0" on="1"/>
        <pt x="456" y="0" on="0"/>
        <pt x="450" y="19" on="1"/>
        <pt x="406" y="168" on="1"/>
        <pt x="143" y="168" on="1"/>
        <pt x="99" y="19" on="1"/>
        <pt x="93" y="0" on="0"/>
        <pt x="68" y="0" on="1"/>
        <pt x="50" y="0" on="0"/>
        <pt x="17" y="20" on="0"/>
      </contour>
      <contour>
        <pt x="115" y="887" on="1"/>
        <pt x="115" y="916" on="0"/>
        <pt x="174" y="948" on="0"/>
        <pt x="202" y="948" on="1"/>
        <pt x="229" y="948" on="0"/>
        <pt x="311" y="915" on="0"/>
        <pt x="337" y="915" on="1"/>
        <pt x="362" y="915" on="0"/>
        <pt x="404" y="942" on="0"/>
        <pt x="410" y="942" on="1"/>
        <pt x="421" y="942" on="0"/>
        <pt x="434" y="923" on="0"/>
        <pt x="434" y="914" on="1"/>
        <pt x="434" y="883" on="0"/>
        <pt x="378" y="854" on="0"/>
        <pt x="350" y="854" on="1"/>
        <pt x="320" y="854" on="0"/>
        <pt x="240" y="887" on="0"/>
        <pt x="214" y="887" on="1"/>
        <pt x="189" y="887" on="0"/>
        <pt x="144" y="858" on="0"/>
        <pt x="138" y="858" on="1"/>
        <pt x="127" y="858" on="0"/>
        <pt x="115" y="877" on="0"/>
      </contour>
      <contour>
        <pt x="162" y="237" on="1"/>
        <pt x="386" y="237" on="1"/>
        <pt x="275" y="613" on="1"/>
      </contour>
    </TTGlyph>
    <TTGlyph name="B" xMin="71" yMin="0" xMax="502" yMax="731">
      <contour>
        <pt x="71" y="29" on="1"/>
        <pt x="71" y="701" on="1"/>
        <pt x="71" y="715" on="0"/>
        <pt x="94" y="731" on="0"/>
        <pt x="109" y="731" on="1"/>
        <pt x="281" y="731" on="1"/>
        <pt x="375" y="731" on="0"/>
        <pt x="484" y="657" on="0"/>
        <pt x="484" y="560" on="1"/>
        <pt x="484" y="498" on="0"/>
        <pt x="439" y="413" on="0"/>
        <pt x="399" y="396" on="1"/>
        <pt x="450" y="376" on="0"/>
        <pt x="502" y="298" on="0"/>
        <pt x="502" y="226" on="1"/>
        <pt x="502" y="208" on="1"/>
        <pt x="502" y="100" on="0"/>
        <pt x="394" y="0" on="0"/>
        <pt x="304" y="0" on="1"/>
        <pt x="109" y="0" on="1"/>
        <pt x="92" y="0" on="0"/>
        <pt x="71" y="17" on="0"/>
      </contour>
      <contour>
        <pt x="155" y="76" on="1"/>
        <pt x="290" y="76" on="1"/>
        <pt x="418" y="76" on="0"/>
        <pt x="418" y="213" on="1"/>
        <pt x="418" y="230" on="1"/>
        <pt x="418" y="299" on="0"/>
        <pt x="353" y="361" on="0"/>
        <pt x="290" y="361" on="1"/>
        <pt x="155" y="361" on="1"/>
      </contour>
      <contour>
        <pt x="155" y="431" on="1"/>
        <pt x="280" y="431" on="1"/>
        <pt x="342" y="431" on="0"/>
        <pt x="400" y="487" on="0"/>
        <pt x="400" y="548" on="1"/>
        <pt x="400" y="655" on="0"/>
        <pt x="277" y="655" on="1"/>
        <pt x="155" y="655" on="1"/>
      </contour>
    </TTGlyph>
    <TTGlyph name="C" xMin="64" yMin="-6" xMax="495" yMax="731">
      <contour>
        <pt x="64" y="212" on="1"/>
        <pt x="64" y="513" on="1"/>
        <pt x="64" y="625" on="0"/>
        <pt x="183" y="731" on="0"/>
        <pt x="279" y="731" on="1"/>
        <pt x="377" y="731" on="0"/>
        <pt x="495" y="632" on="0"/>
        <pt x="495" y="557" on="1"/>
        <pt x="495" y="530" on="0"/>
        <pt x="475" y="511" on="0"/>
        <pt x="453" y="511" on="1"/>
        <pt x="413" y="511" on="0"/>
        <pt x="411" y="540" on="1"/>
        <pt x="405" y="655" on="0"/>
        <pt x="281" y="655" on="1"/>
        <pt x="148" y="655" on="0"/>
        <pt x="148" y="513" on="1"/>
        <pt x="148" y="212" on="1"/>
        <pt x="148" y="70" on="0"/>
        <pt x="284" y="70" on="1"/>
        <pt x="323" y="70" on="0"/>
        <pt x="375" y="92" on="0"/>
        <pt x="400" y="134" on="0"/>
        <pt x="408" y="164" on="0"/>
        <pt x="411" y="189" on="1"/>
        <pt x="414" y="218" on="0"/>
        <pt x="453" y="218" on="1"/>
        <pt x="475" y="218" on="0"/>
        <pt x="495" y="198" on="0"/>
        <pt x="495" y="171" on="1"/>
        <pt x="495" y="95" on="0"/>
        <pt x="376" y="-6" on="0"/>
        <pt x="278" y="-6" on="1"/>
        <pt x="183" y="-6" on="0"/>
        <pt x="64" y="100" on="0"/>
      </contour>
    </TTGlyph>
    <TTGlyph name="Cacute" xMin="64" yMin="-6" xMax="495" yMax="955">
      <contour>
        <pt x="64" y="212" on="1"/>
        <pt x="64" y="513" on="1"/>
        <pt x="64" y="625" on="0"/>
        <pt x="183" y="731" on="0"/>
        <pt x="279" y="731" on="1"/>
        <pt x="377" y="731" on="0"/>
        <pt x="495" y="632" on="0"/>
        <pt x="495" y="557" on="1"/>
        <pt x="495" y="530" on="0"/>
        <pt x="475" y="511" on="0"/>
        <pt x="453" y="511" on="1"/>
        <pt x="413" y="511" on="0"/>
        <pt x="411" y="540" on="1"/>
        <pt x="405" y="655" on="0"/>
        <pt x="281" y="655" on="1"/>
        <pt x="148" y="655" on="0"/>
        <pt x="148" y="513" on="1"/>
        <pt x="148" y="212" on="1"/>
        <pt x="148" y="70" on="0"/>
        <pt x="284" y="70" on="1"/>
        <pt x="323" y="70" on="0"/>
        <pt x="375" y="92" on="0"/>
        <pt x="400" y="134" on="0"/>
        <pt x="408" y="164" on="0"/>
        <pt x="411" y="189" on="1"/>
        <pt x="414" y="218" on="0"/>
        <pt x="453" y="218" on="1"/>
        <pt x="475" y="218" on="0"/>
        <pt x="495" y="198" on="0"/>
        <pt x="495" y="171" on="1"/>
        <pt x="495" y="95" on="0"/>
        <pt x="376" y="-6" on="0"/>
        <pt x="278" y="-6" on="1"/>
        <pt x="183" y="-6" on="0"/>
        <pt x="64" y="100" on="0"/>
      </contour>
      <contour>
        <pt x="205" y="869" on="1"/>
        <pt x="205" y="884" on="0"/>
        <pt x="218" y="891" on="1"/>
        <pt x="335" y="953" on="1"/>
        <pt x="341" y="955" on="0"/>
        <pt x="345" y="955" on="1"/>
        <pt x="357" y="955" on="0"/>
        <pt x="373" y="934" on="0"/>
        <pt x="373" y="921" on="1"/>
        <pt x="373" y="904" on="0"/>
        <pt x="359" y="897" on="1"/>
        <pt x="246" y="839" on="1"/>
        <pt x="238" y="835" on="0"/>
        <pt x="235" y="835" on="1"/>
        <pt x="223" y="835" on="0"/>
        <pt x="205" y="856" on="0"/>
      </contour>
    </TTGlyph>
    <TTGlyph name="Ccaron" xMin="64" yMin="-6" xMax="495" yMax="982">
      <contour>
        <pt x="64" y="212" on="1"/>
        <pt x="64" y="513" on="1"/>
        <pt x="64" y="625" on="0"/>
        <pt x="183" y="731" on="0"/>
        <pt x="279" y="731" on="1"/>
        <pt x="377" y="731" on="0"/>
        <pt x="495" y="632" on="0"/>
        <pt x="495" y="557" on="1"/>
        <pt x="495" y="530" on="0"/>
        <pt x="475" y="511" on="0"/>
        <pt x="453" y="511" on="1"/>
        <pt x="413" y="511" on="0"/>
        <pt x="411" y="540" on="1"/>
        <pt x="405" y="655" on="0"/>
        <pt x="281" y="655" on="1"/>
        <pt x="148" y="655" on="0"/>
        <pt x="148" y="513" on="1"/>
        <pt x="148" y="212" on="1"/>
        <pt x="148" y="70" on="0"/>
        <pt x="284" y="70" on="1"/>
        <pt x="323" y="70" on="0"/>
        <pt x="375" y="92" on="0"/>
        <pt x="400" y="134" on="0"/>
        <pt x="408" y="164" on="0"/>
        <pt x="411" y="189" on="1"/>
        <pt x="414" y="218" on="0"/>
        <pt x="453" y="218" on="1"/>
        <pt x="475" y="218" on="0"/>
        <pt x="495" y="198" on="0"/>
        <pt x="495" y="171" on="1"/>
        <pt x="495" y="95" on="0"/>
        <pt x="376" y="-6" on="0"/>
        <pt x="278" y="-6" on="1"/>
        <pt x="183" y="-6" on="0"/>
        <pt x="64" y="100" on="0"/>
      </contour>
      <contour>
        <pt x="143" y="955" on="1"/>
        <pt x="143" y="965" on="0"/>
        <pt x="155" y="982" on="0"/>
        <pt x="164" y="982" on="1"/>
        <pt x="172" y="982" on="0"/>
        <pt x="178" y="976" on="1"/>
        <pt x="278" y="892" on="1"/>
        <pt x="379" y="976" on="1"/>
        <pt x="384" y="982" on="0"/>
        <pt x="402" y="982" on="0"/>
        <pt x="414" y="965" on="0"/>
        <pt x="414" y="955" on="1"/>
        <pt x="414" y="938" on="0"/>
        <pt x="399" y="928" on="1"/>
        <pt x="298" y="845" on="1"/>
        <pt x="288" y="836" on="0"/>
        <pt x="268" y="836" on="0"/>
        <pt x="259" y="845" on="1"/>
        <pt x="157" y="928" on="1"/>
        <pt x="143" y="938" on="0"/>
      </contour>
    </TTGlyph>
    <TTGlyph name="Ccedilla" xMin="64" yMin="-212" xMax="495" yMax="731">
      <contour>
        <pt x="64" y="212" on="1"/>
        <pt x="64" y="513" on="1"/>
        <pt x="64" y="625" on="0"/>
        <pt x="183" y="731" on="0"/>
        <pt x="279" y="731" on="1"/>
        <pt x="377" y="731" on="0"/>
        <pt x="495" y="632" on="0"/>
        <pt x="495" y="557" on="1"/>
        <pt x="495" y="530" on="0"/>
        <pt x="475" y="511" on="0"/>
        <pt x="453" y="511" on="1"/>
        <pt x="413" y="511" on="0"/>
        <pt x="411" y="540" on="1"/>
        <pt x="405" y="655" on="0"/>
        <pt x="281" y="655" on="1"/>
        <pt x="148" y="655" on="0"/>
        <pt x="148" y="513" on="1"/>
        <pt x="148" y="212" on="1"/>
        <pt x="148" y="70" on="0"/>
        <pt x="284" y="70" on="1"/>
        <pt x="323" y="70" on="0"/>
        <pt x="375" y="92" on="0"/>
        <pt x="400" y="134" on="0"/>
        <pt x="408" y="164" on="0"/>
        <pt x="411" y="189" on="1"/>
        <pt x="414" y="218" on="0"/>
        <pt x="453" y="218" on="1"/>
        <pt x="475" y="218" on="0"/>
        <pt x="495" y="198" on="0"/>
        <pt x="495" y="171" on="1"/>
        <pt x="495" y="102" on="0"/>
        <pt x="396" y="5" on="0"/>
        <pt x="313" y="-4" on="1"/>
        <pt x="299" y="-58" on="1"/>
        <pt x="347" y="-59" on="0"/>
        <pt x="395" y="-101" on="0"/>
        <pt x="395" y="-131" on="1"/>
        <pt x="395" y="-163" on="0"/>
        <pt x="348" y="-212" on="0"/>
        <pt x="302" y="-212" on="1"/>
        <pt x="275" y="-212" on="0"/>
        <pt x="222" y="-198" on="0"/>
        <pt x="222" y="-185" on="1"/>
        <pt x="222" y="-178" on="0"/>
        <pt x="232" y="-157" on="0"/>
        <pt x="240" y="-157" on="1"/>
        <pt x="242" y="-157" on="0"/>
        <pt x="277" y="-171" on="0"/>
        <pt x="296" y="-171" on="1"/>
        <pt x="348" y="-171" on="0"/>
        <pt x="348" y="-134" on="1"/>
        <pt x="348" y="-98" on="0"/>
        <pt x="289" y="-93" on="1"/>
        <pt x="246" y="-90" on="1"/>
        <pt x="268" y="-6" on="1"/>
        <pt x="176" y="-3" on="0"/>
        <pt x="64" y="102" on="0"/>
      </contour>
    </TTGlyph>
    <TTGlyph name="Ccircumflex" xMin="64" yMin="-6" xMax="495" yMax="955">
      <contour>
        <pt x="64" y="212" on="1"/>
        <pt x="64" y="513" on="1"/>
        <pt x="64" y="625" on="0"/>
        <pt x="183" y="731" on="0"/>
        <pt x="279" y="731" on="1"/>
        <pt x="377" y="731" on="0"/>
        <pt x="495" y="632" on="0"/>
        <pt x="495" y="557" on="1"/>
        <pt x="495" y="530" on="0"/>
        <pt x="475" y="511" on="0"/>
        <pt x="453" y="511" on="1"/>
        <pt x="413" y="511" on="0"/>
        <pt x="411" y="540" on="1"/>
        <pt x="405" y="655" on="0"/>
        <pt x="281" y="655" on="1"/>
        <pt x="148" y="655" on="0"/>
        <pt x="148" y="513" on="1"/>
        <pt x="148" y="212" on="1"/>
        <pt x="148" y="70" on="0"/>
        <pt x="284" y="70" on="1"/>
        <pt x="323" y="70" on="0"/>
        <pt x="375" y="92" on="0"/>
        <pt x="400" y="134" on="0"/>
        <pt x="408" y="164" on="0"/>
        <pt x="411" y="189" on="1"/>
        <pt x="414" y="218" on="0"/>
        <pt x="453" y="218" on="1"/>
        <pt x="475" y="218" on="0"/>
        <pt x="495" y="198" on="0"/>
        <pt x="495" y="171" on="1"/>
        <pt x="495" y="95" on="0"/>
        <pt x="376" y="-6" on="0"/>
        <pt x="278" y="-6" on="1"/>
        <pt x="183" y="-6" on="0"/>
        <pt x="64" y="100" on="0"/>
      </contour>
      <contour>
        <pt x="143" y="868" on="1"/>
        <pt x="143" y="886" on="0"/>
        <pt x="158" y="894" on="1"/>
        <pt x="262" y="950" on="1"/>
        <pt x="272" y="955" on="0"/>
        <pt x="279" y="955" on="1"/>
        <pt x="288" y="955" on="0"/>
        <pt x="296" y="950" on="1"/>
        <pt x="400" y="895" on="1"/>
        <pt x="416" y="886" on="0"/>
        <pt x="416" y="867" on="1"/>
        <pt x="416" y="856" on="0"/>
        <pt x="402" y="839" on="0"/>
        <pt x="393" y="839" on="1"/>
        <pt x="391" y="839" on="0"/>
        <pt x="387" y="840" on="1"/>
        <pt x="385" y="842" on="0"/>
        <pt x="383" y="842" on="1"/>
        <pt x="279" y="898" on="1"/>
        <pt x="175" y="842" on="1"/>
        <pt x="170" y="839" on="0"/>
        <pt x="166" y="839" on="1"/>
        <pt x="157" y="839" on="0"/>
        <pt x="143" y="857" on="0"/>
      </contour>
    </TTGlyph>
    <TTGlyph name="Cdotaccent" xMin="64" yMin="-6" xMax="495" yMax="922">
      <contour>
        <pt x="64" y="212" on="1"/>
        <pt x="64" y="513" on="1"/>
        <pt x="64" y="625" on="0"/>
        <pt x="183" y="731" on="0"/>
        <pt x="279" y="731" on="1"/>
        <pt x="377" y="731" on="0"/>
        <pt x="495" y="632" on="0"/>
        <pt x="495" y="557" on="1"/>
        <pt x="495" y="530" on="0"/>
        <pt x="475" y="511" on="0"/>
        <pt x="453" y="511" on="1"/>
        <pt x="413" y="511" on="0"/>
        <pt x="411" y="540" on="1"/>
        <pt x="405" y="655" on="0"/>
        <pt x="281" y="655" on="1"/>
        <pt x="148" y="655" on="0"/>
        <pt x="148" y="513" on="1"/>
        <pt x="148" y="212" on="1"/>
        <pt x="148" y="70" on="0"/>
        <pt x="284" y="70" on="1"/>
        <pt x="323" y="70" on="0"/>
        <pt x="375" y="92" on="0"/>
        <pt x="400" y="134" on="0"/>
        <pt x="408" y="164" on="0"/>
        <pt x="411" y="189" on="1"/>
        <pt x="414" y="218" on="0"/>
        <pt x="453" y="218" on="1"/>
        <pt x="475" y="218" on="0"/>
        <pt x="495" y="198" on="0"/>
        <pt x="495" y="171" on="1"/>
        <pt x="495" y="95" on="0"/>
        <pt x="376" y="-6" on="0"/>
        <pt x="278" y="-6" on="1"/>
        <pt x="183" y="-6" on="0"/>
        <pt x="64" y="100" on="0"/>
      </contour>
      <contour>
        <pt x="240" y="864" on="0"/>
        <pt x="240" y="898" on="0"/>
        <pt x="264" y="922" on="0"/>
        <pt x="298" y="922" on="0"/>
        <pt x="321" y="898" on="0"/>
        <pt x="321" y="864" on="0"/>
        <pt x="297" y="839" on="0"/>
        <pt x="281" y="839" on="1"/>
        <pt x="264" y="839" on="0"/>
      </contour>
    </TTGlyph>
    <TTGlyph name="D" xMin="71" yMin="0" xMax="502" yMax="731">
      <contour>
        <pt x="71" y="29" on="1"/>
        <pt x="71" y="702" on="1"/>
        <pt x="71" y="714" on="0"/>
        <pt x="92" y="731" on="0"/>
        <pt x="109" y="731" on="1"/>
        <pt x="286" y="731" on="1"/>
        <pt x="384" y="731" on="0"/>
        <pt x="502" y="626" on="0"/>
        <pt x="502" y="513" on="1"/>
        <pt x="502" y="218" on="1"/>
        <pt x="502" y="105" on="0"/>
        <pt x="384" y="0" on="0"/>
        <pt x="286" y="0" on="1"/>
        <pt x="109" y="0" on="1"/>
        <pt x="92" y="0" on="0"/>
        <pt x="71" y="17" on="0"/>
      </contour>
      <contour>
        <pt x="155" y="76" on="1"/>
        <pt x="286" y="76" on="1"/>
        <pt x="349" y="76" on="0"/>
        <pt x="418" y="147" on="0"/>
        <pt x="418" y="218" on="1"/>
        <pt x="418" y="513" on="1"/>
        <pt x="418" y="584" on="0"/>
        <pt x="349" y="655" on="0"/>
        <pt x="286" y="655" on="1"/>
        <pt x="155" y="655" on="1"/>
      </contour>
    </TTGlyph>
    <TTGlyph name="Dcaron" xMin="71" yMin="0" xMax="502" yMax="982">
      <contour>
        <pt x="71" y="29" on="1"/>
        <pt x="71" y="702" on="1"/>
        <pt x="71" y="714" on="0"/>
        <pt x="92" y="731" on="0"/>
        <pt x="109" y="731" on="1"/>
        <pt x="286" y="731" on="1"/>
        <pt x="384" y="731" on="0"/>
        <pt x="502" y="626" on="0"/>
        <pt x="502" y="513" on="1"/>
        <pt x="502" y="218" on="1"/>
        <pt x="502" y="105" on="0"/>
        <pt x="384" y="0" on="0"/>
        <pt x="286" y="0" on="1"/>
        <pt x="109" y="0" on="1"/>
        <pt x="92" y="0" on="0"/>
        <pt x="71" y="17" on="0"/>
      </contour>
      <contour>
        <pt x="140" y="955" on="1"/>
        <pt x="140" y="965" on="0"/>
        <pt x="152" y="982" on="0"/>
        <pt x="161" y="982" on="1"/>
        <pt x="169" y="982" on="0"/>
        <pt x="175" y="976" on="1"/>
        <pt x="275" y="892" on="1"/>
        <pt x="376" y="976" on="1"/>
        <pt x="381" y="982" on="0"/>
        <pt x="399" y="982" on="0"/>
        <pt x="411" y="965" on="0"/>
        <pt x="411" y="955" on="1"/>
        <pt x="411" y="938" on="0"/>
        <pt x="396" y="928" on="1"/>
        <pt x="295" y="845" on="1"/>
        <pt x="284" y="836" on="0"/>
        <pt x="275" y="836" on="1"/>
        <pt x="265" y="836" on="0"/>
        <pt x="256" y="845" on="1"/>
        <pt x="154" y="928" on="1"/>
        <pt x="140" y="938" on="0"/>
      </contour>
      <contour>
        <pt x="155" y="76" on="1"/>
        <pt x="286" y="76" on="1"/>
        <pt x="349" y="76" on="0"/>
        <pt x="418" y="147" on="0"/>
        <pt x="418" y="218" on="1"/>
        <pt x="418" y="513" on="1"/>
        <pt x="418" y="584" on="0"/>
        <pt x="349" y="655" on="0"/>
        <pt x="286" y="655" on="1"/>
        <pt x="155" y="655" on="1"/>
      </contour>
    </TTGlyph>
    <TTGlyph name="Dcroat" xMin="-3" yMin="0" xMax="510" yMax="731">
      <contour>
        <pt x="-3" y="383" on="1"/>
        <pt x="-3" y="397" on="0"/>
        <pt x="11" y="416" on="0"/>
        <pt x="22" y="416" on="1"/>
        <pt x="79" y="416" on="1"/>
        <pt x="79" y="702" on="1"/>
        <pt x="79" y="714" on="0"/>
        <pt x="100" y="731" on="0"/>
        <pt x="117" y="731" on="1"/>
        <pt x="294" y="731" on="1"/>
        <pt x="392" y="731" on="0"/>
        <pt x="510" y="626" on="0"/>
        <pt x="510" y="513" on="1"/>
        <pt x="510" y="218" on="1"/>
        <pt x="510" y="105" on="0"/>
        <pt x="392" y="0" on="0"/>
        <pt x="294" y="0" on="1"/>
        <pt x="117" y="0" on="1"/>
        <pt x="100" y="0" on="0"/>
        <pt x="79" y="17" on="0"/>
        <pt x="79" y="29" on="1"/>
        <pt x="79" y="351" on="1"/>
        <pt x="22" y="351" on="1"/>
        <pt x="10" y="351" on="0"/>
        <pt x="-3" y="370" on="0"/>
      </contour>
      <contour>
        <pt x="163" y="76" on="1"/>
        <pt x="294" y="76" on="1"/>
        <pt x="357" y="76" on="0"/>
        <pt x="426" y="147" on="0"/>
        <pt x="426" y="218" on="1"/>
        <pt x="426" y="513" on="1"/>
        <pt x="426" y="584" on="0"/>
        <pt x="357" y="655" on="0"/>
        <pt x="294" y="655" on="1"/>
        <pt x="163" y="655" on="1"/>
        <pt x="163" y="416" on="1"/>
        <pt x="266" y="416" on="1"/>
        <pt x="277" y="416" on="0"/>
        <pt x="292" y="396" on="0"/>
        <pt x="292" y="370" on="0"/>
        <pt x="277" y="351" on="0"/>
        <pt x="266" y="351" on="1"/>
        <pt x="163" y="351" on="1"/>
      </contour>
    </TTGlyph>
    <TTGlyph name="E" xMin="71" yMin="0" xMax="494" yMax="731">
      <contour>
        <pt x="71" y="30" on="1"/>
        <pt x="71" y="701" on="1"/>
        <pt x="71" y="715" on="0"/>
        <pt x="94" y="731" on="0"/>
        <pt x="109" y="731" on="1"/>
        <pt x="465" y="731" on="1"/>
        <pt x="479" y="731" on="0"/>
        <pt x="494" y="709" on="0"/>
        <pt x="494" y="694" on="1"/>
        <pt x="494" y="678" on="0"/>
        <pt x="478" y="655" on="0"/>
        <pt x="465" y="655" on="1"/>
        <pt x="155" y="655" on="1"/>
        <pt x="155" y="401" on="1"/>
        <pt x="311" y="401" on="1"/>
        <pt x="324" y="401" on="0"/>
        <pt x="340" y="380" on="0"/>
        <pt x="340" y="365" on="1"/>
        <pt x="340" y="352" on="0"/>
        <pt x="325" y="331" on="0"/>
        <pt x="311" y="331" on="1"/>
        <pt x="155" y="331" on="1"/>
        <pt x="155" y="76" on="1"/>
        <pt x="465" y="76" on="1"/>
        <pt x="478" y="76" on="0"/>
        <pt x="494" y="53" on="0"/>
        <pt x="494" y="37" on="1"/>
        <pt x="494" y="22" on="0"/>
        <pt x="479" y="0" on="0"/>
        <pt x="465" y="0" on="1"/>
        <pt x="109" y="0" on="1"/>
        <pt x="94" y="0" on="0"/>
        <pt x="71" y="16" on="0"/>
      </contour>
    </TTGlyph>
    <TTGlyph name="Eacute" xMin="71" yMin="0" xMax="494" yMax="955">
      <contour>
        <pt x="71" y="30" on="1"/>
        <pt x="71" y="701" on="1"/>
        <pt x="71" y="715" on="0"/>
        <pt x="94" y="731" on="0"/>
        <pt x="109" y="731" on="1"/>
        <pt x="465" y="731" on="1"/>
        <pt x="479" y="731" on="0"/>
        <pt x="494" y="709" on="0"/>
        <pt x="494" y="694" on="1"/>
        <pt x="494" y="678" on="0"/>
        <pt x="478" y="655" on="0"/>
        <pt x="465" y="655" on="1"/>
        <pt x="155" y="655" on="1"/>
        <pt x="155" y="401" on="1"/>
        <pt x="311" y="401" on="1"/>
        <pt x="324" y="401" on="0"/>
        <pt x="340" y="380" on="0"/>
        <pt x="340" y="365" on="1"/>
        <pt x="340" y="352" on="0"/>
        <pt x="325" y="331" on="0"/>
        <pt x="311" y="331" on="1"/>
        <pt x="155" y="331" on="1"/>
        <pt x="155" y="76" on="1"/>
        <pt x="465" y="76" on="1"/>
        <pt x="478" y="76" on="0"/>
        <pt x="494" y="53" on="0"/>
        <pt x="494" y="37" on="1"/>
        <pt x="494" y="22" on="0"/>
        <pt x="479" y="0" on="0"/>
        <pt x="465" y="0" on="1"/>
        <pt x="109" y="0" on="1"/>
        <pt x="94" y="0" on="0"/>
        <pt x="71" y="16" on="0"/>
      </contour>
      <contour>
        <pt x="208" y="869" on="1"/>
        <pt x="208" y="884" on="0"/>
        <pt x="221" y="891" on="1"/>
        <pt x="338" y="953" on="1"/>
        <pt x="344" y="955" on="0"/>
        <pt x="348" y="955" on="1"/>
        <pt x="360" y="955" on="0"/>
        <pt x="376" y="934" on="0"/>
        <pt x="376" y="921" on="1"/>
        <pt x="376" y="904" on="0"/>
        <pt x="362" y="897" on="1"/>
        <pt x="249" y="839" on="1"/>
        <pt x="241" y="835" on="0"/>
        <pt x="238" y="835" on="1"/>
        <pt x="226" y="835" on="0"/>
        <pt x="208" y="856" on="0"/>
      </contour>
    </TTGlyph>
    <TTGlyph name="Ebreve" xMin="71" yMin="0" xMax="494" yMax="967">
      <contour>
        <pt x="71" y="30" on="1"/>
        <pt x="71" y="701" on="1"/>
        <pt x="71" y="715" on="0"/>
        <pt x="94" y="731" on="0"/>
        <pt x="109" y="731" on="1"/>
        <pt x="465" y="731" on="1"/>
        <pt x="479" y="731" on="0"/>
        <pt x="494" y="709" on="0"/>
        <pt x="494" y="694" on="1"/>
        <pt x="494" y="678" on="0"/>
        <pt x="478" y="655" on="0"/>
        <pt x="465" y="655" on="1"/>
        <pt x="155" y="655" on="1"/>
        <pt x="155" y="401" on="1"/>
        <pt x="311" y="401" on="1"/>
        <pt x="324" y="401" on="0"/>
        <pt x="340" y="380" on="0"/>
        <pt x="340" y="365" on="1"/>
        <pt x="340" y="352" on="0"/>
        <pt x="325" y="331" on="0"/>
        <pt x="311" y="331" on="1"/>
        <pt x="155" y="331" on="1"/>
        <pt x="155" y="76" on="1"/>
        <pt x="465" y="76" on="1"/>
        <pt x="478" y="76" on="0"/>
        <pt x="494" y="53" on="0"/>
        <pt x="494" y="37" on="1"/>
        <pt x="494" y="22" on="0"/>
        <pt x="479" y="0" on="0"/>
        <pt x="465" y="0" on="1"/>
        <pt x="109" y="0" on="1"/>
        <pt x="94" y="0" on="0"/>
        <pt x="71" y="16" on="0"/>
      </contour>
      <contour>
        <pt x="160" y="967" on="1"/>
        <pt x="211" y="967" on="1"/>
        <pt x="211" y="934" on="0"/>
        <pt x="253" y="888" on="0"/>
        <pt x="309" y="888" on="0"/>
        <pt x="351" y="934" on="0"/>
        <pt x="351" y="967" on="1"/>
        <pt x="402" y="967" on="1"/>
        <pt x="402" y="919" on="0"/>
        <pt x="329" y="846" on="0"/>
        <pt x="233" y="846" on="0"/>
        <pt x="160" y="919" on="0"/>
      </contour>
    </TTGlyph>
    <TTGlyph name="Ecaron" xMin="71" yMin="0" xMax="494" yMax="982">
      <contour>
        <pt x="71" y="30" on="1"/>
        <pt x="71" y="701" on="1"/>
        <pt x="71" y="715" on="0"/>
        <pt x="94" y="731" on="0"/>
        <pt x="109" y="731" on="1"/>
        <pt x="465" y="731" on="1"/>
        <pt x="479" y="731" on="0"/>
        <pt x="494" y="709" on="0"/>
        <pt x="494" y="694" on="1"/>
        <pt x="494" y="678" on="0"/>
        <pt x="478" y="655" on="0"/>
        <pt x="465" y="655" on="1"/>
        <pt x="155" y="655" on="1"/>
        <pt x="155" y="401" on="1"/>
        <pt x="311" y="401" on="1"/>
        <pt x="324" y="401" on="0"/>
        <pt x="340" y="380" on="0"/>
        <pt x="340" y="365" on="1"/>
        <pt x="340" y="352" on="0"/>
        <pt x="325" y="331" on="0"/>
        <pt x="311" y="331" on="1"/>
        <pt x="155" y="331" on="1"/>
        <pt x="155" y="76" on="1"/>
        <pt x="465" y="76" on="1"/>
        <pt x="478" y="76" on="0"/>
        <pt x="494" y="53" on="0"/>
        <pt x="494" y="37" on="1"/>
        <pt x="494" y="22" on="0"/>
        <pt x="479" y="0" on="0"/>
        <pt x="465" y="0" on="1"/>
        <pt x="109" y="0" on="1"/>
        <pt x="94" y="0" on="0"/>
        <pt x="71" y="16" on="0"/>
      </contour>
      <contour>
        <pt x="145" y="955" on="1"/>
        <pt x="145" y="965" on="0"/>
        <pt x="157" y="982" on="0"/>
        <pt x="166" y="982" on="1"/>
        <pt x="174" y="982" on="0"/>
        <pt x="180" y="976" on="1"/>
        <pt x="280" y="892" on="1"/>
        <pt x="381" y="976" on="1"/>
        <pt x="386" y="982" on="0"/>
        <pt x="404" y="982" on="0"/>
        <pt x="416" y="965" on="0"/>
        <pt x="416" y="955" on="1"/>
        <pt x="416" y="938" on="0"/>
        <pt x="401" y="928" on="1"/>
        <pt x="300" y="845" on="1"/>
        <pt x="290" y="836" on="0"/>
        <pt x="270" y="836" on="0"/>
        <pt x="261" y="845" on="1"/>
        <pt x="159" y="928" on="1"/>
        <pt x="145" y="938" on="0"/>
      </contour>
    </TTGlyph>
    <TTGlyph name="Ecircumflex" xMin="71" yMin="0" xMax="494" yMax="955">
      <contour>
        <pt x="71" y="30" on="1"/>
        <pt x="71" y="701" on="1"/>
        <pt x="71" y="715" on="0"/>
        <pt x="94" y="731" on="0"/>
        <pt x="109" y="731" on="1"/>
        <pt x="465" y="731" on="1"/>
        <pt x="479" y="731" on="0"/>
        <pt x="494" y="709" on="0"/>
        <pt x="494" y="694" on="1"/>
        <pt x="494" y="678" on="0"/>
        <pt x="478" y="655" on="0"/>
        <pt x="465" y="655" on="1"/>
        <pt x="155" y="655" on="1"/>
        <pt x="155" y="401" on="1"/>
        <pt x="311" y="401" on="1"/>
        <pt x="324" y="401" on="0"/>
        <pt x="340" y="380" on="0"/>
        <pt x="340" y="365" on="1"/>
        <pt x="340" y="352" on="0"/>
        <pt x="325" y="331" on="0"/>
        <pt x="311" y="331" on="1"/>
        <pt x="155" y="331" on="1"/>
        <pt x="155" y="76" on="1"/>
        <pt x="465" y="76" on="1"/>
        <pt x="478" y="76" on="0"/>
        <pt x="494" y="53" on="0"/>
        <pt x="494" y="37" on="1"/>
        <pt x="494" y="22" on="0"/>
        <pt x="479" y="0" on="0"/>
        <pt x="465" y="0" on="1"/>
        <pt x="109" y="0" on="1"/>
        <pt x="94" y="0" on="0"/>
        <pt x="71" y="16" on="0"/>
      </contour>
      <contour>
        <pt x="149" y="868" on="1"/>
        <pt x="149" y="886" on="0"/>
        <pt x="164" y="894" on="1"/>
        <pt x="268" y="950" on="1"/>
        <pt x="278" y="955" on="0"/>
        <pt x="285" y="955" on="1"/>
        <pt x="294" y="955" on="0"/>
        <pt x="302" y="950" on="1"/>
        <pt x="406" y="895" on="1"/>
        <pt x="422" y="886" on="0"/>
        <pt x="422" y="867" on="1"/>
        <pt x="422" y="856" on="0"/>
        <pt x="408" y="839" on="0"/>
        <pt x="399" y="839" on="1"/>
        <pt x="397" y="839" on="0"/>
        <pt x="393" y="840" on="1"/>
        <pt x="391" y="842" on="0"/>
        <pt x="389" y="842" on="1"/>
        <pt x="285" y="898" on="1"/>
        <pt x="181" y="842" on="1"/>
        <pt x="176" y="839" on="0"/>
        <pt x="172" y="839" on="1"/>
        <pt x="163" y="839" on="0"/>
        <pt x="149" y="857" on="0"/>
      </contour>
    </TTGlyph>
    <TTGlyph name="Edieresis" xMin="71" yMin="0" xMax="494" yMax="922">
      <contour>
        <pt x="71" y="30" on="1"/>
        <pt x="71" y="701" on="1"/>
        <pt x="71" y="715" on="0"/>
        <pt x="94" y="731" on="0"/>
        <pt x="109" y="731" on="1"/>
        <pt x="465" y="731" on="1"/>
        <pt x="479" y="731" on="0"/>
        <pt x="494" y="709" on="0"/>
        <pt x="494" y="694" on="1"/>
        <pt x="494" y="678" on="0"/>
        <pt x="478" y="655" on="0"/>
        <pt x="465" y="655" on="1"/>
        <pt x="155" y="655" on="1"/>
        <pt x="155" y="401" on="1"/>
        <pt x="311" y="401" on="1"/>
        <pt x="324" y="401" on="0"/>
        <pt x="340" y="380" on="0"/>
        <pt x="340" y="365" on="1"/>
        <pt x="340" y="352" on="0"/>
        <pt x="325" y="331" on="0"/>
        <pt x="311" y="331" on="1"/>
        <pt x="155" y="331" on="1"/>
        <pt x="155" y="76" on="1"/>
        <pt x="465" y="76" on="1"/>
        <pt x="478" y="76" on="0"/>
        <pt x="494" y="53" on="0"/>
        <pt x="494" y="37" on="1"/>
        <pt x="494" y="22" on="0"/>
        <pt x="479" y="0" on="0"/>
        <pt x="465" y="0" on="1"/>
        <pt x="109" y="0" on="1"/>
        <pt x="94" y="0" on="0"/>
        <pt x="71" y="16" on="0"/>
      </contour>
      <contour>
        <pt x="177" y="864" on="0"/>
        <pt x="177" y="898" on="0"/>
        <pt x="201" y="922" on="0"/>
        <pt x="235" y="922" on="0"/>
        <pt x="258" y="898" on="0"/>
        <pt x="258" y="864" on="0"/>
        <pt x="234" y="839" on="0"/>
        <pt x="218" y="839" on="1"/>
        <pt x="201" y="839" on="0"/>
      </contour>
      <contour>
        <pt x="308" y="864" on="0"/>
        <pt x="308" y="898" on="0"/>
        <pt x="331" y="922" on="0"/>
        <pt x="365" y="922" on="0"/>
        <pt x="388" y="898" on="0"/>
        <pt x="388" y="864" on="0"/>
        <pt x="365" y="839" on="0"/>
        <pt x="331" y="839" on="0"/>
      </contour>
    </TTGlyph>
    <TTGlyph name="Edotaccent" xMin="71" yMin="0" xMax="494" yMax="922">
      <contour>
        <pt x="71" y="30" on="1"/>
        <pt x="71" y="701" on="1"/>
        <pt x="71" y="715" on="0"/>
        <pt x="94" y="731" on="0"/>
        <pt x="109" y="731" on="1"/>
        <pt x="465" y="731" on="1"/>
        <pt x="479" y="731" on="0"/>
        <pt x="494" y="709" on="0"/>
        <pt x="494" y="694" on="1"/>
        <pt x="494" y="678" on="0"/>
        <pt x="478" y="655" on="0"/>
        <pt x="465" y="655" on="1"/>
        <pt x="155" y="655" on="1"/>
        <pt x="155" y="401" on="1"/>
        <pt x="311" y="401" on="1"/>
        <pt x="324" y="401" on="0"/>
        <pt x="340" y="380" on="0"/>
        <pt x="340" y="365" on="1"/>
        <pt x="340" y="352" on="0"/>
        <pt x="325" y="331" on="0"/>
        <pt x="311" y="331" on="1"/>
        <pt x="155" y="331" on="1"/>
        <pt x="155" y="76" on="1"/>
        <pt x="465" y="76" on="1"/>
        <pt x="478" y="76" on="0"/>
        <pt x="494" y="53" on="0"/>
        <pt x="494" y="37" on="1"/>
        <pt x="494" y="22" on="0"/>
        <pt x="479" y="0" on="0"/>
        <pt x="465" y="0" on="1"/>
        <pt x="109" y="0" on="1"/>
        <pt x="94" y="0" on="0"/>
        <pt x="71" y="16" on="0"/>
      </contour>
      <contour>
        <pt x="247" y="864" on="0"/>
        <pt x="247" y="898" on="0"/>
        <pt x="271" y="922" on="0"/>
        <pt x="305" y="922" on="0"/>
        <pt x="328" y="898" on="0"/>
        <pt x="328" y="864" on="0"/>
        <pt x="304" y="839" on="0"/>
        <pt x="288" y="839" on="1"/>
        <pt x="271" y="839" on="0"/>
      </contour>
    </TTGlyph>
    <TTGlyph name="Egrave" xMin="71" yMin="0" xMax="494" yMax="955">
      <contour>
        <pt x="71" y="30" on="1"/>
        <pt x="71" y="701" on="1"/>
        <pt x="71" y="715" on="0"/>
        <pt x="94" y="731" on="0"/>
        <pt x="109" y="731" on="1"/>
        <pt x="465" y="731" on="1"/>
        <pt x="479" y="731" on="0"/>
        <pt x="494" y="709" on="0"/>
        <pt x="494" y="694" on="1"/>
        <pt x="494" y="678" on="0"/>
        <pt x="478" y="655" on="0"/>
        <pt x="465" y="655" on="1"/>
        <pt x="155" y="655" on="1"/>
        <pt x="155" y="401" on="1"/>
        <pt x="311" y="401" on="1"/>
        <pt x="324" y="401" on="0"/>
        <pt x="340" y="380" on="0"/>
        <pt x="340" y="365" on="1"/>
        <pt x="340" y="352" on="0"/>
        <pt x="325" y="331" on="0"/>
        <pt x="311" y="331" on="1"/>
        <pt x="155" y="331" on="1"/>
        <pt x="155" y="76" on="1"/>
        <pt x="465" y="76" on="1"/>
        <pt x="478" y="76" on="0"/>
        <pt x="494" y="53" on="0"/>
        <pt x="494" y="37" on="1"/>
        <pt x="494" y="22" on="0"/>
        <pt x="479" y="0" on="0"/>
        <pt x="465" y="0" on="1"/>
        <pt x="109" y="0" on="1"/>
        <pt x="94" y="0" on="0"/>
        <pt x="71" y="16" on="0"/>
      </contour>
      <contour>
        <pt x="196" y="921" on="1"/>
        <pt x="196" y="934" on="0"/>
        <pt x="212" y="955" on="0"/>
        <pt x="224" y="955" on="1"/>
        <pt x="228" y="955" on="0"/>
        <pt x="234" y="953" on="1"/>
        <pt x="351" y="891" on="1"/>
        <pt x="364" y="884" on="0"/>
        <pt x="364" y="869" on="1"/>
        <pt x="364" y="856" on="0"/>
        <pt x="346" y="835" on="0"/>
        <pt x="334" y="835" on="1"/>
        <pt x="331" y="835" on="0"/>
        <pt x="323" y="839" on="1"/>
        <pt x="210" y="897" on="1"/>
        <pt x="196" y="904" on="0"/>
      </contour>
    </TTGlyph>
    <TTGlyph name="Emacron" xMin="71" yMin="0" xMax="494" yMax="940">
      <contour>
        <pt x="71" y="30" on="1"/>
        <pt x="71" y="701" on="1"/>
        <pt x="71" y="715" on="0"/>
        <pt x="94" y="731" on="0"/>
        <pt x="109" y="731" on="1"/>
        <pt x="465" y="731" on="1"/>
        <pt x="479" y="731" on="0"/>
        <pt x="494" y="709" on="0"/>
        <pt x="494" y="694" on="1"/>
        <pt x="494" y="678" on="0"/>
        <pt x="478" y="655" on="0"/>
        <pt x="465" y="655" on="1"/>
        <pt x="155" y="655" on="1"/>
        <pt x="155" y="401" on="1"/>
        <pt x="311" y="401" on="1"/>
        <pt x="324" y="401" on="0"/>
        <pt x="340" y="380" on="0"/>
        <pt x="340" y="365" on="1"/>
        <pt x="340" y="352" on="0"/>
        <pt x="325" y="331" on="0"/>
        <pt x="311" y="331" on="1"/>
        <pt x="155" y="331" on="1"/>
        <pt x="155" y="76" on="1"/>
        <pt x="465" y="76" on="1"/>
        <pt x="478" y="76" on="0"/>
        <pt x="494" y="53" on="0"/>
        <pt x="494" y="37" on="1"/>
        <pt x="494" y="22" on="0"/>
        <pt x="479" y="0" on="0"/>
        <pt x="465" y="0" on="1"/>
        <pt x="109" y="0" on="1"/>
        <pt x="94" y="0" on="0"/>
        <pt x="71" y="16" on="0"/>
      </contour>
      <contour>
        <pt x="149" y="896" on="0"/>
        <pt x="149" y="922" on="0"/>
        <pt x="165" y="940" on="0"/>
        <pt x="178" y="940" on="1"/>
        <pt x="390" y="940" on="1"/>
        <pt x="402" y="940" on="0"/>
        <pt x="420" y="922" on="0"/>
        <pt x="420" y="896" on="0"/>
        <pt x="402" y="879" on="0"/>
        <pt x="390" y="879" on="1"/>
        <pt x="178" y="879" on="1"/>
        <pt x="165" y="879" on="0"/>
      </contour>
    </TTGlyph>
    <TTGlyph name="Eng" xMin="71" yMin="-229" xMax="510" yMax="731">
      <contour>
        <pt x="71" y="30" on="1"/>
        <pt x="71" y="702" on="1"/>
        <pt x="71" y="731" on="0"/>
        <pt x="113" y="731" on="1"/>
        <pt x="134" y="731" on="0"/>
        <pt x="163" y="706" on="0"/>
        <pt x="177" y="678" on="1"/>
        <pt x="426" y="191" on="1"/>
        <pt x="426" y="702" on="1"/>
        <pt x="426" y="716" on="0"/>
        <pt x="451" y="731" on="0"/>
        <pt x="485" y="731" on="0"/>
        <pt x="510" y="716" on="0"/>
        <pt x="510" y="702" on="1"/>
        <pt x="510" y="-40" on="1"/>
        <pt x="510" y="-127" on="0"/>
        <pt x="442" y="-229" on="0"/>
        <pt x="373" y="-229" on="1"/>
        <pt x="330" y="-229" on="0"/>
        <pt x="330" y="-193" on="1"/>
        <pt x="330" y="-177" on="0"/>
        <pt x="350" y="-156" on="0"/>
        <pt x="364" y="-156" on="1"/>
        <pt x="402" y="-156" on="0"/>
        <pt x="426" y="-98" on="0"/>
        <pt x="426" y="-40" on="1"/>
        <pt x="426" y="3" on="1"/>
        <pt x="426" y="17" on="0"/>
        <pt x="415" y="38" on="1"/>
        <pt x="155" y="541" on="1"/>
        <pt x="155" y="30" on="1"/>
        <pt x="155" y="16" on="0"/>
        <pt x="130" y="0" on="0"/>
        <pt x="96" y="0" on="0"/>
        <pt x="71" y="16" on="0"/>
      </contour>
    </TTGlyph>
    <TTGlyph name="Eogonek" xMin="71" yMin="-204" xMax="494" yMax="731">
      <contour>
        <pt x="71" y="30" on="1"/>
        <pt x="71" y="701" on="1"/>
        <pt x="71" y="715" on="0"/>
        <pt x="94" y="731" on="0"/>
        <pt x="109" y="731" on="1"/>
        <pt x="465" y="731" on="1"/>
        <pt x="479" y="731" on="0"/>
        <pt x="494" y="709" on="0"/>
        <pt x="494" y="694" on="1"/>
        <pt x="494" y="678" on="0"/>
        <pt x="478" y="655" on="0"/>
        <pt x="465" y="655" on="1"/>
        <pt x="155" y="655" on="1"/>
        <pt x="155" y="401" on="1"/>
        <pt x="311" y="401" on="1"/>
        <pt x="324" y="401" on="0"/>
        <pt x="340" y="380" on="0"/>
        <pt x="340" y="365" on="1"/>
        <pt x="340" y="352" on="0"/>
        <pt x="325" y="331" on="0"/>
        <pt x="311" y="331" on="1"/>
        <pt x="155" y="331" on="1"/>
        <pt x="155" y="76" on="1"/>
        <pt x="465" y="76" on="1"/>
        <pt x="478" y="76" on="0"/>
        <pt x="494" y="53" on="0"/>
        <pt x="494" y="37" on="1"/>
        <pt x="494" y="8" on="0"/>
        <pt x="475" y="1" on="1"/>
        <pt x="405" y="-57" on="0"/>
        <pt x="405" y="-118" on="1"/>
        <pt x="405" y="-163" on="0"/>
        <pt x="466" y="-163" on="1"/>
        <pt x="486" y="-163" on="0"/>
        <pt x="486" y="-185" on="1"/>
        <pt x="486" y="-204" on="0"/>
        <pt x="460" y="-204" on="1"/>
        <pt x="415" y="-204" on="0"/>
        <pt x="358" y="-164" on="0"/>
        <pt x="358" y="-125" on="1"/>
        <pt x="358" y="-57" on="0"/>
        <pt x="417" y="0" on="1"/>
        <pt x="109" y="0" on="1"/>
        <pt x="94" y="0" on="0"/>
        <pt x="71" y="16" on="0"/>
      </contour>
    </TTGlyph>
    <TTGlyph name="Eth" xMin="-3" yMin="0" xMax="510" yMax="731">
      <contour>
        <pt x="-3" y="383" on="1"/>
        <pt x="-3" y="397" on="0"/>
        <pt x="11" y="416" on="0"/>
        <pt x="22" y="416" on="1"/>
        <pt x="79" y="416" on="1"/>
        <pt x="79" y="702" on="1"/>
        <pt x="79" y="714" on="0"/>
        <pt x="100" y="731" on="0"/>
        <pt x="117" y="731" on="1"/>
        <pt x="294" y="731" on="1"/>
        <pt x="392" y="731" on="0"/>
        <pt x="510" y="626" on="0"/>
        <pt x="510" y="513" on="1"/>
        <pt x="510" y="218" on="1"/>
        <pt x="510" y="105" on="0"/>
        <pt x="392" y="0" on="0"/>
        <pt x="294" y="0" on="1"/>
        <pt x="117" y="0" on="1"/>
        <pt x="100" y="0" on="0"/>
        <pt x="79" y="17" on="0"/>
        <pt x="79" y="29" on="1"/>
        <pt x="79" y="351" on="1"/>
        <pt x="22" y="351" on="1"/>
        <pt x="10" y="351" on="0"/>
        <pt x="-3" y="370" on="0"/>
      </contour>
      <contour>
        <pt x="163" y="76" on="1"/>
        <pt x="294" y="76" on="1"/>
        <pt x="357" y="76" on="0"/>
        <pt x="426" y="147" on="0"/>
        <pt x="426" y="218" on="1"/>
        <pt x="426" y="513" on="1"/>
        <pt x="426" y="584" on="0"/>
        <pt x="357" y="655" on="0"/>
        <pt x="294" y="655" on="1"/>
        <pt x="163" y="655" on="1"/>
        <pt x="163" y="416" on="1"/>
        <pt x="266" y="416" on="1"/>
        <pt x="277" y="416" on="0"/>
        <pt x="292" y="396" on="0"/>
        <pt x="292" y="370" on="0"/>
        <pt x="277" y="351" on="0"/>
        <pt x="266" y="351" on="1"/>
        <pt x="163" y="351" on="1"/>
      </contour>
    </TTGlyph>
    <TTGlyph name="Euro" xMin="29" yMin="-6" xMax="547" yMax="731">
      <contour>
        <pt x="29" y="262" on="0"/>
        <pt x="29" y="290" on="0"/>
        <pt x="45" y="309" on="0"/>
        <pt x="58" y="309" on="1"/>
        <pt x="116" y="309" on="1"/>
        <pt x="116" y="397" on="1"/>
        <pt x="58" y="397" on="1"/>
        <pt x="45" y="397" on="0"/>
        <pt x="29" y="414" on="0"/>
        <pt x="29" y="442" on="0"/>
        <pt x="45" y="461" on="0"/>
        <pt x="58" y="461" on="1"/>
        <pt x="116" y="461" on="1"/>
        <pt x="116" y="513" on="1"/>
        <pt x="116" y="626" on="0"/>
        <pt x="233" y="731" on="0"/>
        <pt x="427" y="731" on="0"/>
        <pt x="547" y="632" on="0"/>
        <pt x="547" y="552" on="1"/>
        <pt x="547" y="530" on="0"/>
        <pt x="527" y="512" on="0"/>
        <pt x="505" y="512" on="1"/>
        <pt x="463" y="512" on="0"/>
        <pt x="463" y="540" on="1"/>
        <pt x="463" y="590" on="0"/>
        <pt x="395" y="655" on="0"/>
        <pt x="332" y="655" on="1"/>
        <pt x="200" y="655" on="0"/>
        <pt x="200" y="513" on="1"/>
        <pt x="200" y="461" on="1"/>
        <pt x="348" y="461" on="1"/>
        <pt x="360" y="461" on="0"/>
        <pt x="378" y="442" on="0"/>
        <pt x="378" y="429" on="1"/>
        <pt x="378" y="415" on="0"/>
        <pt x="360" y="397" on="0"/>
        <pt x="348" y="397" on="1"/>
        <pt x="200" y="397" on="1"/>
        <pt x="200" y="309" on="1"/>
        <pt x="348" y="309" on="1"/>
        <pt x="359" y="309" on="0"/>
        <pt x="378" y="289" on="0"/>
        <pt x="378" y="263" on="0"/>
        <pt x="360" y="245" on="0"/>
        <pt x="348" y="245" on="1"/>
        <pt x="200" y="245" on="1"/>
        <pt x="200" y="205" on="1"/>
        <pt x="200" y="145" on="0"/>
        <pt x="266" y="70" on="0"/>
        <pt x="333" y="70" on="1"/>
        <pt x="395" y="70" on="0"/>
        <pt x="463" y="135" on="0"/>
        <pt x="463" y="189" on="1"/>
        <pt x="463" y="217" on="0"/>
        <pt x="505" y="217" on="1"/>
        <pt x="527" y="217" on="0"/>
        <pt x="547" y="199" on="0"/>
        <pt x="547" y="176" on="1"/>
        <pt x="547" y="95" on="0"/>
        <pt x="427" y="-6" on="0"/>
        <pt x="330" y="-6" on="1"/>
        <pt x="231" y="-6" on="0"/>
        <pt x="116" y="103" on="0"/>
        <pt x="116" y="205" on="1"/>
        <pt x="116" y="245" on="1"/>
        <pt x="58" y="245" on="1"/>
        <pt x="45" y="245" on="0"/>
      </contour>
    </TTGlyph>
    <TTGlyph name="F" xMin="71" yMin="0" xMax="490" yMax="731">
      <contour>
        <pt x="71" y="29" on="1"/>
        <pt x="71" y="701" on="1"/>
        <pt x="71" y="715" on="0"/>
        <pt x="94" y="731" on="0"/>
        <pt x="109" y="731" on="1"/>
        <pt x="461" y="731" on="1"/>
        <pt x="475" y="731" on="0"/>
        <pt x="490" y="709" on="0"/>
        <pt x="490" y="694" on="1"/>
        <pt x="490" y="677" on="0"/>
        <pt x="475" y="655" on="0"/>
        <pt x="461" y="655" on="1"/>
        <pt x="155" y="655" on="1"/>
        <pt x="155" y="401" on="1"/>
        <pt x="311" y="401" on="1"/>
        <pt x="325" y="401" on="0"/>
        <pt x="340" y="380" on="0"/>
        <pt x="340" y="365" on="1"/>
        <pt x="340" y="352" on="0"/>
        <pt x="325" y="331" on="0"/>
        <pt x="311" y="331" on="1"/>
        <pt x="155" y="331" on="1"/>
        <pt x="155" y="29" on="1"/>
        <pt x="155" y="15" on="0"/>
        <pt x="130" y="0" on="0"/>
        <pt x="96" y="0" on="0"/>
        <pt x="71" y="15" on="0"/>
      </contour>
    </TTGlyph>
    <TTGlyph name="G" xMin="64" yMin="-6" xMax="495" yMax="731">
      <contour>
        <pt x="64" y="212" on="1"/>
        <pt x="64" y="513" on="1"/>
        <pt x="64" y="626" on="0"/>
        <pt x="181" y="731" on="0"/>
        <pt x="277" y="731" on="1"/>
        <pt x="375" y="731" on="0"/>
        <pt x="495" y="632" on="0"/>
        <pt x="495" y="552" on="1"/>
        <pt x="495" y="529" on="0"/>
        <pt x="474" y="511" on="0"/>
        <pt x="453" y="511" on="1"/>
        <pt x="412" y="511" on="0"/>
        <pt x="411" y="540" on="1"/>
        <pt x="398" y="655" on="0"/>
        <pt x="279" y="655" on="1"/>
        <pt x="148" y="655" on="0"/>
        <pt x="148" y="513" on="1"/>
        <pt x="148" y="212" on="1"/>
        <pt x="148" y="70" on="0"/>
        <pt x="279" y="70" on="1"/>
        <pt x="342" y="70" on="0"/>
        <pt x="411" y="141" on="0"/>
        <pt x="411" y="212" on="1"/>
        <pt x="411" y="314" on="1"/>
        <pt x="292" y="314" on="1"/>
        <pt x="278" y="314" on="0"/>
        <pt x="263" y="335" on="0"/>
        <pt x="263" y="363" on="0"/>
        <pt x="279" y="384" on="0"/>
        <pt x="292" y="384" on="1"/>
        <pt x="466" y="384" on="1"/>
        <pt x="480" y="384" on="0"/>
        <pt x="495" y="366" on="0"/>
        <pt x="495" y="353" on="1"/>
        <pt x="495" y="212" on="1"/>
        <pt x="495" y="99" on="0"/>
        <pt x="377" y="-6" on="0"/>
        <pt x="181" y="-6" on="0"/>
        <pt x="64" y="99" on="0"/>
      </contour>
    </TTGlyph>
    <TTGlyph name="Gbreve" xMin="64" yMin="-6" xMax="495" yMax="967">
      <contour>
        <pt x="64" y="212" on="1"/>
        <pt x="64" y="513" on="1"/>
        <pt x="64" y="626" on="0"/>
        <pt x="181" y="731" on="0"/>
        <pt x="277" y="731" on="1"/>
        <pt x="375" y="731" on="0"/>
        <pt x="495" y="632" on="0"/>
        <pt x="495" y="552" on="1"/>
        <pt x="495" y="529" on="0"/>
        <pt x="474" y="511" on="0"/>
        <pt x="453" y="511" on="1"/>
        <pt x="412" y="511" on="0"/>
        <pt x="411" y="540" on="1"/>
        <pt x="398" y="655" on="0"/>
        <pt x="279" y="655" on="1"/>
        <pt x="148" y="655" on="0"/>
        <pt x="148" y="513" on="1"/>
        <pt x="148" y="212" on="1"/>
        <pt x="148" y="70" on="0"/>
        <pt x="279" y="70" on="1"/>
        <pt x="342" y="70" on="0"/>
        <pt x="411" y="141" on="0"/>
        <pt x="411" y="212" on="1"/>
        <pt x="411" y="314" on="1"/>
        <pt x="292" y="314" on="1"/>
        <pt x="278" y="314" on="0"/>
        <pt x="263" y="335" on="0"/>
        <pt x="263" y="363" on="0"/>
        <pt x="279" y="384" on="0"/>
        <pt x="292" y="384" on="1"/>
        <pt x="466" y="384" on="1"/>
        <pt x="480" y="384" on="0"/>
        <pt x="495" y="366" on="0"/>
        <pt x="495" y="353" on="1"/>
        <pt x="495" y="212" on="1"/>
        <pt x="495" y="99" on="0"/>
        <pt x="377" y="-6" on="0"/>
        <pt x="181" y="-6" on="0"/>
        <pt x="64" y="99" on="0"/>
      </contour>
      <contour>
        <pt x="157" y="967" on="1"/>
        <pt x="208" y="967" on="1"/>
        <pt x="208" y="934" on="0"/>
        <pt x="250" y="888" on="0"/>
        <pt x="306" y="888" on="0"/>
        <pt x="348" y="934" on="0"/>
        <pt x="348" y="967" on="1"/>
        <pt x="399" y="967" on="1"/>
        <pt x="399" y="919" on="0"/>
        <pt x="326" y="846" on="0"/>
        <pt x="230" y="846" on="0"/>
        <pt x="157" y="919" on="0"/>
      </contour>
    </TTGlyph>
    <TTGlyph name="Gcircumflex" xMin="64" yMin="-6" xMax="495" yMax="955">
      <contour>
        <pt x="64" y="212" on="1"/>
        <pt x="64" y="513" on="1"/>
        <pt x="64" y="626" on="0"/>
        <pt x="181" y="731" on="0"/>
        <pt x="277" y="731" on="1"/>
        <pt x="375" y="731" on="0"/>
        <pt x="495" y="632" on="0"/>
        <pt x="495" y="552" on="1"/>
        <pt x="495" y="529" on="0"/>
        <pt x="474" y="511" on="0"/>
        <pt x="453" y="511" on="1"/>
        <pt x="412" y="511" on="0"/>
        <pt x="411" y="540" on="1"/>
        <pt x="398" y="655" on="0"/>
        <pt x="279" y="655" on="1"/>
        <pt x="148" y="655" on="0"/>
        <pt x="148" y="513" on="1"/>
        <pt x="148" y="212" on="1"/>
        <pt x="148" y="70" on="0"/>
        <pt x="279" y="70" on="1"/>
        <pt x="342" y="70" on="0"/>
        <pt x="411" y="141" on="0"/>
        <pt x="411" y="212" on="1"/>
        <pt x="411" y="314" on="1"/>
        <pt x="292" y="314" on="1"/>
        <pt x="278" y="314" on="0"/>
        <pt x="263" y="335" on="0"/>
        <pt x="263" y="363" on="0"/>
        <pt x="279" y="384" on="0"/>
        <pt x="292" y="384" on="1"/>
        <pt x="466" y="384" on="1"/>
        <pt x="480" y="384" on="0"/>
        <pt x="495" y="366" on="0"/>
        <pt x="495" y="353" on="1"/>
        <pt x="495" y="212" on="1"/>
        <pt x="495" y="99" on="0"/>
        <pt x="377" y="-6" on="0"/>
        <pt x="181" y="-6" on="0"/>
        <pt x="64" y="99" on="0"/>
      </contour>
      <contour>
        <pt x="137" y="868" on="1"/>
        <pt x="137" y="886" on="0"/>
        <pt x="152" y="894" on="1"/>
        <pt x="256" y="950" on="1"/>
        <pt x="266" y="955" on="0"/>
        <pt x="273" y="955" on="1"/>
        <pt x="282" y="955" on="0"/>
        <pt x="290" y="950" on="1"/>
        <pt x="394" y="895" on="1"/>
        <pt x="410" y="886" on="0"/>
        <pt x="410" y="867" on="1"/>
        <pt x="410" y="856" on="0"/>
        <pt x="396" y="839" on="0"/>
        <pt x="387" y="839" on="1"/>
        <pt x="385" y="839" on="0"/>
        <pt x="381" y="840" on="1"/>
        <pt x="379" y="842" on="0"/>
        <pt x="377" y="842" on="1"/>
        <pt x="273" y="898" on="1"/>
        <pt x="169" y="842" on="1"/>
        <pt x="164" y="839" on="0"/>
        <pt x="160" y="839" on="1"/>
        <pt x="151" y="839" on="0"/>
        <pt x="137" y="857" on="0"/>
      </contour>
    </TTGlyph>
    <TTGlyph name="Gcommaaccent" xMin="64" yMin="-168" xMax="495" yMax="731">
      <contour>
        <pt x="64" y="212" on="1"/>
        <pt x="64" y="513" on="1"/>
        <pt x="64" y="626" on="0"/>
        <pt x="181" y="731" on="0"/>
        <pt x="277" y="731" on="1"/>
        <pt x="375" y="731" on="0"/>
        <pt x="495" y="632" on="0"/>
        <pt x="495" y="552" on="1"/>
        <pt x="495" y="529" on="0"/>
        <pt x="474" y="511" on="0"/>
        <pt x="453" y="511" on="1"/>
        <pt x="412" y="511" on="0"/>
        <pt x="411" y="540" on="1"/>
        <pt x="398" y="655" on="0"/>
        <pt x="279" y="655" on="1"/>
        <pt x="148" y="655" on="0"/>
        <pt x="148" y="513" on="1"/>
        <pt x="148" y="212" on="1"/>
        <pt x="148" y="70" on="0"/>
        <pt x="279" y="70" on="1"/>
        <pt x="342" y="70" on="0"/>
        <pt x="411" y="141" on="0"/>
        <pt x="411" y="212" on="1"/>
        <pt x="411" y="314" on="1"/>
        <pt x="292" y="314" on="1"/>
        <pt x="278" y="314" on="0"/>
        <pt x="263" y="335" on="0"/>
        <pt x="263" y="363" on="0"/>
        <pt x="279" y="384" on="0"/>
        <pt x="292" y="384" on="1"/>
        <pt x="466" y="384" on="1"/>
        <pt x="480" y="384" on="0"/>
        <pt x="495" y="366" on="0"/>
        <pt x="495" y="353" on="1"/>
        <pt x="495" y="212" on="1"/>
        <pt x="495" y="99" on="0"/>
        <pt x="377" y="-6" on="0"/>
        <pt x="181" y="-6" on="0"/>
        <pt x="64" y="99" on="0"/>
      </contour>
      <contour>
        <pt x="193" y="-134" on="1"/>
        <pt x="193" y="-119" on="0"/>
        <pt x="206" y="-112" on="1"/>
        <pt x="323" y="-50" on="1"/>
        <pt x="331" y="-48" on="0"/>
        <pt x="333" y="-48" on="1"/>
        <pt x="345" y="-48" on="0"/>
        <pt x="362" y="-69" on="0"/>
        <pt x="362" y="-82" on="1"/>
        <pt x="362" y="-98" on="0"/>
        <pt x="348" y="-106" on="1"/>
        <pt x="235" y="-165" on="1"/>
        <pt x="229" y="-168" on="0"/>
        <pt x="223" y="-168" on="1"/>
        <pt x="211" y="-168" on="0"/>
        <pt x="193" y="-147" on="0"/>
      </contour>
    </TTGlyph>
    <TTGlyph name="Gdotaccent" xMin="64" yMin="-6" xMax="495" yMax="922">
      <contour>
        <pt x="64" y="212" on="1"/>
        <pt x="64" y="513" on="1"/>
        <pt x="64" y="626" on="0"/>
        <pt x="181" y="731" on="0"/>
        <pt x="277" y="731" on="1"/>
        <pt x="375" y="731" on="0"/>
        <pt x="495" y="632" on="0"/>
        <pt x="495" y="552" on="1"/>
        <pt x="495" y="529" on="0"/>
        <pt x="474" y="511" on="0"/>
        <pt x="453" y="511" on="1"/>
        <pt x="412" y="511" on="0"/>
        <pt x="411" y="540" on="1"/>
        <pt x="398" y="655" on="0"/>
        <pt x="279" y="655" on="1"/>
        <pt x="148" y="655" on="0"/>
        <pt x="148" y="513" on="1"/>
        <pt x="148" y="212" on="1"/>
        <pt x="148" y="70" on="0"/>
        <pt x="279" y="70" on="1"/>
        <pt x="342" y="70" on="0"/>
        <pt x="411" y="141" on="0"/>
        <pt x="411" y="212" on="1"/>
        <pt x="411" y="314" on="1"/>
        <pt x="292" y="314" on="1"/>
        <pt x="278" y="314" on="0"/>
        <pt x="263" y="335" on="0"/>
        <pt x="263" y="363" on="0"/>
        <pt x="279" y="384" on="0"/>
        <pt x="292" y="384" on="1"/>
        <pt x="466" y="384" on="1"/>
        <pt x="480" y="384" on="0"/>
        <pt x="495" y="366" on="0"/>
        <pt x="495" y="353" on="1"/>
        <pt x="495" y="212" on="1"/>
        <pt x="495" y="99" on="0"/>
        <pt x="377" y="-6" on="0"/>
        <pt x="181" y="-6" on="0"/>
        <pt x="64" y="99" on="0"/>
      </contour>
      <contour>
        <pt x="237" y="864" on="0"/>
        <pt x="237" y="898" on="0"/>
        <pt x="261" y="922" on="0"/>
        <pt x="295" y="922" on="0"/>
        <pt x="318" y="898" on="0"/>
        <pt x="318" y="864" on="0"/>
        <pt x="294" y="839" on="0"/>
        <pt x="278" y="839" on="1"/>
        <pt x="261" y="839" on="0"/>
      </contour>
    </TTGlyph>
    <TTGlyph name="H" xMin="71" yMin="0" xMax="510" yMax="731">
      <contour>
        <pt x="71" y="30" on="1"/>
        <pt x="71" y="702" on="1"/>
        <pt x="71" y="716" on="0"/>
        <pt x="96" y="731" on="0"/>
        <pt x="130" y="731" on="0"/>
        <pt x="155" y="716" on="0"/>
        <pt x="155" y="702" on="1"/>
        <pt x="155" y="414" on="1"/>
        <pt x="426" y="414" on="1"/>
        <pt x="426" y="702" on="1"/>
        <pt x="426" y="716" on="0"/>
        <pt x="451" y="731" on="0"/>
        <pt x="485" y="731" on="0"/>
        <pt x="510" y="716" on="0"/>
        <pt x="510" y="702" on="1"/>
        <pt x="510" y="30" on="1"/>
        <pt x="510" y="16" on="0"/>
        <pt x="485" y="0" on="0"/>
        <pt x="451" y="0" on="0"/>
        <pt x="426" y="16" on="0"/>
        <pt x="426" y="30" on="1"/>
        <pt x="426" y="344" on="1"/>
        <pt x="155" y="344" on="1"/>
        <pt x="155" y="30" on="1"/>
        <pt x="155" y="16" on="0"/>
        <pt x="130" y="0" on="0"/>
        <pt x="96" y="0" on="0"/>
        <pt x="71" y="16" on="0"/>
      </contour>
    </TTGlyph>
    <TTGlyph name="Hbar" xMin="19" yMin="0" xMax="565" yMax="731">
      <contour>
        <pt x="19" y="568" on="1"/>
        <pt x="19" y="581" on="0"/>
        <pt x="33" y="599" on="0"/>
        <pt x="45" y="599" on="1"/>
        <pt x="73" y="599" on="1"/>
        <pt x="73" y="702" on="1"/>
        <pt x="73" y="716" on="0"/>
        <pt x="98" y="731" on="0"/>
        <pt x="132" y="731" on="0"/>
        <pt x="157" y="716" on="0"/>
        <pt x="157" y="702" on="1"/>
        <pt x="157" y="599" on="1"/>
        <pt x="428" y="599" on="1"/>
        <pt x="428" y="702" on="1"/>
        <pt x="428" y="716" on="0"/>
        <pt x="453" y="731" on="0"/>
        <pt x="487" y="731" on="0"/>
        <pt x="512" y="716" on="0"/>
        <pt x="512" y="702" on="1"/>
        <pt x="512" y="599" on="1"/>
        <pt x="539" y="599" on="1"/>
        <pt x="551" y="599" on="0"/>
        <pt x="565" y="581" on="0"/>
        <pt x="565" y="568" on="1"/>
        <pt x="565" y="556" on="0"/>
        <pt x="551" y="539" on="0"/>
        <pt x="539" y="539" on="1"/>
        <pt x="512" y="539" on="1"/>
        <pt x="512" y="30" on="1"/>
        <pt x="512" y="16" on="0"/>
        <pt x="487" y="0" on="0"/>
        <pt x="453" y="0" on="0"/>
        <pt x="428" y="16" on="0"/>
        <pt x="428" y="30" on="1"/>
        <pt x="428" y="344" on="1"/>
        <pt x="157" y="344" on="1"/>
        <pt x="157" y="30" on="1"/>
        <pt x="157" y="16" on="0"/>
        <pt x="132" y="0" on="0"/>
        <pt x="98" y="0" on="0"/>
        <pt x="73" y="16" on="0"/>
        <pt x="73" y="30" on="1"/>
        <pt x="73" y="539" on="1"/>
        <pt x="45" y="539" on="1"/>
        <pt x="33" y="539" on="0"/>
        <pt x="19" y="556" on="0"/>
      </contour>
      <contour>
        <pt x="157" y="414" on="1"/>
        <pt x="428" y="414" on="1"/>
        <pt x="428" y="539" on="1"/>
        <pt x="157" y="539" on="1"/>
      </contour>
    </TTGlyph>
    <TTGlyph name="Hcircumflex" xMin="71" yMin="0" xMax="510" yMax="955">
      <contour>
        <pt x="71" y="30" on="1"/>
        <pt x="71" y="702" on="1"/>
        <pt x="71" y="716" on="0"/>
        <pt x="96" y="731" on="0"/>
        <pt x="130" y="731" on="0"/>
        <pt x="155" y="716" on="0"/>
        <pt x="155" y="702" on="1"/>
        <pt x="155" y="414" on="1"/>
        <pt x="426" y="414" on="1"/>
        <pt x="426" y="702" on="1"/>
        <pt x="426" y="716" on="0"/>
        <pt x="451" y="731" on="0"/>
        <pt x="485" y="731" on="0"/>
        <pt x="510" y="716" on="0"/>
        <pt x="510" y="702" on="1"/>
        <pt x="510" y="30" on="1"/>
        <pt x="510" y="16" on="0"/>
        <pt x="485" y="0" on="0"/>
        <pt x="451" y="0" on="0"/>
        <pt x="426" y="16" on="0"/>
        <pt x="426" y="30" on="1"/>
        <pt x="426" y="344" on="1"/>
        <pt x="155" y="344" on="1"/>
        <pt x="155" y="30" on="1"/>
        <pt x="155" y="16" on="0"/>
        <pt x="130" y="0" on="0"/>
        <pt x="96" y="0" on="0"/>
        <pt x="71" y="16" on="0"/>
      </contour>
      <contour>
        <pt x="154" y="868" on="1"/>
        <pt x="154" y="886" on="0"/>
        <pt x="169" y="894" on="1"/>
        <pt x="273" y="950" on="1"/>
        <pt x="283" y="955" on="0"/>
        <pt x="290" y="955" on="1"/>
        <pt x="299" y="955" on="0"/>
        <pt x="307" y="950" on="1"/>
        <pt x="411" y="895" on="1"/>
        <pt x="427" y="886" on="0"/>
        <pt x="427" y="867" on="1"/>
        <pt x="427" y="856" on="0"/>
        <pt x="414" y="839" on="0"/>
        <pt x="404" y="839" on="1"/>
        <pt x="402" y="839" on="0"/>
        <pt x="398" y="840" on="1"/>
        <pt x="396" y="842" on="0"/>
        <pt x="394" y="842" on="1"/>
        <pt x="290" y="898" on="1"/>
        <pt x="186" y="842" on="1"/>
        <pt x="182" y="839" on="0"/>
        <pt x="177" y="839" on="1"/>
        <pt x="168" y="839" on="0"/>
        <pt x="154" y="857" on="0"/>
      </contour>
    </TTGlyph>
    <TTGlyph name="I" xMin="71" yMin="0" xMax="155" yMax="731">
      <contour>
        <pt x="71" y="30" on="1"/>
        <pt x="71" y="702" on="1"/>
        <pt x="71" y="716" on="0"/>
        <pt x="96" y="731" on="0"/>
        <pt x="130" y="731" on="0"/>
        <pt x="155" y="716" on="0"/>
        <pt x="155" y="702" on="1"/>
        <pt x="155" y="30" on="1"/>
        <pt x="155" y="16" on="0"/>
        <pt x="130" y="0" on="0"/>
        <pt x="96" y="0" on="0"/>
        <pt x="71" y="16" on="0"/>
      </contour>
    </TTGlyph>
    <TTGlyph name="IJ" xMin="71" yMin="-6" xMax="671" yMax="731">
      <contour>
        <pt x="71" y="30" on="1"/>
        <pt x="71" y="702" on="1"/>
        <pt x="71" y="716" on="0"/>
        <pt x="96" y="731" on="0"/>
        <pt x="130" y="731" on="0"/>
        <pt x="155" y="716" on="0"/>
        <pt x="155" y="702" on="1"/>
        <pt x="155" y="30" on="1"/>
        <pt x="155" y="16" on="0"/>
        <pt x="130" y="0" on="0"/>
        <pt x="96" y="0" on="0"/>
        <pt x="71" y="16" on="0"/>
      </contour>
      <contour>
        <pt x="240" y="177" on="1"/>
        <pt x="240" y="200" on="0"/>
        <pt x="261" y="218" on="0"/>
        <pt x="282" y="218" on="1"/>
        <pt x="324" y="218" on="0"/>
        <pt x="324" y="189" on="1"/>
        <pt x="324" y="136" on="0"/>
        <pt x="393" y="70" on="0"/>
        <pt x="455" y="70" on="1"/>
        <pt x="587" y="70" on="0"/>
        <pt x="587" y="212" on="1"/>
        <pt x="587" y="655" on="1"/>
        <pt x="457" y="655" on="1"/>
        <pt x="443" y="655" on="0"/>
        <pt x="428" y="677" on="0"/>
        <pt x="428" y="694" on="1"/>
        <pt x="428" y="731" on="0"/>
        <pt x="457" y="731" on="1"/>
        <pt x="633" y="731" on="1"/>
        <pt x="648" y="731" on="0"/>
        <pt x="671" y="715" on="0"/>
        <pt x="671" y="701" on="1"/>
        <pt x="671" y="212" on="1"/>
        <pt x="671" y="99" on="0"/>
        <pt x="554" y="-6" on="0"/>
        <pt x="458" y="-6" on="1"/>
        <pt x="360" y="-6" on="0"/>
        <pt x="240" y="95" on="0"/>
      </contour>
    </TTGlyph>
    <TTGlyph name="Iacute" xMin="32" yMin="0" xMax="200" yMax="955">
      <contour>
        <pt x="32" y="869" on="1"/>
        <pt x="32" y="884" on="0"/>
        <pt x="45" y="891" on="1"/>
        <pt x="162" y="953" on="1"/>
        <pt x="168" y="955" on="0"/>
        <pt x="172" y="955" on="1"/>
        <pt x="184" y="955" on="0"/>
        <pt x="200" y="934" on="0"/>
        <pt x="200" y="921" on="1"/>
        <pt x="200" y="904" on="0"/>
        <pt x="186" y="897" on="1"/>
        <pt x="73" y="839" on="1"/>
        <pt x="65" y="835" on="0"/>
        <pt x="62" y="835" on="1"/>
        <pt x="50" y="835" on="0"/>
        <pt x="32" y="856" on="0"/>
      </contour>
      <contour>
        <pt x="71" y="30" on="1"/>
        <pt x="71" y="702" on="1"/>
        <pt x="71" y="716" on="0"/>
        <pt x="96" y="731" on="0"/>
        <pt x="130" y="731" on="0"/>
        <pt x="155" y="716" on="0"/>
        <pt x="155" y="702" on="1"/>
        <pt x="155" y="30" on="1"/>
        <pt x="155" y="16" on="0"/>
        <pt x="130" y="0" on="0"/>
        <pt x="96" y="0" on="0"/>
        <pt x="71" y="16" on="0"/>
      </contour>
    </TTGlyph>
    <TTGlyph name="Ibreve" xMin="-8" yMin="0" xMax="234" yMax="967">
      <contour>
        <pt x="-8" y="967" on="1"/>
        <pt x="43" y="967" on="1"/>
        <pt x="43" y="934" on="0"/>
        <pt x="85" y="888" on="0"/>
        <pt x="141" y="888" on="0"/>
        <pt x="183" y="934" on="0"/>
        <pt x="183" y="967" on="1"/>
        <pt x="234" y="967" on="1"/>
        <pt x="234" y="919" on="0"/>
        <pt x="161" y="846" on="0"/>
        <pt x="65" y="846" on="0"/>
        <pt x="-8" y="919" on="0"/>
      </contour>
      <contour>
        <pt x="71" y="30" on="1"/>
        <pt x="71" y="702" on="1"/>
        <pt x="71" y="716" on="0"/>
        <pt x="96" y="731" on="0"/>
        <pt x="130" y="731" on="0"/>
        <pt x="155" y="716" on="0"/>
        <pt x="155" y="702" on="1"/>
        <pt x="155" y="30" on="1"/>
        <pt x="155" y="16" on="0"/>
        <pt x="130" y="0" on="0"/>
        <pt x="96" y="0" on="0"/>
        <pt x="71" y="16" on="0"/>
      </contour>
    </TTGlyph>
    <TTGlyph name="Icircumflex" xMin="-23" yMin="0" xMax="250" yMax="955">
      <contour>
        <pt x="-23" y="868" on="1"/>
        <pt x="-23" y="886" on="0"/>
        <pt x="-8" y="894" on="1"/>
        <pt x="96" y="950" on="1"/>
        <pt x="106" y="955" on="0"/>
        <pt x="113" y="955" on="1"/>
        <pt x="122" y="955" on="0"/>
        <pt x="130" y="950" on="1"/>
        <pt x="234" y="895" on="1"/>
        <pt x="250" y="886" on="0"/>
        <pt x="250" y="867" on="1"/>
        <pt x="250" y="856" on="0"/>
        <pt x="236" y="839" on="0"/>
        <pt x="227" y="839" on="1"/>
        <pt x="225" y="839" on="0"/>
        <pt x="221" y="840" on="1"/>
        <pt x="219" y="842" on="0"/>
        <pt x="217" y="842" on="1"/>
        <pt x="113" y="898" on="1"/>
        <pt x="9" y="842" on="1"/>
        <pt x="4" y="839" on="0"/>
        <pt x="0" y="839" on="1"/>
        <pt x="-9" y="839" on="0"/>
        <pt x="-23" y="857" on="0"/>
      </contour>
      <contour>
        <pt x="71" y="30" on="1"/>
        <pt x="71" y="702" on="1"/>
        <pt x="71" y="716" on="0"/>
        <pt x="96" y="731" on="0"/>
        <pt x="130" y="731" on="0"/>
        <pt x="155" y="716" on="0"/>
        <pt x="155" y="702" on="1"/>
        <pt x="155" y="30" on="1"/>
        <pt x="155" y="16" on="0"/>
        <pt x="130" y="0" on="0"/>
        <pt x="96" y="0" on="0"/>
        <pt x="71" y="16" on="0"/>
      </contour>
    </TTGlyph>
    <TTGlyph name="Idieresis" xMin="8" yMin="0" xMax="219" yMax="922">
      <contour>
        <pt x="8" y="864" on="0"/>
        <pt x="8" y="898" on="0"/>
        <pt x="32" y="922" on="0"/>
        <pt x="66" y="922" on="0"/>
        <pt x="89" y="898" on="0"/>
        <pt x="89" y="864" on="0"/>
        <pt x="65" y="839" on="0"/>
        <pt x="49" y="839" on="1"/>
        <pt x="32" y="839" on="0"/>
      </contour>
      <contour>
        <pt x="71" y="30" on="1"/>
        <pt x="71" y="702" on="1"/>
        <pt x="71" y="716" on="0"/>
        <pt x="96" y="731" on="0"/>
        <pt x="130" y="731" on="0"/>
        <pt x="155" y="716" on="0"/>
        <pt x="155" y="702" on="1"/>
        <pt x="155" y="30" on="1"/>
        <pt x="155" y="16" on="0"/>
        <pt x="130" y="0" on="0"/>
        <pt x="96" y="0" on="0"/>
        <pt x="71" y="16" on="0"/>
      </contour>
      <contour>
        <pt x="139" y="864" on="0"/>
        <pt x="139" y="898" on="0"/>
        <pt x="162" y="922" on="0"/>
        <pt x="196" y="922" on="0"/>
        <pt x="219" y="898" on="0"/>
        <pt x="219" y="864" on="0"/>
        <pt x="196" y="839" on="0"/>
        <pt x="162" y="839" on="0"/>
      </contour>
    </TTGlyph>
    <TTGlyph name="Idotaccent" xMin="71" yMin="0" xMax="155" yMax="922">
      <contour>
        <pt x="71" y="30" on="1"/>
        <pt x="71" y="702" on="1"/>
        <pt x="71" y="716" on="0"/>
        <pt x="96" y="731" on="0"/>
        <pt x="130" y="731" on="0"/>
        <pt x="155" y="716" on="0"/>
        <pt x="155" y="702" on="1"/>
        <pt x="155" y="30" on="1"/>
        <pt x="155" y="16" on="0"/>
        <pt x="130" y="0" on="0"/>
        <pt x="96" y="0" on="0"/>
        <pt x="71" y="16" on="0"/>
      </contour>
      <contour>
        <pt x="72" y="864" on="0"/>
        <pt x="72" y="898" on="0"/>
        <pt x="96" y="922" on="0"/>
        <pt x="130" y="922" on="0"/>
        <pt x="153" y="898" on="0"/>
        <pt x="153" y="864" on="0"/>
        <pt x="129" y="839" on="0"/>
        <pt x="113" y="839" on="1"/>
        <pt x="96" y="839" on="0"/>
      </contour>
    </TTGlyph>
    <TTGlyph name="Igrave" xMin="25" yMin="0" xMax="193" yMax="955">
      <contour>
        <pt x="25" y="921" on="1"/>
        <pt x="25" y="934" on="0"/>
        <pt x="41" y="955" on="0"/>
        <pt x="53" y="955" on="1"/>
        <pt x="57" y="955" on="0"/>
        <pt x="63" y="953" on="1"/>
        <pt x="180" y="891" on="1"/>
        <pt x="193" y="884" on="0"/>
        <pt x="193" y="869" on="1"/>
        <pt x="193" y="856" on="0"/>
        <pt x="175" y="835" on="0"/>
        <pt x="163" y="835" on="1"/>
        <pt x="160" y="835" on="0"/>
        <pt x="152" y="839" on="1"/>
        <pt x="39" y="897" on="1"/>
        <pt x="25" y="904" on="0"/>
      </contour>
      <contour>
        <pt x="71" y="30" on="1"/>
        <pt x="71" y="702" on="1"/>
        <pt x="71" y="716" on="0"/>
        <pt x="96" y="731" on="0"/>
        <pt x="130" y="731" on="0"/>
        <pt x="155" y="716" on="0"/>
        <pt x="155" y="702" on="1"/>
        <pt x="155" y="30" on="1"/>
        <pt x="155" y="16" on="0"/>
        <pt x="130" y="0" on="0"/>
        <pt x="96" y="0" on="0"/>
        <pt x="71" y="16" on="0"/>
      </contour>
    </TTGlyph>
    <TTGlyph name="Imacron" xMin="-23" yMin="0" xMax="248" yMax="940">
      <contour>
        <pt x="-23" y="896" on="0"/>
        <pt x="-23" y="922" on="0"/>
        <pt x="-7" y="940" on="0"/>
        <pt x="6" y="940" on="1"/>
        <pt x="218" y="940" on="1"/>
        <pt x="230" y="940" on="0"/>
        <pt x="248" y="922" on="0"/>
        <pt x="248" y="896" on="0"/>
        <pt x="230" y="879" on="0"/>
        <pt x="218" y="879" on="1"/>
        <pt x="6" y="879" on="1"/>
        <pt x="-7" y="879" on="0"/>
      </contour>
      <contour>
        <pt x="71" y="30" on="1"/>
        <pt x="71" y="702" on="1"/>
        <pt x="71" y="716" on="0"/>
        <pt x="96" y="731" on="0"/>
        <pt x="130" y="731" on="0"/>
        <pt x="155" y="716" on="0"/>
        <pt x="155" y="702" on="1"/>
        <pt x="155" y="30" on="1"/>
        <pt x="155" y="16" on="0"/>
        <pt x="130" y="0" on="0"/>
        <pt x="96" y="0" on="0"/>
        <pt x="71" y="16" on="0"/>
      </contour>
    </TTGlyph>
    <TTGlyph name="Iogonek" xMin="18" yMin="-201" xMax="155" yMax="731">
      <contour>
        <pt x="18" y="-122" on="1"/>
        <pt x="18" y="-50" on="0"/>
        <pt x="83" y="8" on="1"/>
        <pt x="71" y="17" on="0"/>
        <pt x="71" y="30" on="1"/>
        <pt x="71" y="702" on="1"/>
        <pt x="71" y="716" on="0"/>
        <pt x="96" y="731" on="0"/>
        <pt x="130" y="731" on="0"/>
        <pt x="155" y="716" on="0"/>
        <pt x="155" y="702" on="1"/>
        <pt x="155" y="30" on="1"/>
        <pt x="155" y="10" on="0"/>
        <pt x="133" y="3" on="1"/>
        <pt x="65" y="-55" on="0"/>
        <pt x="65" y="-115" on="1"/>
        <pt x="65" y="-160" on="0"/>
        <pt x="126" y="-160" on="1"/>
        <pt x="146" y="-160" on="0"/>
        <pt x="146" y="-182" on="1"/>
        <pt x="146" y="-201" on="0"/>
        <pt x="120" y="-201" on="1"/>
        <pt x="75" y="-201" on="0"/>
        <pt x="18" y="-161" on="0"/>
      </contour>
    </TTGlyph>
    <TTGlyph name="Itilde" xMin="-47" yMin="0" xMax="272" yMax="948">
      <contour>
        <pt x="-47" y="887" on="1"/>
        <pt x="-47" y="916" on="0"/>
        <pt x="12" y="948" on="0"/>
        <pt x="40" y="948" on="1"/>
        <pt x="67" y="948" on="0"/>
        <pt x="149" y="915" on="0"/>
        <pt x="175" y="915" on="1"/>
        <pt x="200" y="915" on="0"/>
        <pt x="242" y="942" on="0"/>
        <pt x="248" y="942" on="1"/>
        <pt x="259" y="942" on="0"/>
        <pt x="272" y="923" on="0"/>
        <pt x="272" y="914" on="1"/>
        <pt x="272" y="883" on="0"/>
        <pt x="216" y="854" on="0"/>
        <pt x="188" y="854" on="1"/>
        <pt x="158" y="854" on="0"/>
        <pt x="78" y="887" on="0"/>
        <pt x="52" y="887" on="1"/>
        <pt x="27" y="887" on="0"/>
        <pt x="-18" y="858" on="0"/>
        <pt x="-24" y="858" on="1"/>
        <pt x="-35" y="858" on="0"/>
        <pt x="-47" y="877" on="0"/>
      </contour>
      <contour>
        <pt x="71" y="30" on="1"/>
        <pt x="71" y="702" on="1"/>
        <pt x="71" y="716" on="0"/>
        <pt x="96" y="731" on="0"/>
        <pt x="130" y="731" on="0"/>
        <pt x="155" y="716" on="0"/>
        <pt x="155" y="702" on="1"/>
        <pt x="155" y="30" on="1"/>
        <pt x="155" y="16" on="0"/>
        <pt x="130" y="0" on="0"/>
        <pt x="96" y="0" on="0"/>
        <pt x="71" y="16" on="0"/>
      </contour>
    </TTGlyph>
    <TTGlyph name="J" xMin="20" yMin="-6" xMax="451" yMax="731">
      <contour>
        <pt x="20" y="177" on="1"/>
        <pt x="20" y="200" on="0"/>
        <pt x="41" y="218" on="0"/>
        <pt x="62" y="218" on="1"/>
        <pt x="104" y="218" on="0"/>
        <pt x="104" y="189" on="1"/>
        <pt x="104" y="136" on="0"/>
        <pt x="173" y="70" on="0"/>
        <pt x="235" y="70" on="1"/>
        <pt x="367" y="70" on="0"/>
        <pt x="367" y="212" on="1"/>
        <pt x="367" y="655" on="1"/>
        <pt x="237" y="655" on="1"/>
        <pt x="223" y="655" on="0"/>
        <pt x="208" y="677" on="0"/>
        <pt x="208" y="694" on="1"/>
        <pt x="208" y="731" on="0"/>
        <pt x="237" y="731" on="1"/>
        <pt x="413" y="731" on="1"/>
        <pt x="428" y="731" on="0"/>
        <pt x="451" y="715" on="0"/>
        <pt x="451" y="701" on="1"/>
        <pt x="451" y="212" on="1"/>
        <pt x="451" y="99" on="0"/>
        <pt x="334" y="-6" on="0"/>
        <pt x="238" y="-6" on="1"/>
        <pt x="140" y="-6" on="0"/>
        <pt x="20" y="95" on="0"/>
      </contour>
    </TTGlyph>
    <TTGlyph name="Jcircumflex" xMin="20" yMin="-6" xMax="451" yMax="955">
      <contour>
        <pt x="20" y="177" on="1"/>
        <pt x="20" y="200" on="0"/>
        <pt x="41" y="218" on="0"/>
        <pt x="62" y="218" on="1"/>
        <pt x="104" y="218" on="0"/>
        <pt x="104" y="189" on="1"/>
        <pt x="104" y="136" on="0"/>
        <pt x="173" y="70" on="0"/>
        <pt x="235" y="70" on="1"/>
        <pt x="367" y="70" on="0"/>
        <pt x="367" y="212" on="1"/>
        <pt x="367" y="655" on="1"/>
        <pt x="237" y="655" on="1"/>
        <pt x="223" y="655" on="0"/>
        <pt x="208" y="677" on="0"/>
        <pt x="208" y="694" on="1"/>
        <pt x="208" y="731" on="0"/>
        <pt x="237" y="731" on="1"/>
        <pt x="413" y="731" on="1"/>
        <pt x="428" y="731" on="0"/>
        <pt x="451" y="715" on="0"/>
        <pt x="451" y="701" on="1"/>
        <pt x="451" y="212" on="1"/>
        <pt x="451" y="99" on="0"/>
        <pt x="334" y="-6" on="0"/>
        <pt x="238" y="-6" on="1"/>
        <pt x="140" y="-6" on="0"/>
        <pt x="20" y="95" on="0"/>
      </contour>
      <contour>
        <pt x="124" y="868" on="1"/>
        <pt x="124" y="886" on="0"/>
        <pt x="139" y="894" on="1"/>
        <pt x="243" y="950" on="1"/>
        <pt x="253" y="955" on="0"/>
        <pt x="260" y="955" on="1"/>
        <pt x="269" y="955" on="0"/>
        <pt x="277" y="950" on="1"/>
        <pt x="381" y="895" on="1"/>
        <pt x="397" y="886" on="0"/>
        <pt x="397" y="867" on="1"/>
        <pt x="397" y="856" on="0"/>
        <pt x="384" y="839" on="0"/>
        <pt x="374" y="839" on="1"/>
        <pt x="372" y="839" on="0"/>
        <pt x="368" y="840" on="1"/>
        <pt x="366" y="842" on="0"/>
        <pt x="364" y="842" on="1"/>
        <pt x="260" y="898" on="1"/>
        <pt x="156" y="842" on="1"/>
        <pt x="152" y="839" on="0"/>
        <pt x="147" y="839" on="1"/>
        <pt x="138" y="839" on="0"/>
        <pt x="124" y="857" on="0"/>
      </contour>
    </TTGlyph>
    <TTGlyph name="K" xMin="71" yMin="-2" xMax="528" yMax="731">
      <contour>
        <pt x="71" y="30" on="1"/>
        <pt x="71" y="702" on="1"/>
        <pt x="71" y="716" on="0"/>
        <pt x="96" y="731" on="0"/>
        <pt x="130" y="731" on="0"/>
        <pt x="155" y="716" on="0"/>
        <pt x="155" y="702" on="1"/>
        <pt x="155" y="371" on="1"/>
        <pt x="423" y="719" on="1"/>
        <pt x="432" y="731" on="0"/>
        <pt x="464" y="731" on="0"/>
        <pt x="496" y="703" on="0"/>
        <pt x="496" y="688" on="1"/>
        <pt x="496" y="678" on="0"/>
        <pt x="489" y="670" on="1"/>
        <pt x="285" y="415" on="1"/>
        <pt x="523" y="55" on="1"/>
        <pt x="528" y="47" on="0"/>
        <pt x="528" y="40" on="1"/>
        <pt x="528" y="24" on="0"/>
        <pt x="497" y="-2" on="0"/>
        <pt x="479" y="-2" on="1"/>
        <pt x="459" y="-2" on="0"/>
        <pt x="448" y="15" on="1"/>
        <pt x="229" y="344" on="1"/>
        <pt x="155" y="251" on="1"/>
        <pt x="155" y="30" on="1"/>
        <pt x="155" y="16" on="0"/>
        <pt x="130" y="0" on="0"/>
        <pt x="96" y="0" on="0"/>
        <pt x="71" y="16" on="0"/>
      </contour>
    </TTGlyph>
    <TTGlyph name="Kcommaaccent" xMin="71" yMin="-168" xMax="528" yMax="731">
      <contour>
        <pt x="71" y="30" on="1"/>
        <pt x="71" y="702" on="1"/>
        <pt x="71" y="716" on="0"/>
        <pt x="96" y="731" on="0"/>
        <pt x="130" y="731" on="0"/>
        <pt x="155" y="716" on="0"/>
        <pt x="155" y="702" on="1"/>
        <pt x="155" y="371" on="1"/>
        <pt x="423" y="719" on="1"/>
        <pt x="432" y="731" on="0"/>
        <pt x="464" y="731" on="0"/>
        <pt x="496" y="703" on="0"/>
        <pt x="496" y="688" on="1"/>
        <pt x="496" y="678" on="0"/>
        <pt x="489" y="670" on="1"/>
        <pt x="285" y="415" on="1"/>
        <pt x="523" y="55" on="1"/>
        <pt x="528" y="47" on="0"/>
        <pt x="528" y="40" on="1"/>
        <pt x="528" y="24" on="0"/>
        <pt x="497" y="-2" on="0"/>
        <pt x="479" y="-2" on="1"/>
        <pt x="459" y="-2" on="0"/>
        <pt x="448" y="15" on="1"/>
        <pt x="229" y="344" on="1"/>
        <pt x="155" y="251" on="1"/>
        <pt x="155" y="30" on="1"/>
        <pt x="155" y="16" on="0"/>
        <pt x="130" y="0" on="0"/>
        <pt x="96" y="0" on="0"/>
        <pt x="71" y="16" on="0"/>
      </contour>
      <contour>
        <pt x="182" y="-134" on="1"/>
        <pt x="182" y="-119" on="0"/>
        <pt x="195" y="-112" on="1"/>
        <pt x="312" y="-50" on="1"/>
        <pt x="320" y="-48" on="0"/>
        <pt x="322" y="-48" on="1"/>
        <pt x="334" y="-48" on="0"/>
        <pt x="351" y="-69" on="0"/>
        <pt x="351" y="-82" on="1"/>
        <pt x="351" y="-98" on="0"/>
        <pt x="337" y="-106" on="1"/>
        <pt x="224" y="-165" on="1"/>
        <pt x="218" y="-168" on="0"/>
        <pt x="212" y="-168" on="1"/>
        <pt x="200" y="-168" on="0"/>
        <pt x="182" y="-147" on="0"/>
      </contour>
    </TTGlyph>
    <TTGlyph name="L" xMin="71" yMin="0" xMax="455" yMax="731">
      <contour>
        <pt x="71" y="30" on="1"/>
        <pt x="71" y="702" on="1"/>
        <pt x="71" y="716" on="0"/>
        <pt x="96" y="731" on="0"/>
        <pt x="130" y="731" on="0"/>
        <pt x="155" y="716" on="0"/>
        <pt x="155" y="702" on="1"/>
        <pt x="155" y="76" on="1"/>
        <pt x="428" y="76" on="1"/>
        <pt x="441" y="76" on="0"/>
        <pt x="455" y="53" on="0"/>
        <pt x="455" y="23" on="0"/>
        <pt x="441" y="0" on="0"/>
        <pt x="428" y="0" on="1"/>
        <pt x="109" y="0" on="1"/>
        <pt x="94" y="0" on="0"/>
        <pt x="71" y="16" on="0"/>
      </contour>
    </TTGlyph>
    <TTGlyph name="Lacute" xMin="71" yMin="0" xMax="455" yMax="955">
      <contour>
        <pt x="71" y="30" on="1"/>
        <pt x="71" y="702" on="1"/>
        <pt x="71" y="716" on="0"/>
        <pt x="96" y="731" on="0"/>
        <pt x="130" y="731" on="0"/>
        <pt x="155" y="716" on="0"/>
        <pt x="155" y="702" on="1"/>
        <pt x="155" y="76" on="1"/>
        <pt x="428" y="76" on="1"/>
        <pt x="441" y="76" on="0"/>
        <pt x="455" y="53" on="0"/>
        <pt x="455" y="23" on="0"/>
        <pt x="441" y="0" on="0"/>
        <pt x="428" y="0" on="1"/>
        <pt x="109" y="0" on="1"/>
        <pt x="94" y="0" on="0"/>
        <pt x="71" y="16" on="0"/>
      </contour>
      <contour>
        <pt x="174" y="869" on="1"/>
        <pt x="174" y="884" on="0"/>
        <pt x="187" y="891" on="1"/>
        <pt x="304" y="953" on="1"/>
        <pt x="310" y="955" on="0"/>
        <pt x="314" y="955" on="1"/>
        <pt x="326" y="955" on="0"/>
        <pt x="342" y="934" on="0"/>
        <pt x="342" y="921" on="1"/>
        <pt x="342" y="904" on="0"/>
        <pt x="328" y="897" on="1"/>
        <pt x="215" y="839" on="1"/>
        <pt x="207" y="835" on="0"/>
        <pt x="204" y="835" on="1"/>
        <pt x="192" y="835" on="0"/>
        <pt x="174" y="856" on="0"/>
      </contour>
    </TTGlyph>
    <TTGlyph name="Lcaron" xMin="71" yMin="0" xMax="455" yMax="741">
      <contour>
        <pt x="71" y="30" on="1"/>
        <pt x="71" y="702" on="1"/>
        <pt x="71" y="716" on="0"/>
        <pt x="96" y="731" on="0"/>
        <pt x="130" y="731" on="0"/>
        <pt x="155" y="716" on="0"/>
        <pt x="155" y="702" on="1"/>
        <pt x="155" y="76" on="1"/>
        <pt x="428" y="76" on="1"/>
        <pt x="441" y="76" on="0"/>
        <pt x="455" y="53" on="0"/>
        <pt x="455" y="23" on="0"/>
        <pt x="441" y="0" on="0"/>
        <pt x="428" y="0" on="1"/>
        <pt x="109" y="0" on="1"/>
        <pt x="94" y="0" on="0"/>
        <pt x="71" y="16" on="0"/>
      </contour>
      <contour>
        <pt x="297" y="689" on="1"/>
        <pt x="297" y="710" on="0"/>
        <pt x="327" y="741" on="0"/>
        <pt x="349" y="741" on="1"/>
        <pt x="370" y="741" on="0"/>
        <pt x="401" y="710" on="0"/>
        <pt x="401" y="668" on="0"/>
        <pt x="356" y="567" on="1"/>
        <pt x="350" y="554" on="0"/>
        <pt x="336" y="554" on="1"/>
        <pt x="325" y="554" on="0"/>
        <pt x="306" y="567" on="0"/>
        <pt x="306" y="578" on="1"/>
        <pt x="306" y="582" on="0"/>
        <pt x="308" y="588" on="1"/>
        <pt x="329" y="640" on="1"/>
        <pt x="297" y="653" on="0"/>
      </contour>
    </TTGlyph>
    <TTGlyph name="Lcommaaccent" xMin="71" yMin="-168" xMax="455" yMax="731">
      <contour>
        <pt x="71" y="30" on="1"/>
        <pt x="71" y="702" on="1"/>
        <pt x="71" y="716" on="0"/>
        <pt x="96" y="731" on="0"/>
        <pt x="130" y="731" on="0"/>
        <pt x="155" y="716" on="0"/>
        <pt x="155" y="702" on="1"/>
        <pt x="155" y="76" on="1"/>
        <pt x="428" y="76" on="1"/>
        <pt x="441" y="76" on="0"/>
        <pt x="455" y="53" on="0"/>
        <pt x="455" y="23" on="0"/>
        <pt x="441" y="0" on="0"/>
        <pt x="428" y="0" on="1"/>
        <pt x="109" y="0" on="1"/>
        <pt x="94" y="0" on="0"/>
        <pt x="71" y="16" on="0"/>
      </contour>
      <contour>
        <pt x="170" y="-134" on="1"/>
        <pt x="170" y="-119" on="0"/>
        <pt x="183" y="-112" on="1"/>
        <pt x="300" y="-50" on="1"/>
        <pt x="308" y="-48" on="0"/>
        <pt x="310" y="-48" on="1"/>
        <pt x="322" y="-48" on="0"/>
        <pt x="339" y="-69" on="0"/>
        <pt x="339" y="-82" on="1"/>
        <pt x="339" y="-98" on="0"/>
        <pt x="325" y="-106" on="1"/>
        <pt x="212" y="-165" on="1"/>
        <pt x="206" y="-168" on="0"/>
        <pt x="200" y="-168" on="1"/>
        <pt x="188" y="-168" on="0"/>
        <pt x="170" y="-147" on="0"/>
      </contour>
    </TTGlyph>
    <TTGlyph name="Ldot" xMin="71" yMin="0" xMax="455" yMax="731">
      <contour>
        <pt x="71" y="30" on="1"/>
        <pt x="71" y="702" on="1"/>
        <pt x="71" y="716" on="0"/>
        <pt x="96" y="731" on="0"/>
        <pt x="130" y="731" on="0"/>
        <pt x="155" y="716" on="0"/>
        <pt x="155" y="702" on="1"/>
        <pt x="155" y="76" on="1"/>
        <pt x="428" y="76" on="1"/>
        <pt x="441" y="76" on="0"/>
        <pt x="455" y="53" on="0"/>
        <pt x="455" y="23" on="0"/>
        <pt x="441" y="0" on="0"/>
        <pt x="428" y="0" on="1"/>
        <pt x="109" y="0" on="1"/>
        <pt x="94" y="0" on="0"/>
        <pt x="71" y="16" on="0"/>
      </contour>
      <contour>
        <pt x="290" y="401" on="0"/>
        <pt x="290" y="441" on="0"/>
        <pt x="322" y="471" on="0"/>
        <pt x="345" y="471" on="1"/>
        <pt x="367" y="471" on="0"/>
        <pt x="398" y="441" on="0"/>
        <pt x="398" y="401" on="0"/>
        <pt x="367" y="371" on="0"/>
        <pt x="345" y="371" on="1"/>
        <pt x="322" y="371" on="0"/>
      </contour>
    </TTGlyph>
    <TTGlyph name="Lslash" xMin="-1" yMin="0" xMax="461" yMax="731">
      <contour>
        <pt x="-1" y="298" on="1"/>
        <pt x="-1" y="314" on="0"/>
        <pt x="12" y="320" on="1"/>
        <pt x="77" y="354" on="1"/>
        <pt x="77" y="702" on="1"/>
        <pt x="77" y="716" on="0"/>
        <pt x="102" y="731" on="0"/>
        <pt x="136" y="731" on="0"/>
        <pt x="161" y="716" on="0"/>
        <pt x="161" y="702" on="1"/>
        <pt x="161" y="399" on="1"/>
        <pt x="248" y="446" on="1"/>
        <pt x="251" y="448" on="0"/>
        <pt x="258" y="448" on="1"/>
        <pt x="270" y="448" on="0"/>
        <pt x="290" y="424" on="0"/>
        <pt x="290" y="411" on="1"/>
        <pt x="290" y="394" on="0"/>
        <pt x="277" y="388" on="1"/>
        <pt x="161" y="326" on="1"/>
        <pt x="161" y="76" on="1"/>
        <pt x="434" y="76" on="1"/>
        <pt x="447" y="76" on="0"/>
        <pt x="461" y="53" on="0"/>
        <pt x="461" y="23" on="0"/>
        <pt x="447" y="0" on="0"/>
        <pt x="434" y="0" on="1"/>
        <pt x="115" y="0" on="1"/>
        <pt x="100" y="0" on="0"/>
        <pt x="77" y="16" on="0"/>
        <pt x="77" y="30" on="1"/>
        <pt x="77" y="281" on="1"/>
        <pt x="41" y="262" on="1"/>
        <pt x="35" y="259" on="0"/>
        <pt x="30" y="259" on="1"/>
        <pt x="18" y="259" on="0"/>
        <pt x="-1" y="284" on="0"/>
      </contour>
    </TTGlyph>
    <TTGlyph name="M" xMin="71" yMin="0" xMax="604" yMax="731">
      <contour>
        <pt x="71" y="30" on="1"/>
        <pt x="71" y="690" on="1"/>
        <pt x="71" y="731" on="0"/>
        <pt x="113" y="731" on="1"/>
        <pt x="153" y="731" on="0"/>
        <pt x="180" y="678" on="1"/>
        <pt x="337" y="377" on="1"/>
        <pt x="495" y="678" on="1"/>
        <pt x="524" y="731" on="0"/>
        <pt x="562" y="731" on="1"/>
        <pt x="604" y="731" on="0"/>
        <pt x="604" y="690" on="1"/>
        <pt x="604" y="30" on="1"/>
        <pt x="604" y="16" on="0"/>
        <pt x="579" y="0" on="0"/>
        <pt x="545" y="0" on="0"/>
        <pt x="520" y="16" on="0"/>
        <pt x="520" y="30" on="1"/>
        <pt x="520" y="555" on="1"/>
        <pt x="369" y="271" on="1"/>
        <pt x="357" y="248" on="0"/>
        <pt x="336" y="248" on="1"/>
        <pt x="317" y="248" on="0"/>
        <pt x="305" y="271" on="1"/>
        <pt x="155" y="559" on="1"/>
        <pt x="155" y="30" on="1"/>
        <pt x="155" y="16" on="0"/>
        <pt x="130" y="0" on="0"/>
        <pt x="96" y="0" on="0"/>
        <pt x="71" y="16" on="0"/>
      </contour>
    </TTGlyph>
    <TTGlyph name="N" xMin="71" yMin="0" xMax="510" yMax="731">
      <contour>
        <pt x="71" y="30" on="1"/>
        <pt x="71" y="702" on="1"/>
        <pt x="71" y="731" on="0"/>
        <pt x="113" y="731" on="1"/>
        <pt x="134" y="731" on="0"/>
        <pt x="163" y="706" on="0"/>
        <pt x="177" y="678" on="1"/>
        <pt x="426" y="191" on="1"/>
        <pt x="426" y="702" on="1"/>
        <pt x="426" y="716" on="0"/>
        <pt x="451" y="731" on="0"/>
        <pt x="485" y="731" on="0"/>
        <pt x="510" y="716" on="0"/>
        <pt x="510" y="702" on="1"/>
        <pt x="510" y="30" on="1"/>
        <pt x="510" y="16" on="0"/>
        <pt x="485" y="0" on="0"/>
        <pt x="468" y="0" on="1"/>
        <pt x="436" y="0" on="0"/>
        <pt x="415" y="38" on="1"/>
        <pt x="155" y="541" on="1"/>
        <pt x="155" y="30" on="1"/>
        <pt x="155" y="16" on="0"/>
        <pt x="130" y="0" on="0"/>
        <pt x="96" y="0" on="0"/>
        <pt x="71" y="16" on="0"/>
      </contour>
    </TTGlyph>
    <TTGlyph name="Nacute" xMin="71" yMin="0" xMax="510" yMax="955">
      <contour>
        <pt x="71" y="30" on="1"/>
        <pt x="71" y="702" on="1"/>
        <pt x="71" y="731" on="0"/>
        <pt x="113" y="731" on="1"/>
        <pt x="134" y="731" on="0"/>
        <pt x="163" y="706" on="0"/>
        <pt x="177" y="678" on="1"/>
        <pt x="426" y="191" on="1"/>
        <pt x="426" y="702" on="1"/>
        <pt x="426" y="716" on="0"/>
        <pt x="451" y="731" on="0"/>
        <pt x="485" y="731" on="0"/>
        <pt x="510" y="716" on="0"/>
        <pt x="510" y="702" on="1"/>
        <pt x="510" y="30" on="1"/>
        <pt x="510" y="16" on="0"/>
        <pt x="485" y="0" on="0"/>
        <pt x="468" y="0" on="1"/>
        <pt x="436" y="0" on="0"/>
        <pt x="415" y="38" on="1"/>
        <pt x="155" y="541" on="1"/>
        <pt x="155" y="30" on="1"/>
        <pt x="155" y="16" on="0"/>
        <pt x="130" y="0" on="0"/>
        <pt x="96" y="0" on="0"/>
        <pt x="71" y="16" on="0"/>
      </contour>
      <contour>
        <pt x="200" y="869" on="1"/>
        <pt x="200" y="884" on="0"/>
        <pt x="213" y="891" on="1"/>
        <pt x="330" y="953" on="1"/>
        <pt x="336" y="955" on="0"/>
        <pt x="340" y="955" on="1"/>
        <pt x="352" y="955" on="0"/>
        <pt x="368" y="934" on="0"/>
        <pt x="368" y="921" on="1"/>
        <pt x="368" y="904" on="0"/>
        <pt x="354" y="897" on="1"/>
        <pt x="241" y="839" on="1"/>
        <pt x="233" y="835" on="0"/>
        <pt x="230" y="835" on="1"/>
        <pt x="218" y="835" on="0"/>
        <pt x="200" y="856" on="0"/>
      </contour>
    </TTGlyph>
    <TTGlyph name="Ncaron" xMin="71" yMin="0" xMax="510" yMax="982">
      <contour>
        <pt x="71" y="30" on="1"/>
        <pt x="71" y="702" on="1"/>
        <pt x="71" y="731" on="0"/>
        <pt x="113" y="731" on="1"/>
        <pt x="134" y="731" on="0"/>
        <pt x="163" y="706" on="0"/>
        <pt x="177" y="678" on="1"/>
        <pt x="426" y="191" on="1"/>
        <pt x="426" y="702" on="1"/>
        <pt x="426" y="716" on="0"/>
        <pt x="451" y="731" on="0"/>
        <pt x="485" y="731" on="0"/>
        <pt x="510" y="716" on="0"/>
        <pt x="510" y="702" on="1"/>
        <pt x="510" y="30" on="1"/>
        <pt x="510" y="16" on="0"/>
        <pt x="485" y="0" on="0"/>
        <pt x="468" y="0" on="1"/>
        <pt x="436" y="0" on="0"/>
        <pt x="415" y="38" on="1"/>
        <pt x="155" y="541" on="1"/>
        <pt x="155" y="30" on="1"/>
        <pt x="155" y="16" on="0"/>
        <pt x="130" y="0" on="0"/>
        <pt x="96" y="0" on="0"/>
        <pt x="71" y="16" on="0"/>
      </contour>
      <contour>
        <pt x="154" y="955" on="1"/>
        <pt x="154" y="965" on="0"/>
        <pt x="166" y="982" on="0"/>
        <pt x="175" y="982" on="1"/>
        <pt x="183" y="982" on="0"/>
        <pt x="189" y="976" on="1"/>
        <pt x="289" y="892" on="1"/>
        <pt x="390" y="976" on="1"/>
        <pt x="395" y="982" on="0"/>
        <pt x="413" y="982" on="0"/>
        <pt x="425" y="965" on="0"/>
        <pt x="425" y="955" on="1"/>
        <pt x="425" y="938" on="0"/>
        <pt x="410" y="928" on="1"/>
        <pt x="309" y="845" on="1"/>
        <pt x="298" y="836" on="0"/>
        <pt x="289" y="836" on="1"/>
        <pt x="279" y="836" on="0"/>
        <pt x="270" y="845" on="1"/>
        <pt x="168" y="928" on="1"/>
        <pt x="154" y="938" on="0"/>
      </contour>
    </TTGlyph>
    <TTGlyph name="Ncommaaccent" xMin="71" yMin="-168" xMax="510" yMax="731">
      <contour>
        <pt x="71" y="30" on="1"/>
        <pt x="71" y="702" on="1"/>
        <pt x="71" y="731" on="0"/>
        <pt x="113" y="731" on="1"/>
        <pt x="134" y="731" on="0"/>
        <pt x="163" y="706" on="0"/>
        <pt x="177" y="678" on="1"/>
        <pt x="426" y="191" on="1"/>
        <pt x="426" y="702" on="1"/>
        <pt x="426" y="716" on="0"/>
        <pt x="451" y="731" on="0"/>
        <pt x="485" y="731" on="0"/>
        <pt x="510" y="716" on="0"/>
        <pt x="510" y="702" on="1"/>
        <pt x="510" y="30" on="1"/>
        <pt x="510" y="16" on="0"/>
        <pt x="485" y="0" on="0"/>
        <pt x="468" y="0" on="1"/>
        <pt x="436" y="0" on="0"/>
        <pt x="415" y="38" on="1"/>
        <pt x="155" y="541" on="1"/>
        <pt x="155" y="30" on="1"/>
        <pt x="155" y="16" on="0"/>
        <pt x="130" y="0" on="0"/>
        <pt x="96" y="0" on="0"/>
        <pt x="71" y="16" on="0"/>
      </contour>
      <contour>
        <pt x="204" y="-134" on="1"/>
        <pt x="204" y="-119" on="0"/>
        <pt x="217" y="-112" on="1"/>
        <pt x="334" y="-50" on="1"/>
        <pt x="342" y="-48" on="0"/>
        <pt x="344" y="-48" on="1"/>
        <pt x="356" y="-48" on="0"/>
        <pt x="373" y="-69" on="0"/>
        <pt x="373" y="-82" on="1"/>
        <pt x="373" y="-98" on="0"/>
        <pt x="359" y="-106" on="1"/>
        <pt x="246" y="-165" on="1"/>
        <pt x="240" y="-168" on="0"/>
        <pt x="234" y="-168" on="1"/>
        <pt x="222" y="-168" on="0"/>
        <pt x="204" y="-147" on="0"/>
      </contour>
    </TTGlyph>
    <TTGlyph name="Ntilde" xMin="71" yMin="0" xMax="510" yMax="948">
      <contour>
        <pt x="71" y="30" on="1"/>
        <pt x="71" y="702" on="1"/>
        <pt x="71" y="731" on="0"/>
        <pt x="113" y="731" on="1"/>
        <pt x="134" y="731" on="0"/>
        <pt x="163" y="706" on="0"/>
        <pt x="177" y="678" on="1"/>
        <pt x="426" y="191" on="1"/>
        <pt x="426" y="702" on="1"/>
        <pt x="426" y="716" on="0"/>
        <pt x="451" y="731" on="0"/>
        <pt x="485" y="731" on="0"/>
        <pt x="510" y="716" on="0"/>
        <pt x="510" y="702" on="1"/>
        <pt x="510" y="30" on="1"/>
        <pt x="510" y="16" on="0"/>
        <pt x="485" y="0" on="0"/>
        <pt x="468" y="0" on="1"/>
        <pt x="436" y="0" on="0"/>
        <pt x="415" y="38" on="1"/>
        <pt x="155" y="541" on="1"/>
        <pt x="155" y="30" on="1"/>
        <pt x="155" y="16" on="0"/>
        <pt x="130" y="0" on="0"/>
        <pt x="96" y="0" on="0"/>
        <pt x="71" y="16" on="0"/>
      </contour>
      <contour>
        <pt x="127" y="887" on="1"/>
        <pt x="127" y="916" on="0"/>
        <pt x="186" y="948" on="0"/>
        <pt x="214" y="948" on="1"/>
        <pt x="241" y="948" on="0"/>
        <pt x="323" y="915" on="0"/>
        <pt x="349" y="915" on="1"/>
        <pt x="374" y="915" on="0"/>
        <pt x="416" y="942" on="0"/>
        <pt x="422" y="942" on="1"/>
        <pt x="433" y="942" on="0"/>
        <pt x="446" y="923" on="0"/>
        <pt x="446" y="914" on="1"/>
        <pt x="446" y="883" on="0"/>
        <pt x="390" y="854" on="0"/>
        <pt x="362" y="854" on="1"/>
        <pt x="332" y="854" on="0"/>
        <pt x="252" y="887" on="0"/>
        <pt x="226" y="887" on="1"/>
        <pt x="201" y="887" on="0"/>
        <pt x="156" y="858" on="0"/>
        <pt x="150" y="858" on="1"/>
        <pt x="139" y="858" on="0"/>
        <pt x="127" y="877" on="0"/>
      </contour>
    </TTGlyph>
    <TTGlyph name="O" xMin="64" yMin="-6" xMax="495" yMax="731">
      <contour>
        <pt x="64" y="212" on="1"/>
        <pt x="64" y="513" on="1"/>
        <pt x="64" y="626" on="0"/>
        <pt x="181" y="731" on="0"/>
        <pt x="377" y="731" on="0"/>
        <pt x="495" y="626" on="0"/>
        <pt x="495" y="513" on="1"/>
        <pt x="495" y="212" on="1"/>
        <pt x="495" y="99" on="0"/>
        <pt x="377" y="-6" on="0"/>
        <pt x="181" y="-6" on="0"/>
        <pt x="64" y="99" on="0"/>
      </contour>
      <contour>
        <pt x="148" y="212" on="1"/>
        <pt x="148" y="70" on="0"/>
        <pt x="279" y="70" on="1"/>
        <pt x="342" y="70" on="0"/>
        <pt x="411" y="141" on="0"/>
        <pt x="411" y="212" on="1"/>
        <pt x="411" y="513" on="1"/>
        <pt x="411" y="584" on="0"/>
        <pt x="342" y="655" on="0"/>
        <pt x="279" y="655" on="1"/>
        <pt x="148" y="655" on="0"/>
        <pt x="148" y="513" on="1"/>
      </contour>
    </TTGlyph>
    <TTGlyph name="OE" xMin="64" yMin="-6" xMax="817" yMax="731">
      <contour>
        <pt x="64" y="212" on="1"/>
        <pt x="64" y="513" on="1"/>
        <pt x="64" y="626" on="0"/>
        <pt x="174" y="731" on="0"/>
        <pt x="267" y="731" on="1"/>
        <pt x="315" y="731" on="0"/>
        <pt x="398" y="694" on="0"/>
        <pt x="420" y="658" on="1"/>
        <pt x="420" y="701" on="1"/>
        <pt x="420" y="715" on="0"/>
        <pt x="443" y="731" on="0"/>
        <pt x="458" y="731" on="1"/>
        <pt x="788" y="731" on="1"/>
        <pt x="802" y="731" on="0"/>
        <pt x="817" y="709" on="0"/>
        <pt x="817" y="694" on="1"/>
        <pt x="817" y="677" on="0"/>
        <pt x="802" y="655" on="0"/>
        <pt x="788" y="655" on="1"/>
        <pt x="495" y="655" on="1"/>
        <pt x="495" y="401" on="1"/>
        <pt x="634" y="401" on="1"/>
        <pt x="648" y="401" on="0"/>
        <pt x="663" y="380" on="0"/>
        <pt x="663" y="365" on="1"/>
        <pt x="663" y="352" on="0"/>
        <pt x="648" y="331" on="0"/>
        <pt x="634" y="331" on="1"/>
        <pt x="495" y="331" on="1"/>
        <pt x="495" y="76" on="1"/>
        <pt x="788" y="76" on="1"/>
        <pt x="802" y="76" on="0"/>
        <pt x="817" y="54" on="0"/>
        <pt x="817" y="37" on="1"/>
        <pt x="817" y="22" on="0"/>
        <pt x="802" y="0" on="0"/>
        <pt x="788" y="0" on="1"/>
        <pt x="458" y="0" on="1"/>
        <pt x="443" y="0" on="0"/>
        <pt x="420" y="16" on="0"/>
        <pt x="420" y="30" on="1"/>
        <pt x="420" y="67" on="1"/>
        <pt x="376" y="-6" on="0"/>
        <pt x="267" y="-6" on="1"/>
        <pt x="174" y="-6" on="0"/>
        <pt x="64" y="99" on="0"/>
      </contour>
      <contour>
        <pt x="148" y="212" on="1"/>
        <pt x="148" y="70" on="0"/>
        <pt x="279" y="70" on="1"/>
        <pt x="342" y="70" on="0"/>
        <pt x="411" y="141" on="0"/>
        <pt x="411" y="212" on="1"/>
        <pt x="411" y="513" on="1"/>
        <pt x="411" y="584" on="0"/>
        <pt x="342" y="655" on="0"/>
        <pt x="279" y="655" on="1"/>
        <pt x="148" y="655" on="0"/>
        <pt x="148" y="513" on="1"/>
      </contour>
    </TTGlyph>
    <TTGlyph name="Oacute" xMin="64" yMin="-6" xMax="495" yMax="955">
      <contour>
        <pt x="64" y="212" on="1"/>
        <pt x="64" y="513" on="1"/>
        <pt x="64" y="626" on="0"/>
        <pt x="181" y="731" on="0"/>
        <pt x="377" y="731" on="0"/>
        <pt x="495" y="626" on="0"/>
        <pt x="495" y="513" on="1"/>
        <pt x="495" y="212" on="1"/>
        <pt x="495" y="99" on="0"/>
        <pt x="377" y="-6" on="0"/>
        <pt x="181" y="-6" on="0"/>
        <pt x="64" y="99" on="0"/>
      </contour>
      <contour>
        <pt x="148" y="212" on="1"/>
        <pt x="148" y="70" on="0"/>
        <pt x="279" y="70" on="1"/>
        <pt x="342" y="70" on="0"/>
        <pt x="411" y="141" on="0"/>
        <pt x="411" y="212" on="1"/>
        <pt x="411" y="513" on="1"/>
        <pt x="411" y="584" on="0"/>
        <pt x="342" y="655" on="0"/>
        <pt x="279" y="655" on="1"/>
        <pt x="148" y="655" on="0"/>
        <pt x="148" y="513" on="1"/>
      </contour>
      <contour>
        <pt x="213" y="869" on="1"/>
        <pt x="213" y="884" on="0"/>
        <pt x="226" y="891" on="1"/>
        <pt x="343" y="953" on="1"/>
        <pt x="349" y="955" on="0"/>
        <pt x="353" y="955" on="1"/>
        <pt x="365" y="955" on="0"/>
        <pt x="381" y="934" on="0"/>
        <pt x="381" y="921" on="1"/>
        <pt x="381" y="904" on="0"/>
        <pt x="367" y="897" on="1"/>
        <pt x="254" y="839" on="1"/>
        <pt x="246" y="835" on="0"/>
        <pt x="243" y="835" on="1"/>
        <pt x="231" y="835" on="0"/>
        <pt x="213" y="856" on="0"/>
      </contour>
    </TTGlyph>
    <TTGlyph name="Obreve" xMin="64" yMin="-6" xMax="495" yMax="967">
      <contour>
        <pt x="64" y="212" on="1"/>
        <pt x="64" y="513" on="1"/>
        <pt x="64" y="626" on="0"/>
        <pt x="181" y="731" on="0"/>
        <pt x="377" y="731" on="0"/>
        <pt x="495" y="626" on="0"/>
        <pt x="495" y="513" on="1"/>
        <pt x="495" y="212" on="1"/>
        <pt x="495" y="99" on="0"/>
        <pt x="377" y="-6" on="0"/>
        <pt x="181" y="-6" on="0"/>
        <pt x="64" y="99" on="0"/>
      </contour>
      <contour>
        <pt x="148" y="212" on="1"/>
        <pt x="148" y="70" on="0"/>
        <pt x="279" y="70" on="1"/>
        <pt x="342" y="70" on="0"/>
        <pt x="411" y="141" on="0"/>
        <pt x="411" y="212" on="1"/>
        <pt x="411" y="513" on="1"/>
        <pt x="411" y="584" on="0"/>
        <pt x="342" y="655" on="0"/>
        <pt x="279" y="655" on="1"/>
        <pt x="148" y="655" on="0"/>
        <pt x="148" y="513" on="1"/>
      </contour>
      <contour>
        <pt x="158" y="967" on="1"/>
        <pt x="209" y="967" on="1"/>
        <pt x="209" y="934" on="0"/>
        <pt x="251" y="888" on="0"/>
        <pt x="307" y="888" on="0"/>
        <pt x="349" y="934" on="0"/>
        <pt x="349" y="967" on="1"/>
        <pt x="400" y="967" on="1"/>
        <pt x="400" y="919" on="0"/>
        <pt x="327" y="846" on="0"/>
        <pt x="231" y="846" on="0"/>
        <pt x="158" y="919" on="0"/>
      </contour>
    </TTGlyph>
    <TTGlyph name="Ocircumflex" xMin="64" yMin="-6" xMax="495" yMax="955">
      <contour>
        <pt x="64" y="212" on="1"/>
        <pt x="64" y="513" on="1"/>
        <pt x="64" y="626" on="0"/>
        <pt x="181" y="731" on="0"/>
        <pt x="377" y="731" on="0"/>
        <pt x="495" y="626" on="0"/>
        <pt x="495" y="513" on="1"/>
        <pt x="495" y="212" on="1"/>
        <pt x="495" y="99" on="0"/>
        <pt x="377" y="-6" on="0"/>
        <pt x="181" y="-6" on="0"/>
        <pt x="64" y="99" on="0"/>
      </contour>
      <contour>
        <pt x="143" y="868" on="1"/>
        <pt x="143" y="886" on="0"/>
        <pt x="158" y="894" on="1"/>
        <pt x="262" y="950" on="1"/>
        <pt x="272" y="955" on="0"/>
        <pt x="279" y="955" on="1"/>
        <pt x="288" y="955" on="0"/>
        <pt x="296" y="950" on="1"/>
        <pt x="400" y="895" on="1"/>
        <pt x="416" y="886" on="0"/>
        <pt x="416" y="867" on="1"/>
        <pt x="416" y="856" on="0"/>
        <pt x="402" y="839" on="0"/>
        <pt x="393" y="839" on="1"/>
        <pt x="391" y="839" on="0"/>
        <pt x="387" y="840" on="1"/>
        <pt x="385" y="842" on="0"/>
        <pt x="383" y="842" on="1"/>
        <pt x="279" y="898" on="1"/>
        <pt x="175" y="842" on="1"/>
        <pt x="170" y="839" on="0"/>
        <pt x="166" y="839" on="1"/>
        <pt x="157" y="839" on="0"/>
        <pt x="143" y="857" on="0"/>
      </contour>
      <contour>
        <pt x="148" y="212" on="1"/>
        <pt x="148" y="70" on="0"/>
        <pt x="279" y="70" on="1"/>
        <pt x="342" y="70" on="0"/>
        <pt x="411" y="141" on="0"/>
        <pt x="411" y="212" on="1"/>
        <pt x="411" y="513" on="1"/>
        <pt x="411" y="584" on="0"/>
        <pt x="342" y="655" on="0"/>
        <pt x="279" y="655" on="1"/>
        <pt x="148" y="655" on="0"/>
        <pt x="148" y="513" on="1"/>
      </contour>
    </TTGlyph>
    <TTGlyph name="Odieresis" xMin="64" yMin="-6" xMax="495" yMax="922">
      <contour>
        <pt x="64" y="212" on="1"/>
        <pt x="64" y="513" on="1"/>
        <pt x="64" y="626" on="0"/>
        <pt x="181" y="731" on="0"/>
        <pt x="377" y="731" on="0"/>
        <pt x="495" y="626" on="0"/>
        <pt x="495" y="513" on="1"/>
        <pt x="495" y="212" on="1"/>
        <pt x="495" y="99" on="0"/>
        <pt x="377" y="-6" on="0"/>
        <pt x="181" y="-6" on="0"/>
        <pt x="64" y="99" on="0"/>
      </contour>
      <contour>
        <pt x="148" y="212" on="1"/>
        <pt x="148" y="70" on="0"/>
        <pt x="279" y="70" on="1"/>
        <pt x="342" y="70" on="0"/>
        <pt x="411" y="141" on="0"/>
        <pt x="411" y="212" on="1"/>
        <pt x="411" y="513" on="1"/>
        <pt x="411" y="584" on="0"/>
        <pt x="342" y="655" on="0"/>
        <pt x="279" y="655" on="1"/>
        <pt x="148" y="655" on="0"/>
        <pt x="148" y="513" on="1"/>
      </contour>
      <contour>
        <pt x="174" y="864" on="0"/>
        <pt x="174" y="898" on="0"/>
        <pt x="198" y="922" on="0"/>
        <pt x="232" y="922" on="0"/>
        <pt x="255" y="898" on="0"/>
        <pt x="255" y="864" on="0"/>
        <pt x="231" y="839" on="0"/>
        <pt x="215" y="839" on="1"/>
        <pt x="198" y="839" on="0"/>
      </contour>
      <contour>
        <pt x="305" y="864" on="0"/>
        <pt x="305" y="898" on="0"/>
        <pt x="328" y="922" on="0"/>
        <pt x="362" y="922" on="0"/>
        <pt x="385" y="898" on="0"/>
        <pt x="385" y="864" on="0"/>
        <pt x="362" y="839" on="0"/>
        <pt x="328" y="839" on="0"/>
      </contour>
    </TTGlyph>
    <TTGlyph name="Ograve" xMin="64" yMin="-6" xMax="495" yMax="955">
      <contour>
        <pt x="64" y="212" on="1"/>
        <pt x="64" y="513" on="1"/>
        <pt x="64" y="626" on="0"/>
        <pt x="181" y="731" on="0"/>
        <pt x="377" y="731" on="0"/>
        <pt x="495" y="626" on="0"/>
        <pt x="495" y="513" on="1"/>
        <pt x="495" y="212" on="1"/>
        <pt x="495" y="99" on="0"/>
        <pt x="377" y="-6" on="0"/>
        <pt x="181" y="-6" on="0"/>
        <pt x="64" y="99" on="0"/>
      </contour>
      <contour>
        <pt x="148" y="212" on="1"/>
        <pt x="148" y="70" on="0"/>
        <pt x="279" y="70" on="1"/>
        <pt x="342" y="70" on="0"/>
        <pt x="411" y="141" on="0"/>
        <pt x="411" y="212" on="1"/>
        <pt x="411" y="513" on="1"/>
        <pt x="411" y="584" on="0"/>
        <pt x="342" y="655" on="0"/>
        <pt x="279" y="655" on="1"/>
        <pt x="148" y="655" on="0"/>
        <pt x="148" y="513" on="1"/>
      </contour>
      <contour>
        <pt x="189" y="921" on="1"/>
        <pt x="189" y="934" on="0"/>
        <pt x="205" y="955" on="0"/>
        <pt x="217" y="955" on="1"/>
        <pt x="221" y="955" on="0"/>
        <pt x="227" y="953" on="1"/>
        <pt x="344" y="891" on="1"/>
        <pt x="357" y="884" on="0"/>
        <pt x="357" y="869" on="1"/>
        <pt x="357" y="856" on="0"/>
        <pt x="339" y="835" on="0"/>
        <pt x="327" y="835" on="1"/>
        <pt x="324" y="835" on="0"/>
        <pt x="316" y="839" on="1"/>
        <pt x="203" y="897" on="1"/>
        <pt x="189" y="904" on="0"/>
      </contour>
    </TTGlyph>
    <TTGlyph name="Ohungarumlaut" xMin="64" yMin="-6" xMax="495" yMax="956">
      <contour>
        <pt x="64" y="212" on="1"/>
        <pt x="64" y="513" on="1"/>
        <pt x="64" y="626" on="0"/>
        <pt x="181" y="731" on="0"/>
        <pt x="377" y="731" on="0"/>
        <pt x="495" y="626" on="0"/>
        <pt x="495" y="513" on="1"/>
        <pt x="495" y="212" on="1"/>
        <pt x="495" y="99" on="0"/>
        <pt x="377" y="-6" on="0"/>
        <pt x="181" y="-6" on="0"/>
        <pt x="64" y="99" on="0"/>
      </contour>
      <contour>
        <pt x="148" y="212" on="1"/>
        <pt x="148" y="70" on="0"/>
        <pt x="279" y="70" on="1"/>
        <pt x="342" y="70" on="0"/>
        <pt x="411" y="141" on="0"/>
        <pt x="411" y="212" on="1"/>
        <pt x="411" y="513" on="1"/>
        <pt x="411" y="584" on="0"/>
        <pt x="342" y="655" on="0"/>
        <pt x="279" y="655" on="1"/>
        <pt x="148" y="655" on="0"/>
        <pt x="148" y="513" on="1"/>
      </contour>
      <contour>
        <pt x="167" y="852" on="0"/>
        <pt x="167" y="872" on="0"/>
        <pt x="175" y="877" on="1"/>
        <pt x="267" y="951" on="1"/>
        <pt x="272" y="956" on="0"/>
        <pt x="280" y="956" on="1"/>
        <pt x="291" y="956" on="0"/>
        <pt x="308" y="938" on="0"/>
        <pt x="308" y="928" on="1"/>
        <pt x="308" y="917" on="0"/>
        <pt x="299" y="911" on="1"/>
        <pt x="211" y="840" on="1"/>
        <pt x="204" y="834" on="0"/>
        <pt x="197" y="834" on="1"/>
        <pt x="186" y="834" on="0"/>
      </contour>
      <contour>
        <pt x="319" y="852" on="0"/>
        <pt x="319" y="872" on="0"/>
        <pt x="327" y="877" on="1"/>
        <pt x="420" y="951" on="1"/>
        <pt x="424" y="956" on="0"/>
        <pt x="433" y="956" on="1"/>
        <pt x="443" y="956" on="0"/>
        <pt x="460" y="938" on="0"/>
        <pt x="460" y="928" on="1"/>
        <pt x="460" y="917" on="0"/>
        <pt x="451" y="911" on="1"/>
        <pt x="363" y="840" on="1"/>
        <pt x="357" y="834" on="0"/>
        <pt x="349" y="834" on="1"/>
        <pt x="338" y="834" on="0"/>
      </contour>
    </TTGlyph>
    <TTGlyph name="Omacron" xMin="64" yMin="-6" xMax="495" yMax="940">
      <contour>
        <pt x="64" y="212" on="1"/>
        <pt x="64" y="513" on="1"/>
        <pt x="64" y="626" on="0"/>
        <pt x="181" y="731" on="0"/>
        <pt x="377" y="731" on="0"/>
        <pt x="495" y="626" on="0"/>
        <pt x="495" y="513" on="1"/>
        <pt x="495" y="212" on="1"/>
        <pt x="495" y="99" on="0"/>
        <pt x="377" y="-6" on="0"/>
        <pt x="181" y="-6" on="0"/>
        <pt x="64" y="99" on="0"/>
      </contour>
      <contour>
        <pt x="144" y="896" on="0"/>
        <pt x="144" y="922" on="0"/>
        <pt x="160" y="940" on="0"/>
        <pt x="173" y="940" on="1"/>
        <pt x="385" y="940" on="1"/>
        <pt x="396" y="940" on="0"/>
        <pt x="415" y="922" on="0"/>
        <pt x="415" y="896" on="0"/>
        <pt x="397" y="879" on="0"/>
        <pt x="385" y="879" on="1"/>
        <pt x="173" y="879" on="1"/>
        <pt x="160" y="879" on="0"/>
      </contour>
      <contour>
        <pt x="148" y="212" on="1"/>
        <pt x="148" y="70" on="0"/>
        <pt x="279" y="70" on="1"/>
        <pt x="342" y="70" on="0"/>
        <pt x="411" y="141" on="0"/>
        <pt x="411" y="212" on="1"/>
        <pt x="411" y="513" on="1"/>
        <pt x="411" y="584" on="0"/>
        <pt x="342" y="655" on="0"/>
        <pt x="279" y="655" on="1"/>
        <pt x="148" y="655" on="0"/>
        <pt x="148" y="513" on="1"/>
      </contour>
    </TTGlyph>
    <TTGlyph name="Oslash" xMin="62" yMin="-30" xMax="499" yMax="770">
      <contour>
        <pt x="62" y="0" on="1"/>
        <pt x="62" y="9" on="0"/>
        <pt x="65" y="13" on="1"/>
        <pt x="97" y="77" on="1"/>
        <pt x="64" y="129" on="0"/>
        <pt x="64" y="212" on="1"/>
        <pt x="64" y="513" on="1"/>
        <pt x="64" y="626" on="0"/>
        <pt x="181" y="731" on="0"/>
        <pt x="279" y="731" on="1"/>
        <pt x="356" y="731" on="0"/>
        <pt x="411" y="697" on="1"/>
        <pt x="440" y="755" on="1"/>
        <pt x="448" y="770" on="0"/>
        <pt x="464" y="770" on="1"/>
        <pt x="477" y="770" on="0"/>
        <pt x="499" y="751" on="0"/>
        <pt x="499" y="737" on="1"/>
        <pt x="499" y="730" on="0"/>
        <pt x="495" y="723" on="1"/>
        <pt x="459" y="651" on="1"/>
        <pt x="495" y="599" on="0"/>
        <pt x="495" y="513" on="1"/>
        <pt x="495" y="212" on="1"/>
        <pt x="495" y="99" on="0"/>
        <pt x="377" y="-6" on="0"/>
        <pt x="279" y="-6" on="1"/>
        <pt x="196" y="-6" on="0"/>
        <pt x="144" y="29" on="1"/>
        <pt x="122" y="-14" on="1"/>
        <pt x="115" y="-30" on="0"/>
        <pt x="94" y="-30" on="1"/>
        <pt x="80" y="-30" on="0"/>
        <pt x="62" y="-12" on="0"/>
      </contour>
      <contour>
        <pt x="148" y="212" on="1"/>
        <pt x="148" y="199" on="0"/>
        <pt x="150" y="181" on="1"/>
        <pt x="373" y="623" on="1"/>
        <pt x="339" y="655" on="0"/>
        <pt x="279" y="655" on="1"/>
        <pt x="148" y="655" on="0"/>
        <pt x="148" y="513" on="1"/>
      </contour>
      <contour>
        <pt x="182" y="105" on="1"/>
        <pt x="214" y="70" on="0"/>
        <pt x="279" y="70" on="1"/>
        <pt x="342" y="70" on="0"/>
        <pt x="411" y="141" on="0"/>
        <pt x="411" y="212" on="1"/>
        <pt x="411" y="513" on="1"/>
        <pt x="411" y="533" on="0"/>
        <pt x="408" y="551" on="1"/>
      </contour>
    </TTGlyph>
    <TTGlyph name="Oslashacute" xMin="62" yMin="-30" xMax="499" yMax="955">
      <contour>
        <pt x="62" y="0" on="1"/>
        <pt x="62" y="9" on="0"/>
        <pt x="65" y="13" on="1"/>
        <pt x="97" y="77" on="1"/>
        <pt x="64" y="129" on="0"/>
        <pt x="64" y="212" on="1"/>
        <pt x="64" y="513" on="1"/>
        <pt x="64" y="626" on="0"/>
        <pt x="181" y="731" on="0"/>
        <pt x="279" y="731" on="1"/>
        <pt x="356" y="731" on="0"/>
        <pt x="411" y="697" on="1"/>
        <pt x="440" y="755" on="1"/>
        <pt x="448" y="770" on="0"/>
        <pt x="464" y="770" on="1"/>
        <pt x="477" y="770" on="0"/>
        <pt x="499" y="751" on="0"/>
        <pt x="499" y="737" on="1"/>
        <pt x="499" y="730" on="0"/>
        <pt x="495" y="723" on="1"/>
        <pt x="459" y="651" on="1"/>
        <pt x="495" y="599" on="0"/>
        <pt x="495" y="513" on="1"/>
        <pt x="495" y="212" on="1"/>
        <pt x="495" y="99" on="0"/>
        <pt x="377" y="-6" on="0"/>
        <pt x="279" y="-6" on="1"/>
        <pt x="196" y="-6" on="0"/>
        <pt x="144" y="29" on="1"/>
        <pt x="122" y="-14" on="1"/>
        <pt x="115" y="-30" on="0"/>
        <pt x="94" y="-30" on="1"/>
        <pt x="80" y="-30" on="0"/>
        <pt x="62" y="-12" on="0"/>
      </contour>
      <contour>
        <pt x="148" y="212" on="1"/>
        <pt x="148" y="199" on="0"/>
        <pt x="150" y="181" on="1"/>
        <pt x="373" y="623" on="1"/>
        <pt x="339" y="655" on="0"/>
        <pt x="279" y="655" on="1"/>
        <pt x="148" y="655" on="0"/>
        <pt x="148" y="513" on="1"/>
      </contour>
      <contour>
        <pt x="182" y="105" on="1"/>
        <pt x="214" y="70" on="0"/>
        <pt x="279" y="70" on="1"/>
        <pt x="342" y="70" on="0"/>
        <pt x="411" y="141" on="0"/>
        <pt x="411" y="212" on="1"/>
        <pt x="411" y="513" on="1"/>
        <pt x="411" y="533" on="0"/>
        <pt x="408" y="551" on="1"/>
      </contour>
      <contour>
        <pt x="205" y="869" on="1"/>
        <pt x="205" y="884" on="0"/>
        <pt x="218" y="891" on="1"/>
        <pt x="335" y="953" on="1"/>
        <pt x="341" y="955" on="0"/>
        <pt x="345" y="955" on="1"/>
        <pt x="357" y="955" on="0"/>
        <pt x="373" y="934" on="0"/>
        <pt x="373" y="921" on="1"/>
        <pt x="373" y="904" on="0"/>
        <pt x="359" y="897" on="1"/>
        <pt x="246" y="839" on="1"/>
        <pt x="238" y="835" on="0"/>
        <pt x="235" y="835" on="1"/>
        <pt x="223" y="835" on="0"/>
        <pt x="205" y="856" on="0"/>
      </contour>
    </TTGlyph>
    <TTGlyph name="Otilde" xMin="64" yMin="-6" xMax="495" yMax="948">
      <contour>
        <pt x="64" y="212" on="1"/>
        <pt x="64" y="513" on="1"/>
        <pt x="64" y="626" on="0"/>
        <pt x="181" y="731" on="0"/>
        <pt x="377" y="731" on="0"/>
        <pt x="495" y="626" on="0"/>
        <pt x="495" y="513" on="1"/>
        <pt x="495" y="212" on="1"/>
        <pt x="495" y="99" on="0"/>
        <pt x="377" y="-6" on="0"/>
        <pt x="181" y="-6" on="0"/>
        <pt x="64" y="99" on="0"/>
      </contour>
      <contour>
        <pt x="120" y="887" on="1"/>
        <pt x="120" y="916" on="0"/>
        <pt x="179" y="948" on="0"/>
        <pt x="207" y="948" on="1"/>
        <pt x="234" y="948" on="0"/>
        <pt x="316" y="915" on="0"/>
        <pt x="342" y="915" on="1"/>
        <pt x="367" y="915" on="0"/>
        <pt x="409" y="942" on="0"/>
        <pt x="415" y="942" on="1"/>
        <pt x="426" y="942" on="0"/>
        <pt x="439" y="923" on="0"/>
        <pt x="439" y="914" on="1"/>
        <pt x="439" y="883" on="0"/>
        <pt x="383" y="854" on="0"/>
        <pt x="355" y="854" on="1"/>
        <pt x="325" y="854" on="0"/>
        <pt x="245" y="887" on="0"/>
        <pt x="219" y="887" on="1"/>
        <pt x="194" y="887" on="0"/>
        <pt x="149" y="858" on="0"/>
        <pt x="143" y="858" on="1"/>
        <pt x="132" y="858" on="0"/>
        <pt x="120" y="877" on="0"/>
      </contour>
      <contour>
        <pt x="148" y="212" on="1"/>
        <pt x="148" y="70" on="0"/>
        <pt x="279" y="70" on="1"/>
        <pt x="342" y="70" on="0"/>
        <pt x="411" y="141" on="0"/>
        <pt x="411" y="212" on="1"/>
        <pt x="411" y="513" on="1"/>
        <pt x="411" y="584" on="0"/>
        <pt x="342" y="655" on="0"/>
        <pt x="279" y="655" on="1"/>
        <pt x="148" y="655" on="0"/>
        <pt x="148" y="513" on="1"/>
      </contour>
    </TTGlyph>
    <TTGlyph name="P" xMin="71" yMin="0" xMax="506" yMax="731">
      <contour>
        <pt x="71" y="30" on="1"/>
        <pt x="71" y="702" on="1"/>
        <pt x="71" y="714" on="0"/>
        <pt x="90" y="731" on="0"/>
        <pt x="105" y="731" on="1"/>
        <pt x="294" y="731" on="1"/>
        <pt x="390" y="731" on="0"/>
        <pt x="506" y="627" on="0"/>
        <pt x="506" y="515" on="1"/>
        <pt x="506" y="506" on="1"/>
        <pt x="506" y="394" on="0"/>
        <pt x="388" y="289" on="0"/>
        <pt x="290" y="289" on="1"/>
        <pt x="155" y="289" on="1"/>
        <pt x="155" y="30" on="1"/>
        <pt x="155" y="16" on="0"/>
        <pt x="130" y="0" on="0"/>
        <pt x="96" y="0" on="0"/>
        <pt x="71" y="16" on="0"/>
      </contour>
      <contour>
        <pt x="155" y="359" on="1"/>
        <pt x="290" y="359" on="1"/>
        <pt x="353" y="359" on="0"/>
        <pt x="422" y="430" on="0"/>
        <pt x="422" y="501" on="1"/>
        <pt x="422" y="513" on="1"/>
        <pt x="422" y="584" on="0"/>
        <pt x="353" y="655" on="0"/>
        <pt x="290" y="655" on="1"/>
        <pt x="155" y="655" on="1"/>
      </contour>
    </TTGlyph>
    <TTGlyph name="Q" xMin="64" yMin="-109" xMax="495" yMax="731">
      <contour>
        <pt x="64" y="212" on="1"/>
        <pt x="64" y="513" on="1"/>
        <pt x="64" y="626" on="0"/>
        <pt x="181" y="731" on="0"/>
        <pt x="377" y="731" on="0"/>
        <pt x="495" y="626" on="0"/>
        <pt x="495" y="513" on="1"/>
        <pt x="495" y="212" on="1"/>
        <pt x="495" y="108" on="0"/>
        <pt x="395" y="2" on="0"/>
        <pt x="310" y="-4" on="1"/>
        <pt x="310" y="-79" on="1"/>
        <pt x="310" y="-93" on="0"/>
        <pt x="292" y="-109" on="0"/>
        <pt x="268" y="-109" on="0"/>
        <pt x="250" y="-93" on="0"/>
        <pt x="250" y="-79" on="1"/>
        <pt x="250" y="-4" on="1"/>
        <pt x="164" y="2" on="0"/>
        <pt x="64" y="107" on="0"/>
      </contour>
      <contour>
        <pt x="148" y="212" on="1"/>
        <pt x="148" y="90" on="0"/>
        <pt x="250" y="74" on="1"/>
        <pt x="250" y="142" on="1"/>
        <pt x="250" y="156" on="0"/>
        <pt x="268" y="171" on="0"/>
        <pt x="292" y="171" on="0"/>
        <pt x="310" y="156" on="0"/>
        <pt x="310" y="142" on="1"/>
        <pt x="310" y="75" on="1"/>
        <pt x="411" y="89" on="0"/>
        <pt x="411" y="212" on="1"/>
        <pt x="411" y="513" on="1"/>
        <pt x="411" y="584" on="0"/>
        <pt x="342" y="655" on="0"/>
        <pt x="279" y="655" on="1"/>
        <pt x="148" y="655" on="0"/>
        <pt x="148" y="513" on="1"/>
      </contour>
    </TTGlyph>
    <TTGlyph name="R" xMin="71" yMin="-2" xMax="509" yMax="731">
      <contour>
        <pt x="71" y="30" on="1"/>
        <pt x="71" y="702" on="1"/>
        <pt x="71" y="714" on="0"/>
        <pt x="88" y="730" on="0"/>
        <pt x="101" y="731" on="1"/>
        <pt x="284" y="731" on="1"/>
        <pt x="384" y="731" on="0"/>
        <pt x="506" y="638" on="0"/>
        <pt x="506" y="531" on="1"/>
        <pt x="506" y="366" on="0"/>
        <pt x="357" y="336" on="1"/>
        <pt x="505" y="55" on="1"/>
        <pt x="509" y="48" on="0"/>
        <pt x="509" y="41" on="1"/>
        <pt x="509" y="25" on="0"/>
        <pt x="477" y="-2" on="0"/>
        <pt x="459" y="-2" on="1"/>
        <pt x="438" y="-2" on="0"/>
        <pt x="421" y="31" on="1"/>
        <pt x="270" y="324" on="1"/>
        <pt x="155" y="324" on="1"/>
        <pt x="155" y="30" on="1"/>
        <pt x="155" y="16" on="0"/>
        <pt x="130" y="0" on="0"/>
        <pt x="96" y="0" on="0"/>
        <pt x="71" y="16" on="0"/>
      </contour>
      <contour>
        <pt x="155" y="394" on="1"/>
        <pt x="284" y="394" on="1"/>
        <pt x="422" y="394" on="0"/>
        <pt x="422" y="525" on="1"/>
        <pt x="422" y="655" on="0"/>
        <pt x="284" y="655" on="1"/>
        <pt x="155" y="655" on="1"/>
      </contour>
    </TTGlyph>
    <TTGlyph name="Racute" xMin="71" yMin="-2" xMax="509" yMax="955">
      <contour>
        <pt x="71" y="30" on="1"/>
        <pt x="71" y="702" on="1"/>
        <pt x="71" y="714" on="0"/>
        <pt x="88" y="730" on="0"/>
        <pt x="101" y="731" on="1"/>
        <pt x="284" y="731" on="1"/>
        <pt x="384" y="731" on="0"/>
        <pt x="506" y="638" on="0"/>
        <pt x="506" y="531" on="1"/>
        <pt x="506" y="366" on="0"/>
        <pt x="357" y="336" on="1"/>
        <pt x="505" y="55" on="1"/>
        <pt x="509" y="48" on="0"/>
        <pt x="509" y="41" on="1"/>
        <pt x="509" y="25" on="0"/>
        <pt x="477" y="-2" on="0"/>
        <pt x="459" y="-2" on="1"/>
        <pt x="438" y="-2" on="0"/>
        <pt x="421" y="31" on="1"/>
        <pt x="270" y="324" on="1"/>
        <pt x="155" y="324" on="1"/>
        <pt x="155" y="30" on="1"/>
        <pt x="155" y="16" on="0"/>
        <pt x="130" y="0" on="0"/>
        <pt x="96" y="0" on="0"/>
        <pt x="71" y="16" on="0"/>
      </contour>
      <contour>
        <pt x="155" y="394" on="1"/>
        <pt x="284" y="394" on="1"/>
        <pt x="422" y="394" on="0"/>
        <pt x="422" y="525" on="1"/>
        <pt x="422" y="655" on="0"/>
        <pt x="284" y="655" on="1"/>
        <pt x="155" y="655" on="1"/>
      </contour>
      <contour>
        <pt x="214" y="869" on="1"/>
        <pt x="214" y="884" on="0"/>
        <pt x="227" y="891" on="1"/>
        <pt x="344" y="953" on="1"/>
        <pt x="350" y="955" on="0"/>
        <pt x="354" y="955" on="1"/>
        <pt x="366" y="955" on="0"/>
        <pt x="382" y="934" on="0"/>
        <pt x="382" y="921" on="1"/>
        <pt x="382" y="904" on="0"/>
        <pt x="368" y="897" on="1"/>
        <pt x="255" y="839" on="1"/>
        <pt x="247" y="835" on="0"/>
        <pt x="244" y="835" on="1"/>
        <pt x="232" y="835" on="0"/>
        <pt x="214" y="856" on="0"/>
      </contour>
    </TTGlyph>
    <TTGlyph name="Rcaron" xMin="71" yMin="-2" xMax="509" yMax="982">
      <contour>
        <pt x="71" y="30" on="1"/>
        <pt x="71" y="702" on="1"/>
        <pt x="71" y="714" on="0"/>
        <pt x="88" y="730" on="0"/>
        <pt x="101" y="731" on="1"/>
        <pt x="284" y="731" on="1"/>
        <pt x="384" y="731" on="0"/>
        <pt x="506" y="638" on="0"/>
        <pt x="506" y="531" on="1"/>
        <pt x="506" y="366" on="0"/>
        <pt x="357" y="336" on="1"/>
        <pt x="505" y="55" on="1"/>
        <pt x="509" y="48" on="0"/>
        <pt x="509" y="41" on="1"/>
        <pt x="509" y="25" on="0"/>
        <pt x="477" y="-2" on="0"/>
        <pt x="459" y="-2" on="1"/>
        <pt x="438" y="-2" on="0"/>
        <pt x="421" y="31" on="1"/>
        <pt x="270" y="324" on="1"/>
        <pt x="155" y="324" on="1"/>
        <pt x="155" y="30" on="1"/>
        <pt x="155" y="16" on="0"/>
        <pt x="130" y="0" on="0"/>
        <pt x="96" y="0" on="0"/>
        <pt x="71" y="16" on="0"/>
      </contour>
      <contour>
        <pt x="140" y="955" on="1"/>
        <pt x="140" y="965" on="0"/>
        <pt x="152" y="982" on="0"/>
        <pt x="161" y="982" on="1"/>
        <pt x="169" y="982" on="0"/>
        <pt x="175" y="976" on="1"/>
        <pt x="275" y="892" on="1"/>
        <pt x="376" y="976" on="1"/>
        <pt x="381" y="982" on="0"/>
        <pt x="399" y="982" on="0"/>
        <pt x="411" y="965" on="0"/>
        <pt x="411" y="955" on="1"/>
        <pt x="411" y="938" on="0"/>
        <pt x="396" y="928" on="1"/>
        <pt x="295" y="845" on="1"/>
        <pt x="284" y="836" on="0"/>
        <pt x="275" y="836" on="1"/>
        <pt x="265" y="836" on="0"/>
        <pt x="256" y="845" on="1"/>
        <pt x="154" y="928" on="1"/>
        <pt x="140" y="938" on="0"/>
      </contour>
      <contour>
        <pt x="155" y="394" on="1"/>
        <pt x="284" y="394" on="1"/>
        <pt x="422" y="394" on="0"/>
        <pt x="422" y="525" on="1"/>
        <pt x="422" y="655" on="0"/>
        <pt x="284" y="655" on="1"/>
        <pt x="155" y="655" on="1"/>
      </contour>
    </TTGlyph>
    <TTGlyph name="Rcommaaccent" xMin="71" yMin="-168" xMax="509" yMax="731">
      <contour>
        <pt x="71" y="30" on="1"/>
        <pt x="71" y="702" on="1"/>
        <pt x="71" y="714" on="0"/>
        <pt x="88" y="730" on="0"/>
        <pt x="101" y="731" on="1"/>
        <pt x="284" y="731" on="1"/>
        <pt x="384" y="731" on="0"/>
        <pt x="506" y="638" on="0"/>
        <pt x="506" y="531" on="1"/>
        <pt x="506" y="366" on="0"/>
        <pt x="357" y="336" on="1"/>
        <pt x="505" y="55" on="1"/>
        <pt x="509" y="48" on="0"/>
        <pt x="509" y="41" on="1"/>
        <pt x="509" y="25" on="0"/>
        <pt x="477" y="-2" on="0"/>
        <pt x="459" y="-2" on="1"/>
        <pt x="438" y="-2" on="0"/>
        <pt x="421" y="31" on="1"/>
        <pt x="270" y="324" on="1"/>
        <pt x="155" y="324" on="1"/>
        <pt x="155" y="30" on="1"/>
        <pt x="155" y="16" on="0"/>
        <pt x="130" y="0" on="0"/>
        <pt x="96" y="0" on="0"/>
        <pt x="71" y="16" on="0"/>
      </contour>
      <contour>
        <pt x="155" y="394" on="1"/>
        <pt x="284" y="394" on="1"/>
        <pt x="422" y="394" on="0"/>
        <pt x="422" y="525" on="1"/>
        <pt x="422" y="655" on="0"/>
        <pt x="284" y="655" on="1"/>
        <pt x="155" y="655" on="1"/>
      </contour>
      <contour>
        <pt x="177" y="-134" on="1"/>
        <pt x="177" y="-119" on="0"/>
        <pt x="190" y="-112" on="1"/>
        <pt x="307" y="-50" on="1"/>
        <pt x="315" y="-48" on="0"/>
        <pt x="317" y="-48" on="1"/>
        <pt x="329" y="-48" on="0"/>
        <pt x="346" y="-69" on="0"/>
        <pt x="346" y="-82" on="1"/>
        <pt x="346" y="-98" on="0"/>
        <pt x="332" y="-106" on="1"/>
        <pt x="219" y="-165" on="1"/>
        <pt x="213" y="-168" on="0"/>
        <pt x="207" y="-168" on="1"/>
        <pt x="195" y="-168" on="0"/>
        <pt x="177" y="-147" on="0"/>
      </contour>
    </TTGlyph>
    <TTGlyph name="S" xMin="33" yMin="-8" xMax="464" yMax="733">
      <contour>
        <pt x="33" y="105" on="1"/>
        <pt x="33" y="121" on="0"/>
        <pt x="56" y="151" on="0"/>
        <pt x="70" y="151" on="1"/>
        <pt x="79" y="151" on="0"/>
        <pt x="107" y="126" on="0"/>
        <pt x="137" y="95" on="0"/>
        <pt x="201" y="70" on="0"/>
        <pt x="241" y="70" on="1"/>
        <pt x="306" y="70" on="0"/>
        <pt x="380" y="133" on="0"/>
        <pt x="380" y="194" on="1"/>
        <pt x="380" y="249" on="0"/>
        <pt x="312" y="318" on="0"/>
        <pt x="216" y="354" on="0"/>
        <pt x="119" y="395" on="0"/>
        <pt x="51" y="480" on="0"/>
        <pt x="51" y="547" on="1"/>
        <pt x="51" y="599" on="0"/>
        <pt x="91" y="676" on="0"/>
        <pt x="158" y="715" on="0"/>
        <pt x="230" y="733" on="0"/>
        <pt x="271" y="733" on="1"/>
        <pt x="333" y="733" on="0"/>
        <pt x="446" y="698" on="0"/>
        <pt x="446" y="667" on="1"/>
        <pt x="446" y="653" on="0"/>
        <pt x="426" y="621" on="0"/>
        <pt x="410" y="621" on="1"/>
        <pt x="406" y="621" on="0"/>
        <pt x="322" y="659" on="0"/>
        <pt x="271" y="659" on="1"/>
        <pt x="210" y="659" on="0"/>
        <pt x="135" y="609" on="0"/>
        <pt x="135" y="555" on="1"/>
        <pt x="135" y="509" on="0"/>
        <pt x="203" y="452" on="0"/>
        <pt x="300" y="418" on="0"/>
        <pt x="396" y="374" on="0"/>
        <pt x="464" y="277" on="0"/>
        <pt x="464" y="202" on="1"/>
        <pt x="464" y="98" on="0"/>
        <pt x="344" y="-8" on="0"/>
        <pt x="245" y="-8" on="1"/>
        <pt x="156" y="-8" on="0"/>
        <pt x="33" y="68" on="0"/>
      </contour>
    </TTGlyph>
    <TTGlyph name="Sacute" xMin="33" yMin="-8" xMax="464" yMax="955">
      <contour>
        <pt x="33" y="105" on="1"/>
        <pt x="33" y="121" on="0"/>
        <pt x="56" y="151" on="0"/>
        <pt x="70" y="151" on="1"/>
        <pt x="79" y="151" on="0"/>
        <pt x="107" y="126" on="0"/>
        <pt x="137" y="95" on="0"/>
        <pt x="201" y="70" on="0"/>
        <pt x="241" y="70" on="1"/>
        <pt x="306" y="70" on="0"/>
        <pt x="380" y="133" on="0"/>
        <pt x="380" y="194" on="1"/>
        <pt x="380" y="249" on="0"/>
        <pt x="312" y="318" on="0"/>
        <pt x="216" y="354" on="0"/>
        <pt x="119" y="395" on="0"/>
        <pt x="51" y="480" on="0"/>
        <pt x="51" y="547" on="1"/>
        <pt x="51" y="599" on="0"/>
        <pt x="91" y="676" on="0"/>
        <pt x="158" y="715" on="0"/>
        <pt x="230" y="733" on="0"/>
        <pt x="271" y="733" on="1"/>
        <pt x="333" y="733" on="0"/>
        <pt x="446" y="698" on="0"/>
        <pt x="446" y="667" on="1"/>
        <pt x="446" y="653" on="0"/>
        <pt x="426" y="621" on="0"/>
        <pt x="410" y="621" on="1"/>
        <pt x="406" y="621" on="0"/>
        <pt x="322" y="659" on="0"/>
        <pt x="271" y="659" on="1"/>
        <pt x="210" y="659" on="0"/>
        <pt x="135" y="609" on="0"/>
        <pt x="135" y="555" on="1"/>
        <pt x="135" y="509" on="0"/>
        <pt x="203" y="452" on="0"/>
        <pt x="300" y="418" on="0"/>
        <pt x="396" y="374" on="0"/>
        <pt x="464" y="277" on="0"/>
        <pt x="464" y="202" on="1"/>
        <pt x="464" y="98" on="0"/>
        <pt x="344" y="-8" on="0"/>
        <pt x="245" y="-8" on="1"/>
        <pt x="156" y="-8" on="0"/>
        <pt x="33" y="68" on="0"/>
      </contour>
      <contour>
        <pt x="174" y="869" on="1"/>
        <pt x="174" y="884" on="0"/>
        <pt x="187" y="891" on="1"/>
        <pt x="304" y="953" on="1"/>
        <pt x="310" y="955" on="0"/>
        <pt x="314" y="955" on="1"/>
        <pt x="326" y="955" on="0"/>
        <pt x="342" y="934" on="0"/>
        <pt x="342" y="921" on="1"/>
        <pt x="342" y="904" on="0"/>
        <pt x="328" y="897" on="1"/>
        <pt x="215" y="839" on="1"/>
        <pt x="207" y="835" on="0"/>
        <pt x="204" y="835" on="1"/>
        <pt x="192" y="835" on="0"/>
        <pt x="174" y="856" on="0"/>
      </contour>
    </TTGlyph>
    <TTGlyph name="Scaron" xMin="33" yMin="-8" xMax="464" yMax="982">
      <contour>
        <pt x="33" y="105" on="1"/>
        <pt x="33" y="121" on="0"/>
        <pt x="56" y="151" on="0"/>
        <pt x="70" y="151" on="1"/>
        <pt x="79" y="151" on="0"/>
        <pt x="107" y="126" on="0"/>
        <pt x="137" y="95" on="0"/>
        <pt x="201" y="70" on="0"/>
        <pt x="241" y="70" on="1"/>
        <pt x="306" y="70" on="0"/>
        <pt x="380" y="133" on="0"/>
        <pt x="380" y="194" on="1"/>
        <pt x="380" y="249" on="0"/>
        <pt x="312" y="318" on="0"/>
        <pt x="216" y="354" on="0"/>
        <pt x="119" y="395" on="0"/>
        <pt x="51" y="480" on="0"/>
        <pt x="51" y="547" on="1"/>
        <pt x="51" y="599" on="0"/>
        <pt x="91" y="676" on="0"/>
        <pt x="158" y="715" on="0"/>
        <pt x="230" y="733" on="0"/>
        <pt x="271" y="733" on="1"/>
        <pt x="333" y="733" on="0"/>
        <pt x="446" y="698" on="0"/>
        <pt x="446" y="667" on="1"/>
        <pt x="446" y="653" on="0"/>
        <pt x="426" y="621" on="0"/>
        <pt x="410" y="621" on="1"/>
        <pt x="406" y="621" on="0"/>
        <pt x="322" y="659" on="0"/>
        <pt x="271" y="659" on="1"/>
        <pt x="210" y="659" on="0"/>
        <pt x="135" y="609" on="0"/>
        <pt x="135" y="555" on="1"/>
        <pt x="135" y="509" on="0"/>
        <pt x="203" y="452" on="0"/>
        <pt x="300" y="418" on="0"/>
        <pt x="396" y="374" on="0"/>
        <pt x="464" y="277" on="0"/>
        <pt x="464" y="202" on="1"/>
        <pt x="464" y="98" on="0"/>
        <pt x="344" y="-8" on="0"/>
        <pt x="245" y="-8" on="1"/>
        <pt x="156" y="-8" on="0"/>
        <pt x="33" y="68" on="0"/>
      </contour>
      <contour>
        <pt x="112" y="955" on="1"/>
        <pt x="112" y="965" on="0"/>
        <pt x="124" y="982" on="0"/>
        <pt x="133" y="982" on="1"/>
        <pt x="141" y="982" on="0"/>
        <pt x="147" y="976" on="1"/>
        <pt x="247" y="892" on="1"/>
        <pt x="348" y="976" on="1"/>
        <pt x="353" y="982" on="0"/>
        <pt x="371" y="982" on="0"/>
        <pt x="383" y="965" on="0"/>
        <pt x="383" y="955" on="1"/>
        <pt x="383" y="938" on="0"/>
        <pt x="368" y="928" on="1"/>
        <pt x="267" y="845" on="1"/>
        <pt x="256" y="836" on="0"/>
        <pt x="247" y="836" on="1"/>
        <pt x="237" y="836" on="0"/>
        <pt x="228" y="845" on="1"/>
        <pt x="126" y="928" on="1"/>
        <pt x="112" y="938" on="0"/>
      </contour>
    </TTGlyph>
    <TTGlyph name="Scedilla" xMin="33" yMin="-212" xMax="464" yMax="733">
      <contour>
        <pt x="33" y="105" on="1"/>
        <pt x="33" y="121" on="0"/>
        <pt x="56" y="151" on="0"/>
        <pt x="70" y="151" on="1"/>
        <pt x="79" y="151" on="0"/>
        <pt x="107" y="126" on="0"/>
        <pt x="137" y="95" on="0"/>
        <pt x="201" y="70" on="0"/>
        <pt x="241" y="70" on="1"/>
        <pt x="306" y="70" on="0"/>
        <pt x="380" y="133" on="0"/>
        <pt x="380" y="194" on="1"/>
        <pt x="380" y="249" on="0"/>
        <pt x="312" y="318" on="0"/>
        <pt x="216" y="354" on="0"/>
        <pt x="119" y="395" on="0"/>
        <pt x="51" y="480" on="0"/>
        <pt x="51" y="547" on="1"/>
        <pt x="51" y="599" on="0"/>
        <pt x="91" y="676" on="0"/>
        <pt x="158" y="715" on="0"/>
        <pt x="230" y="733" on="0"/>
        <pt x="271" y="733" on="1"/>
        <pt x="333" y="733" on="0"/>
        <pt x="446" y="698" on="0"/>
        <pt x="446" y="667" on="1"/>
        <pt x="446" y="653" on="0"/>
        <pt x="426" y="621" on="0"/>
        <pt x="410" y="621" on="1"/>
        <pt x="406" y="621" on="0"/>
        <pt x="322" y="659" on="0"/>
        <pt x="271" y="659" on="1"/>
        <pt x="210" y="659" on="0"/>
        <pt x="135" y="609" on="0"/>
        <pt x="135" y="555" on="1"/>
        <pt x="135" y="509" on="0"/>
        <pt x="203" y="452" on="0"/>
        <pt x="300" y="418" on="0"/>
        <pt x="396" y="374" on="0"/>
        <pt x="464" y="277" on="0"/>
        <pt x="464" y="202" on="1"/>
        <pt x="464" y="111" on="0"/>
        <pt x="371" y="7" on="0"/>
        <pt x="291" y="-5" on="1"/>
        <pt x="277" y="-58" on="1"/>
        <pt x="325" y="-59" on="0"/>
        <pt x="373" y="-101" on="0"/>
        <pt x="373" y="-131" on="1"/>
        <pt x="373" y="-163" on="0"/>
        <pt x="326" y="-212" on="0"/>
        <pt x="280" y="-212" on="1"/>
        <pt x="253" y="-212" on="0"/>
        <pt x="200" y="-198" on="0"/>
        <pt x="200" y="-185" on="1"/>
        <pt x="200" y="-178" on="0"/>
        <pt x="210" y="-157" on="0"/>
        <pt x="218" y="-157" on="1"/>
        <pt x="220" y="-157" on="0"/>
        <pt x="255" y="-171" on="0"/>
        <pt x="274" y="-171" on="1"/>
        <pt x="326" y="-171" on="0"/>
        <pt x="326" y="-134" on="1"/>
        <pt x="326" y="-98" on="0"/>
        <pt x="267" y="-93" on="1"/>
        <pt x="224" y="-90" on="1"/>
        <pt x="245" y="-8" on="1"/>
        <pt x="156" y="-8" on="0"/>
        <pt x="33" y="68" on="0"/>
      </contour>
    </TTGlyph>
    <TTGlyph name="Scircumflex" xMin="33" yMin="-8" xMax="464" yMax="955">
      <contour>
        <pt x="33" y="105" on="1"/>
        <pt x="33" y="121" on="0"/>
        <pt x="56" y="151" on="0"/>
        <pt x="70" y="151" on="1"/>
        <pt x="79" y="151" on="0"/>
        <pt x="107" y="126" on="0"/>
        <pt x="137" y="95" on="0"/>
        <pt x="201" y="70" on="0"/>
        <pt x="241" y="70" on="1"/>
        <pt x="306" y="70" on="0"/>
        <pt x="380" y="133" on="0"/>
        <pt x="380" y="194" on="1"/>
        <pt x="380" y="249" on="0"/>
        <pt x="312" y="318" on="0"/>
        <pt x="216" y="354" on="0"/>
        <pt x="119" y="395" on="0"/>
        <pt x="51" y="480" on="0"/>
        <pt x="51" y="547" on="1"/>
        <pt x="51" y="599" on="0"/>
        <pt x="91" y="676" on="0"/>
        <pt x="158" y="715" on="0"/>
        <pt x="230" y="733" on="0"/>
        <pt x="271" y="733" on="1"/>
        <pt x="333" y="733" on="0"/>
        <pt x="446" y="698" on="0"/>
        <pt x="446" y="667" on="1"/>
        <pt x="446" y="653" on="0"/>
        <pt x="426" y="621" on="0"/>
        <pt x="410" y="621" on="1"/>
        <pt x="406" y="621" on="0"/>
        <pt x="322" y="659" on="0"/>
        <pt x="271" y="659" on="1"/>
        <pt x="210" y="659" on="0"/>
        <pt x="135" y="609" on="0"/>
        <pt x="135" y="555" on="1"/>
        <pt x="135" y="509" on="0"/>
        <pt x="203" y="452" on="0"/>
        <pt x="300" y="418" on="0"/>
        <pt x="396" y="374" on="0"/>
        <pt x="464" y="277" on="0"/>
        <pt x="464" y="202" on="1"/>
        <pt x="464" y="98" on="0"/>
        <pt x="344" y="-8" on="0"/>
        <pt x="245" y="-8" on="1"/>
        <pt x="156" y="-8" on="0"/>
        <pt x="33" y="68" on="0"/>
      </contour>
      <contour>
        <pt x="111" y="868" on="1"/>
        <pt x="111" y="886" on="0"/>
        <pt x="126" y="894" on="1"/>
        <pt x="230" y="950" on="1"/>
        <pt x="240" y="955" on="0"/>
        <pt x="247" y="955" on="1"/>
        <pt x="256" y="955" on="0"/>
        <pt x="264" y="950" on="1"/>
        <pt x="368" y="895" on="1"/>
        <pt x="384" y="886" on="0"/>
        <pt x="384" y="867" on="1"/>
        <pt x="384" y="856" on="0"/>
        <pt x="370" y="839" on="0"/>
        <pt x="361" y="839" on="1"/>
        <pt x="359" y="839" on="0"/>
        <pt x="355" y="840" on="1"/>
        <pt x="353" y="842" on="0"/>
        <pt x="351" y="842" on="1"/>
        <pt x="247" y="898" on="1"/>
        <pt x="143" y="842" on="1"/>
        <pt x="138" y="839" on="0"/>
        <pt x="134" y="839" on="1"/>
        <pt x="125" y="839" on="0"/>
        <pt x="111" y="857" on="0"/>
      </contour>
    </TTGlyph>
    <TTGlyph name="Scommaaccent" xMin="33" yMin="-168" xMax="464" yMax="733">
      <contour>
        <pt x="33" y="105" on="1"/>
        <pt x="33" y="121" on="0"/>
        <pt x="56" y="151" on="0"/>
        <pt x="70" y="151" on="1"/>
        <pt x="79" y="151" on="0"/>
        <pt x="107" y="126" on="0"/>
        <pt x="137" y="95" on="0"/>
        <pt x="201" y="70" on="0"/>
        <pt x="241" y="70" on="1"/>
        <pt x="306" y="70" on="0"/>
        <pt x="380" y="133" on="0"/>
        <pt x="380" y="194" on="1"/>
        <pt x="380" y="249" on="0"/>
        <pt x="312" y="318" on="0"/>
        <pt x="216" y="354" on="0"/>
        <pt x="119" y="395" on="0"/>
        <pt x="51" y="480" on="0"/>
        <pt x="51" y="547" on="1"/>
        <pt x="51" y="599" on="0"/>
        <pt x="91" y="676" on="0"/>
        <pt x="158" y="715" on="0"/>
        <pt x="230" y="733" on="0"/>
        <pt x="271" y="733" on="1"/>
        <pt x="333" y="733" on="0"/>
        <pt x="446" y="698" on="0"/>
        <pt x="446" y="667" on="1"/>
        <pt x="446" y="653" on="0"/>
        <pt x="426" y="621" on="0"/>
        <pt x="410" y="621" on="1"/>
        <pt x="406" y="621" on="0"/>
        <pt x="322" y="659" on="0"/>
        <pt x="271" y="659" on="1"/>
        <pt x="210" y="659" on="0"/>
        <pt x="135" y="609" on="0"/>
        <pt x="135" y="555" on="1"/>
        <pt x="135" y="509" on="0"/>
        <pt x="203" y="452" on="0"/>
        <pt x="300" y="418" on="0"/>
        <pt x="396" y="374" on="0"/>
        <pt x="464" y="277" on="0"/>
        <pt x="464" y="202" on="1"/>
        <pt x="464" y="98" on="0"/>
        <pt x="344" y="-8" on="0"/>
        <pt x="245" y="-8" on="1"/>
        <pt x="156" y="-8" on="0"/>
        <pt x="33" y="68" on="0"/>
      </contour>
      <contour>
        <pt x="177" y="-134" on="1"/>
        <pt x="177" y="-119" on="0"/>
        <pt x="190" y="-112" on="1"/>
        <pt x="307" y="-50" on="1"/>
        <pt x="315" y="-48" on="0"/>
        <pt x="317" y="-48" on="1"/>
        <pt x="329" y="-48" on="0"/>
        <pt x="346" y="-69" on="0"/>
        <pt x="346" y="-82" on="1"/>
        <pt x="346" y="-98" on="0"/>
        <pt x="332" y="-106" on="1"/>
        <pt x="219" y="-165" on="1"/>
        <pt x="213" y="-168" on="0"/>
        <pt x="207" y="-168" on="1"/>
        <pt x="195" y="-168" on="0"/>
        <pt x="177" y="-147" on="0"/>
      </contour>
    </TTGlyph>
    <TTGlyph name="T" xMin="13" yMin="0" xMax="480" yMax="731">
      <contour>
        <pt x="13" y="693" on="1"/>
        <pt x="13" y="708" on="0"/>
        <pt x="29" y="731" on="0"/>
        <pt x="43" y="731" on="1"/>
        <pt x="450" y="731" on="1"/>
        <pt x="464" y="731" on="0"/>
        <pt x="480" y="708" on="0"/>
        <pt x="480" y="693" on="1"/>
        <pt x="480" y="677" on="0"/>
        <pt x="464" y="653" on="0"/>
        <pt x="450" y="653" on="1"/>
        <pt x="289" y="653" on="1"/>
        <pt x="289" y="30" on="1"/>
        <pt x="289" y="16" on="0"/>
        <pt x="264" y="0" on="0"/>
        <pt x="230" y="0" on="0"/>
        <pt x="205" y="16" on="0"/>
        <pt x="205" y="30" on="1"/>
        <pt x="205" y="653" on="1"/>
        <pt x="43" y="653" on="1"/>
        <pt x="29" y="653" on="0"/>
        <pt x="13" y="676" on="0"/>
      </contour>
    </TTGlyph>
    <TTGlyph name="Tbar" xMin="14" yMin="0" xMax="481" yMax="731">
      <contour>
        <pt x="14" y="693" on="1"/>
        <pt x="14" y="708" on="0"/>
        <pt x="30" y="731" on="0"/>
        <pt x="44" y="731" on="1"/>
        <pt x="451" y="731" on="1"/>
        <pt x="465" y="731" on="0"/>
        <pt x="481" y="708" on="0"/>
        <pt x="481" y="693" on="1"/>
        <pt x="481" y="677" on="0"/>
        <pt x="465" y="653" on="0"/>
        <pt x="451" y="653" on="1"/>
        <pt x="290" y="653" on="1"/>
        <pt x="290" y="398" on="1"/>
        <pt x="405" y="398" on="1"/>
        <pt x="417" y="398" on="0"/>
        <pt x="431" y="379" on="0"/>
        <pt x="431" y="366" on="1"/>
        <pt x="431" y="352" on="0"/>
        <pt x="417" y="332" on="0"/>
        <pt x="405" y="332" on="1"/>
        <pt x="290" y="332" on="1"/>
        <pt x="290" y="30" on="1"/>
        <pt x="290" y="16" on="0"/>
        <pt x="265" y="0" on="0"/>
        <pt x="231" y="0" on="0"/>
        <pt x="206" y="16" on="0"/>
        <pt x="206" y="30" on="1"/>
        <pt x="206" y="332" on="1"/>
        <pt x="90" y="332" on="1"/>
        <pt x="78" y="332" on="0"/>
        <pt x="64" y="351" on="0"/>
        <pt x="64" y="365" on="1"/>
        <pt x="64" y="378" on="0"/>
        <pt x="78" y="398" on="0"/>
        <pt x="90" y="398" on="1"/>
        <pt x="206" y="398" on="1"/>
        <pt x="206" y="653" on="1"/>
        <pt x="44" y="653" on="1"/>
        <pt x="30" y="653" on="0"/>
        <pt x="14" y="676" on="0"/>
      </contour>
    </TTGlyph>
    <TTGlyph name="Tcaron" xMin="13" yMin="0" xMax="480" yMax="982">
      <contour>
        <pt x="13" y="693" on="1"/>
        <pt x="13" y="708" on="0"/>
        <pt x="29" y="731" on="0"/>
        <pt x="43" y="731" on="1"/>
        <pt x="450" y="731" on="1"/>
        <pt x="464" y="731" on="0"/>
        <pt x="480" y="708" on="0"/>
        <pt x="480" y="693" on="1"/>
        <pt x="480" y="677" on="0"/>
        <pt x="464" y="653" on="0"/>
        <pt x="450" y="653" on="1"/>
        <pt x="289" y="653" on="1"/>
        <pt x="289" y="30" on="1"/>
        <pt x="289" y="16" on="0"/>
        <pt x="264" y="0" on="0"/>
        <pt x="230" y="0" on="0"/>
        <pt x="205" y="16" on="0"/>
        <pt x="205" y="30" on="1"/>
        <pt x="205" y="653" on="1"/>
        <pt x="43" y="653" on="1"/>
        <pt x="29" y="653" on="0"/>
        <pt x="13" y="676" on="0"/>
      </contour>
      <contour>
        <pt x="110" y="955" on="1"/>
        <pt x="110" y="965" on="0"/>
        <pt x="122" y="982" on="0"/>
        <pt x="131" y="982" on="1"/>
        <pt x="139" y="982" on="0"/>
        <pt x="145" y="976" on="1"/>
        <pt x="245" y="892" on="1"/>
        <pt x="346" y="976" on="1"/>
        <pt x="351" y="982" on="0"/>
        <pt x="369" y="982" on="0"/>
        <pt x="381" y="965" on="0"/>
        <pt x="381" y="955" on="1"/>
        <pt x="381" y="938" on="0"/>
        <pt x="366" y="928" on="1"/>
        <pt x="265" y="845" on="1"/>
        <pt x="254" y="836" on="0"/>
        <pt x="245" y="836" on="1"/>
        <pt x="235" y="836" on="0"/>
        <pt x="226" y="845" on="1"/>
        <pt x="124" y="928" on="1"/>
        <pt x="110" y="938" on="0"/>
      </contour>
    </TTGlyph>
    <TTGlyph name="Tcommaaccent" xMin="13" yMin="-168" xMax="480" yMax="731">
      <contour>
        <pt x="13" y="693" on="1"/>
        <pt x="13" y="708" on="0"/>
        <pt x="29" y="731" on="0"/>
        <pt x="43" y="731" on="1"/>
        <pt x="450" y="731" on="1"/>
        <pt x="464" y="731" on="0"/>
        <pt x="480" y="708" on="0"/>
        <pt x="480" y="693" on="1"/>
        <pt x="480" y="677" on="0"/>
        <pt x="464" y="653" on="0"/>
        <pt x="450" y="653" on="1"/>
        <pt x="289" y="653" on="1"/>
        <pt x="289" y="30" on="1"/>
        <pt x="289" y="16" on="0"/>
        <pt x="264" y="0" on="0"/>
        <pt x="230" y="0" on="0"/>
        <pt x="205" y="16" on="0"/>
        <pt x="205" y="30" on="1"/>
        <pt x="205" y="653" on="1"/>
        <pt x="43" y="653" on="1"/>
        <pt x="29" y="653" on="0"/>
        <pt x="13" y="676" on="0"/>
      </contour>
      <contour>
        <pt x="160" y="-134" on="1"/>
        <pt x="160" y="-119" on="0"/>
        <pt x="173" y="-112" on="1"/>
        <pt x="290" y="-50" on="1"/>
        <pt x="298" y="-48" on="0"/>
        <pt x="300" y="-48" on="1"/>
        <pt x="312" y="-48" on="0"/>
        <pt x="329" y="-69" on="0"/>
        <pt x="329" y="-82" on="1"/>
        <pt x="329" y="-98" on="0"/>
        <pt x="315" y="-106" on="1"/>
        <pt x="202" y="-165" on="1"/>
        <pt x="196" y="-168" on="0"/>
        <pt x="190" y="-168" on="1"/>
        <pt x="178" y="-168" on="0"/>
        <pt x="160" y="-147" on="0"/>
      </contour>
    </TTGlyph>
    <TTGlyph name="Thorn" xMin="71" yMin="0" xMax="464" yMax="738">
      <contour>
        <pt x="71" y="30" on="1"/>
        <pt x="71" y="709" on="1"/>
        <pt x="71" y="722" on="0"/>
        <pt x="94" y="738" on="0"/>
        <pt x="111" y="738" on="1"/>
        <pt x="130" y="738" on="0"/>
        <pt x="154" y="722" on="0"/>
        <pt x="154" y="709" on="1"/>
        <pt x="154" y="544" on="1"/>
        <pt x="198" y="620" on="0"/>
        <pt x="290" y="620" on="1"/>
        <pt x="362" y="620" on="0"/>
        <pt x="464" y="525" on="0"/>
        <pt x="464" y="449" on="1"/>
        <pt x="464" y="306" on="1"/>
        <pt x="464" y="232" on="0"/>
        <pt x="361" y="133" on="0"/>
        <pt x="295" y="133" on="1"/>
        <pt x="249" y="133" on="0"/>
        <pt x="168" y="179" on="0"/>
        <pt x="154" y="212" on="1"/>
        <pt x="154" y="30" on="1"/>
        <pt x="154" y="18" on="0"/>
        <pt x="130" y="0" on="0"/>
        <pt x="96" y="0" on="0"/>
        <pt x="71" y="18" on="0"/>
      </contour>
      <contour>
        <pt x="154" y="301" on="1"/>
        <pt x="154" y="269" on="0"/>
        <pt x="223" y="208" on="0"/>
        <pt x="271" y="208" on="1"/>
        <pt x="315" y="208" on="0"/>
        <pt x="381" y="262" on="0"/>
        <pt x="381" y="306" on="1"/>
        <pt x="381" y="449" on="1"/>
        <pt x="381" y="492" on="0"/>
        <pt x="316" y="545" on="0"/>
        <pt x="271" y="545" on="1"/>
        <pt x="224" y="545" on="0"/>
        <pt x="154" y="491" on="0"/>
        <pt x="154" y="449" on="1"/>
      </contour>
    </TTGlyph>
    <TTGlyph name="U" xMin="68" yMin="-6" xMax="505" yMax="731">
      <contour>
        <pt x="68" y="212" on="1"/>
        <pt x="68" y="702" on="1"/>
        <pt x="68" y="716" on="0"/>
        <pt x="93" y="731" on="0"/>
        <pt x="127" y="731" on="0"/>
        <pt x="152" y="716" on="0"/>
        <pt x="152" y="702" on="1"/>
        <pt x="152" y="212" on="1"/>
        <pt x="152" y="70" on="0"/>
        <pt x="286" y="70" on="1"/>
        <pt x="351" y="70" on="0"/>
        <pt x="421" y="141" on="0"/>
        <pt x="421" y="212" on="1"/>
        <pt x="421" y="702" on="1"/>
        <pt x="421" y="731" on="0"/>
        <pt x="463" y="731" on="1"/>
        <pt x="480" y="731" on="0"/>
        <pt x="505" y="716" on="0"/>
        <pt x="505" y="702" on="1"/>
        <pt x="505" y="212" on="1"/>
        <pt x="505" y="99" on="0"/>
        <pt x="385" y="-6" on="0"/>
        <pt x="187" y="-6" on="0"/>
        <pt x="68" y="99" on="0"/>
      </contour>
    </TTGlyph>
    <TTGlyph name="Uacute" xMin="68" yMin="-6" xMax="505" yMax="955">
      <contour>
        <pt x="68" y="212" on="1"/>
        <pt x="68" y="702" on="1"/>
        <pt x="68" y="716" on="0"/>
        <pt x="93" y="731" on="0"/>
        <pt x="127" y="731" on="0"/>
        <pt x="152" y="716" on="0"/>
        <pt x="152" y="702" on="1"/>
        <pt x="152" y="212" on="1"/>
        <pt x="152" y="70" on="0"/>
        <pt x="286" y="70" on="1"/>
        <pt x="351" y="70" on="0"/>
        <pt x="421" y="141" on="0"/>
        <pt x="421" y="212" on="1"/>
        <pt x="421" y="702" on="1"/>
        <pt x="421" y="731" on="0"/>
        <pt x="463" y="731" on="1"/>
        <pt x="480" y="731" on="0"/>
        <pt x="505" y="716" on="0"/>
        <pt x="505" y="702" on="1"/>
        <pt x="505" y="212" on="1"/>
        <pt x="505" y="99" on="0"/>
        <pt x="385" y="-6" on="0"/>
        <pt x="187" y="-6" on="0"/>
        <pt x="68" y="99" on="0"/>
      </contour>
      <contour>
        <pt x="213" y="869" on="1"/>
        <pt x="213" y="884" on="0"/>
        <pt x="226" y="891" on="1"/>
        <pt x="343" y="953" on="1"/>
        <pt x="349" y="955" on="0"/>
        <pt x="353" y="955" on="1"/>
        <pt x="365" y="955" on="0"/>
        <pt x="381" y="934" on="0"/>
        <pt x="381" y="921" on="1"/>
        <pt x="381" y="904" on="0"/>
        <pt x="367" y="897" on="1"/>
        <pt x="254" y="839" on="1"/>
        <pt x="246" y="835" on="0"/>
        <pt x="243" y="835" on="1"/>
        <pt x="231" y="835" on="0"/>
        <pt x="213" y="856" on="0"/>
      </contour>
    </TTGlyph>
    <TTGlyph name="Ubreve" xMin="68" yMin="-6" xMax="505" yMax="967">
      <contour>
        <pt x="68" y="212" on="1"/>
        <pt x="68" y="702" on="1"/>
        <pt x="68" y="716" on="0"/>
        <pt x="93" y="731" on="0"/>
        <pt x="127" y="731" on="0"/>
        <pt x="152" y="716" on="0"/>
        <pt x="152" y="702" on="1"/>
        <pt x="152" y="212" on="1"/>
        <pt x="152" y="70" on="0"/>
        <pt x="286" y="70" on="1"/>
        <pt x="351" y="70" on="0"/>
        <pt x="421" y="141" on="0"/>
        <pt x="421" y="212" on="1"/>
        <pt x="421" y="702" on="1"/>
        <pt x="421" y="731" on="0"/>
        <pt x="463" y="731" on="1"/>
        <pt x="480" y="731" on="0"/>
        <pt x="505" y="716" on="0"/>
        <pt x="505" y="702" on="1"/>
        <pt x="505" y="212" on="1"/>
        <pt x="505" y="99" on="0"/>
        <pt x="385" y="-6" on="0"/>
        <pt x="187" y="-6" on="0"/>
        <pt x="68" y="99" on="0"/>
      </contour>
      <contour>
        <pt x="163" y="967" on="1"/>
        <pt x="214" y="967" on="1"/>
        <pt x="214" y="934" on="0"/>
        <pt x="256" y="888" on="0"/>
        <pt x="312" y="888" on="0"/>
        <pt x="354" y="934" on="0"/>
        <pt x="354" y="967" on="1"/>
        <pt x="405" y="967" on="1"/>
        <pt x="405" y="919" on="0"/>
        <pt x="332" y="846" on="0"/>
        <pt x="236" y="846" on="0"/>
        <pt x="163" y="919" on="0"/>
      </contour>
    </TTGlyph>
    <TTGlyph name="Ucircumflex" xMin="68" yMin="-6" xMax="505" yMax="955">
      <contour>
        <pt x="68" y="212" on="1"/>
        <pt x="68" y="702" on="1"/>
        <pt x="68" y="716" on="0"/>
        <pt x="93" y="731" on="0"/>
        <pt x="127" y="731" on="0"/>
        <pt x="152" y="716" on="0"/>
        <pt x="152" y="702" on="1"/>
        <pt x="152" y="212" on="1"/>
        <pt x="152" y="70" on="0"/>
        <pt x="286" y="70" on="1"/>
        <pt x="351" y="70" on="0"/>
        <pt x="421" y="141" on="0"/>
        <pt x="421" y="212" on="1"/>
        <pt x="421" y="702" on="1"/>
        <pt x="421" y="731" on="0"/>
        <pt x="463" y="731" on="1"/>
        <pt x="480" y="731" on="0"/>
        <pt x="505" y="716" on="0"/>
        <pt x="505" y="702" on="1"/>
        <pt x="505" y="212" on="1"/>
        <pt x="505" y="99" on="0"/>
        <pt x="385" y="-6" on="0"/>
        <pt x="187" y="-6" on="0"/>
        <pt x="68" y="99" on="0"/>
      </contour>
      <contour>
        <pt x="147" y="868" on="1"/>
        <pt x="147" y="886" on="0"/>
        <pt x="162" y="894" on="1"/>
        <pt x="266" y="950" on="1"/>
        <pt x="276" y="955" on="0"/>
        <pt x="283" y="955" on="1"/>
        <pt x="292" y="955" on="0"/>
        <pt x="300" y="950" on="1"/>
        <pt x="404" y="895" on="1"/>
        <pt x="420" y="886" on="0"/>
        <pt x="420" y="867" on="1"/>
        <pt x="420" y="856" on="0"/>
        <pt x="406" y="839" on="0"/>
        <pt x="397" y="839" on="1"/>
        <pt x="395" y="839" on="0"/>
        <pt x="391" y="840" on="1"/>
        <pt x="389" y="842" on="0"/>
        <pt x="387" y="842" on="1"/>
        <pt x="283" y="898" on="1"/>
        <pt x="179" y="842" on="1"/>
        <pt x="174" y="839" on="0"/>
        <pt x="170" y="839" on="1"/>
        <pt x="161" y="839" on="0"/>
        <pt x="147" y="857" on="0"/>
      </contour>
    </TTGlyph>
    <TTGlyph name="Udieresis" xMin="68" yMin="-6" xMax="505" yMax="922">
      <contour>
        <pt x="68" y="212" on="1"/>
        <pt x="68" y="702" on="1"/>
        <pt x="68" y="716" on="0"/>
        <pt x="93" y="731" on="0"/>
        <pt x="127" y="731" on="0"/>
        <pt x="152" y="716" on="0"/>
        <pt x="152" y="702" on="1"/>
        <pt x="152" y="212" on="1"/>
        <pt x="152" y="70" on="0"/>
        <pt x="286" y="70" on="1"/>
        <pt x="351" y="70" on="0"/>
        <pt x="421" y="141" on="0"/>
        <pt x="421" y="212" on="1"/>
        <pt x="421" y="702" on="1"/>
        <pt x="421" y="731" on="0"/>
        <pt x="463" y="731" on="1"/>
        <pt x="480" y="731" on="0"/>
        <pt x="505" y="716" on="0"/>
        <pt x="505" y="702" on="1"/>
        <pt x="505" y="212" on="1"/>
        <pt x="505" y="99" on="0"/>
        <pt x="385" y="-6" on="0"/>
        <pt x="187" y="-6" on="0"/>
        <pt x="68" y="99" on="0"/>
      </contour>
      <contour>
        <pt x="180" y="864" on="0"/>
        <pt x="180" y="898" on="0"/>
        <pt x="204" y="922" on="0"/>
        <pt x="238" y="922" on="0"/>
        <pt x="261" y="898" on="0"/>
        <pt x="261" y="864" on="0"/>
        <pt x="237" y="839" on="0"/>
        <pt x="221" y="839" on="1"/>
        <pt x="204" y="839" on="0"/>
      </contour>
      <contour>
        <pt x="311" y="864" on="0"/>
        <pt x="311" y="898" on="0"/>
        <pt x="334" y="922" on="0"/>
        <pt x="368" y="922" on="0"/>
        <pt x="391" y="898" on="0"/>
        <pt x="391" y="864" on="0"/>
        <pt x="368" y="839" on="0"/>
        <pt x="334" y="839" on="0"/>
      </contour>
    </TTGlyph>
    <TTGlyph name="Ugrave" xMin="68" yMin="-6" xMax="505" yMax="955">
      <contour>
        <pt x="68" y="212" on="1"/>
        <pt x="68" y="702" on="1"/>
        <pt x="68" y="716" on="0"/>
        <pt x="93" y="731" on="0"/>
        <pt x="127" y="731" on="0"/>
        <pt x="152" y="716" on="0"/>
        <pt x="152" y="702" on="1"/>
        <pt x="152" y="212" on="1"/>
        <pt x="152" y="70" on="0"/>
        <pt x="286" y="70" on="1"/>
        <pt x="351" y="70" on="0"/>
        <pt x="421" y="141" on="0"/>
        <pt x="421" y="212" on="1"/>
        <pt x="421" y="702" on="1"/>
        <pt x="421" y="731" on="0"/>
        <pt x="463" y="731" on="1"/>
        <pt x="480" y="731" on="0"/>
        <pt x="505" y="716" on="0"/>
        <pt x="505" y="702" on="1"/>
        <pt x="505" y="212" on="1"/>
        <pt x="505" y="99" on="0"/>
        <pt x="385" y="-6" on="0"/>
        <pt x="187" y="-6" on="0"/>
        <pt x="68" y="99" on="0"/>
      </contour>
      <contour>
        <pt x="193" y="921" on="1"/>
        <pt x="193" y="934" on="0"/>
        <pt x="209" y="955" on="0"/>
        <pt x="221" y="955" on="1"/>
        <pt x="225" y="955" on="0"/>
        <pt x="231" y="953" on="1"/>
        <pt x="348" y="891" on="1"/>
        <pt x="361" y="884" on="0"/>
        <pt x="361" y="869" on="1"/>
        <pt x="361" y="856" on="0"/>
        <pt x="343" y="835" on="0"/>
        <pt x="331" y="835" on="1"/>
        <pt x="328" y="835" on="0"/>
        <pt x="320" y="839" on="1"/>
        <pt x="207" y="897" on="1"/>
        <pt x="193" y="904" on="0"/>
      </contour>
    </TTGlyph>
    <TTGlyph name="Uhungarumlaut" xMin="68" yMin="-6" xMax="505" yMax="956">
      <contour>
        <pt x="68" y="212" on="1"/>
        <pt x="68" y="702" on="1"/>
        <pt x="68" y="716" on="0"/>
        <pt x="93" y="731" on="0"/>
        <pt x="127" y="731" on="0"/>
        <pt x="152" y="716" on="0"/>
        <pt x="152" y="702" on="1"/>
        <pt x="152" y="212" on="1"/>
        <pt x="152" y="70" on="0"/>
        <pt x="286" y="70" on="1"/>
        <pt x="351" y="70" on="0"/>
        <pt x="421" y="141" on="0"/>
        <pt x="421" y="212" on="1"/>
        <pt x="421" y="702" on="1"/>
        <pt x="421" y="731" on="0"/>
        <pt x="463" y="731" on="1"/>
        <pt x="480" y="731" on="0"/>
        <pt x="505" y="716" on="0"/>
        <pt x="505" y="702" on="1"/>
        <pt x="505" y="212" on="1"/>
        <pt x="505" y="99" on="0"/>
        <pt x="385" y="-6" on="0"/>
        <pt x="187" y="-6" on="0"/>
        <pt x="68" y="99" on="0"/>
      </contour>
      <contour>
        <pt x="179" y="852" on="0"/>
        <pt x="179" y="872" on="0"/>
        <pt x="187" y="877" on="1"/>
        <pt x="279" y="951" on="1"/>
        <pt x="284" y="956" on="0"/>
        <pt x="292" y="956" on="1"/>
        <pt x="303" y="956" on="0"/>
        <pt x="320" y="938" on="0"/>
        <pt x="320" y="928" on="1"/>
        <pt x="320" y="917" on="0"/>
        <pt x="311" y="911" on="1"/>
        <pt x="223" y="840" on="1"/>
        <pt x="216" y="834" on="0"/>
        <pt x="209" y="834" on="1"/>
        <pt x="198" y="834" on="0"/>
      </contour>
      <contour>
        <pt x="331" y="852" on="0"/>
        <pt x="331" y="872" on="0"/>
        <pt x="339" y="877" on="1"/>
        <pt x="432" y="951" on="1"/>
        <pt x="436" y="956" on="0"/>
        <pt x="445" y="956" on="1"/>
        <pt x="455" y="956" on="0"/>
        <pt x="472" y="938" on="0"/>
        <pt x="472" y="928" on="1"/>
        <pt x="472" y="917" on="0"/>
        <pt x="463" y="911" on="1"/>
        <pt x="375" y="840" on="1"/>
        <pt x="369" y="834" on="0"/>
        <pt x="361" y="834" on="1"/>
        <pt x="350" y="834" on="0"/>
      </contour>
    </TTGlyph>
    <TTGlyph name="Umacron" xMin="68" yMin="-6" xMax="505" yMax="940">
      <contour>
        <pt x="68" y="212" on="1"/>
        <pt x="68" y="702" on="1"/>
        <pt x="68" y="716" on="0"/>
        <pt x="93" y="731" on="0"/>
        <pt x="127" y="731" on="0"/>
        <pt x="152" y="716" on="0"/>
        <pt x="152" y="702" on="1"/>
        <pt x="152" y="212" on="1"/>
        <pt x="152" y="70" on="0"/>
        <pt x="286" y="70" on="1"/>
        <pt x="351" y="70" on="0"/>
        <pt x="421" y="141" on="0"/>
        <pt x="421" y="212" on="1"/>
        <pt x="421" y="702" on="1"/>
        <pt x="421" y="731" on="0"/>
        <pt x="463" y="731" on="1"/>
        <pt x="480" y="731" on="0"/>
        <pt x="505" y="716" on="0"/>
        <pt x="505" y="702" on="1"/>
        <pt x="505" y="212" on="1"/>
        <pt x="505" y="99" on="0"/>
        <pt x="385" y="-6" on="0"/>
        <pt x="187" y="-6" on="0"/>
        <pt x="68" y="99" on="0"/>
      </contour>
      <contour>
        <pt x="150" y="896" on="0"/>
        <pt x="150" y="922" on="0"/>
        <pt x="166" y="940" on="0"/>
        <pt x="179" y="940" on="1"/>
        <pt x="391" y="940" on="1"/>
        <pt x="402" y="940" on="0"/>
        <pt x="421" y="922" on="0"/>
        <pt x="421" y="896" on="0"/>
        <pt x="403" y="879" on="0"/>
        <pt x="391" y="879" on="1"/>
        <pt x="179" y="879" on="1"/>
        <pt x="166" y="879" on="0"/>
      </contour>
    </TTGlyph>
    <TTGlyph name="Uogonek" xMin="68" yMin="-204" xMax="505" yMax="731">
      <contour>
        <pt x="68" y="212" on="1"/>
        <pt x="68" y="702" on="1"/>
        <pt x="68" y="716" on="0"/>
        <pt x="93" y="731" on="0"/>
        <pt x="127" y="731" on="0"/>
        <pt x="152" y="716" on="0"/>
        <pt x="152" y="702" on="1"/>
        <pt x="152" y="212" on="1"/>
        <pt x="152" y="70" on="0"/>
        <pt x="286" y="70" on="1"/>
        <pt x="351" y="70" on="0"/>
        <pt x="421" y="141" on="0"/>
        <pt x="421" y="212" on="1"/>
        <pt x="421" y="702" on="1"/>
        <pt x="421" y="731" on="0"/>
        <pt x="463" y="731" on="1"/>
        <pt x="480" y="731" on="0"/>
        <pt x="505" y="716" on="0"/>
        <pt x="505" y="702" on="1"/>
        <pt x="505" y="212" on="1"/>
        <pt x="505" y="43" on="0"/>
        <pt x="367" y="4" on="1"/>
        <pt x="294" y="-53" on="0"/>
        <pt x="294" y="-118" on="1"/>
        <pt x="294" y="-163" on="0"/>
        <pt x="355" y="-163" on="1"/>
        <pt x="375" y="-163" on="0"/>
        <pt x="375" y="-185" on="1"/>
        <pt x="375" y="-204" on="0"/>
        <pt x="349" y="-204" on="1"/>
        <pt x="304" y="-204" on="0"/>
        <pt x="247" y="-164" on="0"/>
        <pt x="247" y="-125" on="1"/>
        <pt x="247" y="-61" on="0"/>
        <pt x="301" y="-5" on="1"/>
        <pt x="298" y="-5" on="0"/>
        <pt x="288" y="-6" on="0"/>
        <pt x="286" y="-6" on="1"/>
        <pt x="187" y="-6" on="0"/>
        <pt x="68" y="99" on="0"/>
      </contour>
    </TTGlyph>
    <TTGlyph name="Uring" xMin="68" yMin="-6" xMax="505" yMax="1019">
      <contour>
        <pt x="68" y="212" on="1"/>
        <pt x="68" y="702" on="1"/>
        <pt x="68" y="716" on="0"/>
        <pt x="93" y="731" on="0"/>
        <pt x="127" y="731" on="0"/>
        <pt x="152" y="716" on="0"/>
        <pt x="152" y="702" on="1"/>
        <pt x="152" y="212" on="1"/>
        <pt x="152" y="70" on="0"/>
        <pt x="286" y="70" on="1"/>
        <pt x="351" y="70" on="0"/>
        <pt x="421" y="141" on="0"/>
        <pt x="421" y="212" on="1"/>
        <pt x="421" y="702" on="1"/>
        <pt x="421" y="731" on="0"/>
        <pt x="463" y="731" on="1"/>
        <pt x="480" y="731" on="0"/>
        <pt x="505" y="716" on="0"/>
        <pt x="505" y="702" on="1"/>
        <pt x="505" y="212" on="1"/>
        <pt x="505" y="99" on="0"/>
        <pt x="385" y="-6" on="0"/>
        <pt x="187" y="-6" on="0"/>
        <pt x="68" y="99" on="0"/>
      </contour>
      <contour>
        <pt x="192" y="924" on="1"/>
        <pt x="192" y="962" on="0"/>
        <pt x="247" y="1019" on="0"/>
        <pt x="286" y="1019" on="1"/>
        <pt x="323" y="1019" on="0"/>
        <pt x="380" y="961" on="0"/>
        <pt x="380" y="924" on="1"/>
        <pt x="380" y="886" on="0"/>
        <pt x="323" y="827" on="0"/>
        <pt x="286" y="827" on="1"/>
        <pt x="247" y="827" on="0"/>
        <pt x="192" y="885" on="0"/>
      </contour>
      <contour>
        <pt x="230" y="924" on="1"/>
        <pt x="230" y="902" on="0"/>
        <pt x="263" y="865" on="0"/>
        <pt x="286" y="865" on="1"/>
        <pt x="308" y="865" on="0"/>
        <pt x="341" y="902" on="0"/>
        <pt x="341" y="924" on="1"/>
        <pt x="341" y="945" on="0"/>
        <pt x="308" y="979" on="0"/>
        <pt x="286" y="979" on="1"/>
        <pt x="263" y="979" on="0"/>
        <pt x="230" y="944" on="0"/>
      </contour>
    </TTGlyph>
    <TTGlyph name="Utilde" xMin="68" yMin="-6" xMax="505" yMax="948">
      <contour>
        <pt x="68" y="212" on="1"/>
        <pt x="68" y="702" on="1"/>
        <pt x="68" y="716" on="0"/>
        <pt x="93" y="731" on="0"/>
        <pt x="127" y="731" on="0"/>
        <pt x="152" y="716" on="0"/>
        <pt x="152" y="702" on="1"/>
        <pt x="152" y="212" on="1"/>
        <pt x="152" y="70" on="0"/>
        <pt x="286" y="70" on="1"/>
        <pt x="351" y="70" on="0"/>
        <pt x="421" y="141" on="0"/>
        <pt x="421" y="212" on="1"/>
        <pt x="421" y="702" on="1"/>
        <pt x="421" y="731" on="0"/>
        <pt x="463" y="731" on="1"/>
        <pt x="480" y="731" on="0"/>
        <pt x="505" y="716" on="0"/>
        <pt x="505" y="702" on="1"/>
        <pt x="505" y="212" on="1"/>
        <pt x="505" y="99" on="0"/>
        <pt x="385" y="-6" on="0"/>
        <pt x="187" y="-6" on="0"/>
        <pt x="68" y="99" on="0"/>
      </contour>
      <contour>
        <pt x="124" y="887" on="1"/>
        <pt x="124" y="916" on="0"/>
        <pt x="183" y="948" on="0"/>
        <pt x="211" y="948" on="1"/>
        <pt x="238" y="948" on="0"/>
        <pt x="320" y="915" on="0"/>
        <pt x="346" y="915" on="1"/>
        <pt x="371" y="915" on="0"/>
        <pt x="413" y="942" on="0"/>
        <pt x="419" y="942" on="1"/>
        <pt x="430" y="942" on="0"/>
        <pt x="443" y="923" on="0"/>
        <pt x="443" y="914" on="1"/>
        <pt x="443" y="883" on="0"/>
        <pt x="387" y="854" on="0"/>
        <pt x="359" y="854" on="1"/>
        <pt x="329" y="854" on="0"/>
        <pt x="249" y="887" on="0"/>
        <pt x="223" y="887" on="1"/>
        <pt x="198" y="887" on="0"/>
        <pt x="153" y="858" on="0"/>
        <pt x="147" y="858" on="1"/>
        <pt x="136" y="858" on="0"/>
        <pt x="124" y="877" on="0"/>
      </contour>
    </TTGlyph>
    <TTGlyph name="V" xMin="17" yMin="-6" xMax="532" yMax="731">
      <contour>
        <pt x="17" y="696" on="1"/>
        <pt x="17" y="711" on="0"/>
        <pt x="50" y="731" on="0"/>
        <pt x="68" y="731" on="1"/>
        <pt x="93" y="731" on="0"/>
        <pt x="99" y="712" on="1"/>
        <pt x="275" y="118" on="1"/>
        <pt x="450" y="712" on="1"/>
        <pt x="457" y="731" on="0"/>
        <pt x="480" y="731" on="1"/>
        <pt x="499" y="731" on="0"/>
        <pt x="532" y="709" on="0"/>
        <pt x="532" y="695" on="1"/>
        <pt x="532" y="694" on="0"/>
        <pt x="531" y="690" on="0"/>
        <pt x="531" y="688" on="1"/>
        <pt x="328" y="23" on="1"/>
        <pt x="317" y="-6" on="0"/>
        <pt x="233" y="-6" on="0"/>
        <pt x="224" y="23" on="1"/>
        <pt x="19" y="688" on="1"/>
        <pt x="17" y="694" on="0"/>
      </contour>
    </TTGlyph>
    <TTGlyph name="W" xMin="17" yMin="-6" xMax="795" yMax="731">
      <contour>
        <pt x="17" y="697" on="1"/>
        <pt x="17" y="711" on="0"/>
        <pt x="50" y="731" on="0"/>
        <pt x="68" y="731" on="1"/>
        <pt x="93" y="731" on="0"/>
        <pt x="99" y="712" on="1"/>
        <pt x="268" y="118" on="1"/>
        <pt x="363" y="484" on="1"/>
        <pt x="370" y="510" on="0"/>
        <pt x="407" y="510" on="1"/>
        <pt x="442" y="510" on="0"/>
        <pt x="449" y="484" on="1"/>
        <pt x="545" y="118" on="1"/>
        <pt x="713" y="712" on="1"/>
        <pt x="719" y="731" on="0"/>
        <pt x="745" y="731" on="1"/>
        <pt x="763" y="731" on="0"/>
        <pt x="795" y="711" on="0"/>
        <pt x="795" y="697" on="1"/>
        <pt x="795" y="691" on="0"/>
        <pt x="794" y="688" on="1"/>
        <pt x="597" y="23" on="1"/>
        <pt x="588" y="-6" on="0"/>
        <pt x="545" y="-6" on="1"/>
        <pt x="500" y="-6" on="0"/>
        <pt x="493" y="23" on="1"/>
        <pt x="407" y="353" on="1"/>
        <pt x="320" y="23" on="1"/>
        <pt x="312" y="-6" on="0"/>
        <pt x="226" y="-6" on="0"/>
        <pt x="217" y="23" on="1"/>
        <pt x="19" y="688" on="1"/>
        <pt x="17" y="694" on="0"/>
      </contour>
    </TTGlyph>
    <TTGlyph name="Wacute" xMin="17" yMin="-6" xMax="795" yMax="955">
      <contour>
        <pt x="17" y="697" on="1"/>
        <pt x="17" y="711" on="0"/>
        <pt x="50" y="731" on="0"/>
        <pt x="68" y="731" on="1"/>
        <pt x="93" y="731" on="0"/>
        <pt x="99" y="712" on="1"/>
        <pt x="268" y="118" on="1"/>
        <pt x="363" y="484" on="1"/>
        <pt x="370" y="510" on="0"/>
        <pt x="407" y="510" on="1"/>
        <pt x="442" y="510" on="0"/>
        <pt x="449" y="484" on="1"/>
        <pt x="545" y="118" on="1"/>
        <pt x="713" y="712" on="1"/>
        <pt x="719" y="731" on="0"/>
        <pt x="745" y="731" on="1"/>
        <pt x="763" y="731" on="0"/>
        <pt x="795" y="711" on="0"/>
        <pt x="795" y="697" on="1"/>
        <pt x="795" y="691" on="0"/>
        <pt x="794" y="688" on="1"/>
        <pt x="597" y="23" on="1"/>
        <pt x="588" y="-6" on="0"/>
        <pt x="545" y="-6" on="1"/>
        <pt x="500" y="-6" on="0"/>
        <pt x="493" y="23" on="1"/>
        <pt x="407" y="353" on="1"/>
        <pt x="320" y="23" on="1"/>
        <pt x="312" y="-6" on="0"/>
        <pt x="226" y="-6" on="0"/>
        <pt x="217" y="23" on="1"/>
        <pt x="19" y="688" on="1"/>
        <pt x="17" y="694" on="0"/>
      </contour>
      <contour>
        <pt x="330" y="869" on="1"/>
        <pt x="330" y="884" on="0"/>
        <pt x="343" y="891" on="1"/>
        <pt x="460" y="953" on="1"/>
        <pt x="466" y="955" on="0"/>
        <pt x="470" y="955" on="1"/>
        <pt x="482" y="955" on="0"/>
        <pt x="498" y="934" on="0"/>
        <pt x="498" y="921" on="1"/>
        <pt x="498" y="904" on="0"/>
        <pt x="484" y="897" on="1"/>
        <pt x="371" y="839" on="1"/>
        <pt x="363" y="835" on="0"/>
        <pt x="360" y="835" on="1"/>
        <pt x="348" y="835" on="0"/>
        <pt x="330" y="856" on="0"/>
      </contour>
    </TTGlyph>
    <TTGlyph name="Wcircumflex" xMin="17" yMin="-6" xMax="795" yMax="955">
      <contour>
        <pt x="17" y="697" on="1"/>
        <pt x="17" y="711" on="0"/>
        <pt x="50" y="731" on="0"/>
        <pt x="68" y="731" on="1"/>
        <pt x="93" y="731" on="0"/>
        <pt x="99" y="712" on="1"/>
        <pt x="268" y="118" on="1"/>
        <pt x="363" y="484" on="1"/>
        <pt x="370" y="510" on="0"/>
        <pt x="407" y="510" on="1"/>
        <pt x="442" y="510" on="0"/>
        <pt x="449" y="484" on="1"/>
        <pt x="545" y="118" on="1"/>
        <pt x="713" y="712" on="1"/>
        <pt x="719" y="731" on="0"/>
        <pt x="745" y="731" on="1"/>
        <pt x="763" y="731" on="0"/>
        <pt x="795" y="711" on="0"/>
        <pt x="795" y="697" on="1"/>
        <pt x="795" y="691" on="0"/>
        <pt x="794" y="688" on="1"/>
        <pt x="597" y="23" on="1"/>
        <pt x="588" y="-6" on="0"/>
        <pt x="545" y="-6" on="1"/>
        <pt x="500" y="-6" on="0"/>
        <pt x="493" y="23" on="1"/>
        <pt x="407" y="353" on="1"/>
        <pt x="320" y="23" on="1"/>
        <pt x="312" y="-6" on="0"/>
        <pt x="226" y="-6" on="0"/>
        <pt x="217" y="23" on="1"/>
        <pt x="19" y="688" on="1"/>
        <pt x="17" y="694" on="0"/>
      </contour>
      <contour>
        <pt x="270" y="868" on="1"/>
        <pt x="270" y="886" on="0"/>
        <pt x="285" y="894" on="1"/>
        <pt x="389" y="950" on="1"/>
        <pt x="399" y="955" on="0"/>
        <pt x="406" y="955" on="1"/>
        <pt x="415" y="955" on="0"/>
        <pt x="423" y="950" on="1"/>
        <pt x="527" y="895" on="1"/>
        <pt x="543" y="886" on="0"/>
        <pt x="543" y="867" on="1"/>
        <pt x="543" y="856" on="0"/>
        <pt x="530" y="839" on="0"/>
        <pt x="520" y="839" on="1"/>
        <pt x="518" y="839" on="0"/>
        <pt x="514" y="840" on="1"/>
        <pt x="512" y="842" on="0"/>
        <pt x="510" y="842" on="1"/>
        <pt x="406" y="898" on="1"/>
        <pt x="302" y="842" on="1"/>
        <pt x="298" y="839" on="0"/>
        <pt x="293" y="839" on="1"/>
        <pt x="284" y="839" on="0"/>
        <pt x="270" y="857" on="0"/>
      </contour>
    </TTGlyph>
    <TTGlyph name="Wdieresis" xMin="17" yMin="-6" xMax="795" yMax="922">
      <contour>
        <pt x="17" y="697" on="1"/>
        <pt x="17" y="711" on="0"/>
        <pt x="50" y="731" on="0"/>
        <pt x="68" y="731" on="1"/>
        <pt x="93" y="731" on="0"/>
        <pt x="99" y="712" on="1"/>
        <pt x="268" y="118" on="1"/>
        <pt x="363" y="484" on="1"/>
        <pt x="370" y="510" on="0"/>
        <pt x="407" y="510" on="1"/>
        <pt x="442" y="510" on="0"/>
        <pt x="449" y="484" on="1"/>
        <pt x="545" y="118" on="1"/>
        <pt x="713" y="712" on="1"/>
        <pt x="719" y="731" on="0"/>
        <pt x="745" y="731" on="1"/>
        <pt x="763" y="731" on="0"/>
        <pt x="795" y="711" on="0"/>
        <pt x="795" y="697" on="1"/>
        <pt x="795" y="691" on="0"/>
        <pt x="794" y="688" on="1"/>
        <pt x="597" y="23" on="1"/>
        <pt x="588" y="-6" on="0"/>
        <pt x="545" y="-6" on="1"/>
        <pt x="500" y="-6" on="0"/>
        <pt x="493" y="23" on="1"/>
        <pt x="407" y="353" on="1"/>
        <pt x="320" y="23" on="1"/>
        <pt x="312" y="-6" on="0"/>
        <pt x="226" y="-6" on="0"/>
        <pt x="217" y="23" on="1"/>
        <pt x="19" y="688" on="1"/>
        <pt x="17" y="694" on="0"/>
      </contour>
      <contour>
        <pt x="301" y="864" on="0"/>
        <pt x="301" y="898" on="0"/>
        <pt x="325" y="922" on="0"/>
        <pt x="359" y="922" on="0"/>
        <pt x="382" y="898" on="0"/>
        <pt x="382" y="864" on="0"/>
        <pt x="358" y="839" on="0"/>
        <pt x="342" y="839" on="1"/>
        <pt x="325" y="839" on="0"/>
      </contour>
      <contour>
        <pt x="432" y="864" on="0"/>
        <pt x="432" y="898" on="0"/>
        <pt x="455" y="922" on="0"/>
        <pt x="489" y="922" on="0"/>
        <pt x="512" y="898" on="0"/>
        <pt x="512" y="864" on="0"/>
        <pt x="489" y="839" on="0"/>
        <pt x="455" y="839" on="0"/>
      </contour>
    </TTGlyph>
</ttFont>
